<?xml version="1.0" encoding="UTF-8" standalone="no"?>
<svg
   viewBox="0.5 1.8 24 24"
   version="1.1"
   id="svg4"
   sodipodi:docname="appscope.svg"
   width="24"
   height="24"
   inkscape:version="1.1.1 (3bf5ae0d25, 2021-09-20, custom)"
   xmlns:inkscape="http://www.inkscape.org/namespaces/inkscape"
   xmlns:sodipodi="http://sodipodi.sourceforge.net/DTD/sodipodi-0.dtd"
   xmlns:xlink="http://www.w3.org/1999/xlink"
   xmlns="http://www.w3.org/2000/svg"
   xmlns:svg="http://www.w3.org/2000/svg">
  <defs
     id="defs8">
    <linearGradient
       id="linearGradient918"
       inkscape:collect="always">
      <stop
         id="stop914"
         offset="0"
         style="stop-color:#66ffff;stop-opacity:1" />
      <stop
         id="stop916"
         offset="1"
         style="stop-color:#2121a4;stop-opacity:1" />
    </linearGradient>
    <linearGradient
       inkscape:collect="always"
       xlink:href="#linearGradient918"
       id="linearGradient8703"
       x1="0.49765831"
       y1="1.807981"
       x2="24.498007"
       y2="25.795044"
       gradientUnits="userSpaceOnUse" />
  </defs>
  <sodipodi:namedview
     id="namedview6"
     pagecolor="#505050"
     bordercolor="#ffffff"
     borderopacity="1"
     inkscape:pageshadow="0"
     inkscape:pageopacity="0"
     inkscape:pagecheckerboard="1"
     showgrid="false"
     inkscape:zoom="8"
     inkscape:cx="28.6875"
     inkscape:cy="8.9375"
     inkscape:window-width="1920"
     inkscape:window-height="1011"
     inkscape:window-x="0"
     inkscape:window-y="33"
     inkscape:window-maximized="1"
     inkscape:current-layer="svg4" />
  <path
     d="M 20.832862,8.0216541 C 19.820334,5.7715919 18.470297,5.7153404 18.132787,5.9403466 17.739026,6.1091012 4.294905,13.64681 3.8448925,14.04057 c -0.4500124,0.393762 -0.4500124,1.293786 -0.056252,2.025056 0.3937609,0.731271 1.0687796,1.125031 1.406289,1.012528 0.1687546,-0.05625 2.5875715,-0.843773 5.5126521,-1.743798 L 7.9512561,19.215713 C 7.7825014,19.496972 7.838753,19.834481 8.0637592,20.003235 8.345017,20.17199 8.6825263,20.115738 8.851281,19.890732 l 2.475068,-3.431345 v 4.725131 c 0,0.337509 0.281258,0.562516 0.562516,0.562516 0.33751,0 0.562516,-0.281258 0.562516,-0.562516 v -4.725131 l 2.475067,3.431345 c 0.168755,0.281258 0.562516,0.33751 0.787522,0.112503 0.225007,-0.225006 0.33751,-0.562516 0.112503,-0.787522 l -3.206338,-4.500124 c 3.937608,-1.293786 7.987721,-2.587571 8.268978,-2.756326 0.618768,-0.393761 1.012529,-1.687547 -0.05625,-3.9376089 z"
     fill="#000000"
     id="path2"
     style="stroke-width:0.562516;fill:url(#linearGradient8703);fill-opacity:1" />
</svg>
