<svg version="1.1" xmlns="http://www.w3.org/2000/svg" xmlns:xlink="http://www.w3.org/1999/xlink" width="129.67606" height="127.32819" viewBox="0,0,129.67606,127.32819"><g transform="translate(-175.16197,-116.33592)"><g data-paper-data="{&quot;isPaintingLayer&quot;:true}" fill-rule="evenodd" stroke="none" stroke-width="1" stroke-linecap="butt" stroke-linejoin="miter" stroke-miterlimit="10" stroke-dasharray="" stroke-dashoffset="0" style="mix-blend-mode: normal"><path d="M289.11276,156.41276c5.99062,6.68982 10.33712,14.05054 13.03952,22.08213c2.60791,7.80481 3.31657,15.11828 2.12601,21.9404c-0.54803,6.10402 -2.57011,11.83005 -6.06621,17.17814c-3.4394,5.21581 -8.07883,9.77964 -13.91826,13.69149c-12.28359,8.23946 -27.30738,12.35919 -45.07136,12.35919c-17.74507,-0.01889 -32.63658,-4.52603 -44.67449,-13.52141c-5.65046,-4.23312 -10.11979,-9.15599 -13.40802,-14.76866c-3.32602,-5.70715 -5.22525,-11.77336 -5.6977,-18.19862c-0.8126,-6.91661 0.14174,-14.21118 2.86302,-21.8837c2.6457,-7.48353 6.65204,-14.40961 12.01903,-20.77819c5.51818,-6.57645 11.82061,-11.74502 18.90728,-15.50569c7.61582,-4.06304 15.45843,-6.09455 23.52781,-6.09455c11.94344,-0.15119 22.95144,2.02208 33.02398,6.51975c9.05206,4.04413 16.82853,9.70405 23.32938,16.97971" fill="#000000"/><path d="M286.39147,157.57497c5.65046,6.46306 9.75129,13.55921 12.3025,21.28842c2.47562,7.48353 3.14649,14.4474 2.01261,20.89155c-1.03938,11.64107 -7.36071,21.19393 -18.96398,28.65858c-11.56547,7.42686 -25.79555,11.14027 -42.69022,11.14027c-16.83798,-0.01889 -30.86963,-4.11028 -42.09495,-12.27415c-5.31031,-3.85515 -9.49616,-8.38119 -12.55762,-13.5781c-3.13704,-5.2725 -4.92289,-10.94185 -5.35754,-17.00806c-0.77481,-6.53866 0.12283,-13.49306 2.69294,-20.86321c2.51342,-7.18119 6.29298,-13.86158 11.33871,-20.04115c5.2347,-6.36858 11.18753,-11.38594 17.85846,-15.05213c7.21897,-3.96854 14.62693,-5.95282 22.22386,-5.95282c11.26312,-0.13228 21.65692,1.98427 31.18145,6.34967c8.54183,3.91185 15.89309,9.39223 22.05378,16.44112" fill="#6de249"/><path d="M300.76328,199.24471l-0.05669,0.51024c-1.03938,11.64107 -7.36071,21.19393 -18.96398,28.65858c-11.56547,7.42686 -25.79555,11.14027 -42.69022,11.14027c-16.83798,-0.01889 -30.86963,-4.11028 -42.09495,-12.27415c-5.31031,-3.85515 -9.49616,-8.38119 -12.55762,-13.5781c-3.13704,-5.2725 -4.92289,-10.94185 -5.35754,-17.00806c-0.47244,-4.00635 -0.30237,-8.22057 0.51024,-12.64266c-0.32127,3.06145 -0.31181,6.00007 0.02834,8.81584c0.43465,6.06621 2.22049,11.74502 5.35754,17.0364c3.06145,5.19691 7.24731,9.72295 12.55762,13.5781c11.22532,8.16387 25.25696,12.24581 42.09495,12.24581c16.02538,0.01889 29.71686,-3.36382 41.07446,-10.14814c11.33871,-6.76542 18.03799,-15.54348 20.09785,-26.33414" fill="#51bc30"/><path d="M293.64824,194.36907c0,4.15752 -1.41734,7.71032 -4.25202,10.65839c-2.81579,2.94807 -6.21739,4.4221 -10.20484,4.4221c-3.98743,0 -7.39851,-1.47403 -10.23318,-4.4221c-2.81579,-2.92916 -4.22367,-6.48196 -4.22367,-10.65839c0,-4.17643 1.40789,-7.73867 4.22367,-10.68674c2.81579,-2.94807 6.22683,-4.4221 10.23318,-4.4221c3.98743,0 7.38906,1.47403 10.20484,4.4221c2.83467,2.94807 4.25202,6.5103 4.25202,10.68674" fill="#46b327"/><path d="M293.27974,190.08871c0,4.23312 -1.43624,7.8615 -4.30871,10.88516c-2.89137,3.00476 -6.36858,4.50713 -10.4316,4.50713c-4.06304,0 -7.53079,-1.50237 -10.40326,-4.50713c-2.87248,-3.00476 -4.30871,-6.63314 -4.30871,-10.88516c0,-4.25202 1.43624,-7.8804 4.30871,-10.88516c2.87248,-3.00476 6.34023,-4.50713 10.40326,-4.50713c4.06304,0 7.54024,1.50237 10.4316,4.50713c2.87248,3.00476 4.30871,6.63314 4.30871,10.88516" fill="#44741a"/><path d="M291.57893,190.08871c0,3.76066 -1.27561,6.96385 -3.82682,9.60955c-2.53231,2.66459 -5.6032,3.99689 -9.2127,3.99689c-3.59059,0 -6.66149,-1.3323 -9.2127,-3.99689c-2.53231,-2.6457 -3.79847,-5.84888 -3.79847,-9.60955c0,-3.77957 1.26615,-6.9922 3.79847,-9.63789c2.5512,-2.66459 5.62212,-3.99689 9.2127,-3.99689c3.6095,0 6.68039,1.3323 9.2127,3.99689c2.5512,2.66459 3.82682,5.87723 3.82682,9.63789" fill="#ffffff"/><path d="M286.67494,190.03202c0,0.90709 -0.31181,1.68191 -0.93545,2.32443c-0.62362,0.64252 -1.37009,0.9638 -2.23939,0.9638c-0.8693,0 -1.60632,-0.32127 -2.21105,-0.9638c-0.62362,-0.64252 -0.93545,-1.41734 -0.93545,-2.32443c0,-0.92599 0.31181,-1.71026 0.93545,-2.35278c0.60473,-0.64252 1.34175,-0.9638 2.21105,-0.9638c0.8882,0 1.63466,0.32127 2.23939,0.9638c0.62362,0.64252 0.93545,1.42679 0.93545,2.35278" fill="#000000"/><path d="M179.21236,195.33285c0,-4.19532 1.42679,-7.77647 4.28036,-10.74342c2.83467,-2.98586 6.26463,-4.47878 10.28988,-4.47878c4.02524,0 7.46465,1.49293 10.31822,4.47878c2.83467,2.96696 4.25202,6.54811 4.25202,10.74342c0,4.21422 -1.41734,7.80481 -4.25202,10.77176c-2.85357,2.96696 -6.29298,4.45044 -10.31822,4.45044c-4.02524,0 -7.4552,-1.48349 -10.28988,-4.45044c-2.85357,-2.96696 -4.28036,-6.55754 -4.28036,-10.77176" fill="#46b327"/><path d="M183.40767,202.02269c-2.91026,-3.04255 -4.3654,-6.70873 -4.3654,-10.99855c0,-4.28982 1.45513,-7.94654 4.3654,-10.97019c2.89137,-3.04255 6.38747,-4.56384 10.48829,-4.56384c4.10083,0 7.60639,1.52128 10.51665,4.56384c2.91026,3.02366 4.3654,6.68039 4.3654,10.97019c0,4.28982 -1.45513,7.95599 -4.3654,10.99855c-2.89137,3.02366 -6.39691,4.53548 -10.51665,4.53548c-4.10083,0 -7.59693,-1.51183 -10.48829,-4.53548" fill="#44741a"/><path d="M184.62659,200.74709c-2.57011,-2.68349 -3.85515,-5.92448 -3.85515,-9.72295c0,-3.79847 1.28505,-7.03001 3.85515,-9.69459c2.5512,-2.68349 5.64101,-4.02524 9.26939,-4.02524c3.64727,0 6.74653,1.34175 9.29774,4.02524c2.57011,2.66459 3.85515,5.89613 3.85515,9.69459c0,3.79847 -1.28505,7.03944 -3.85515,9.72295c-2.5512,2.68349 -5.65046,4.02524 -9.29774,4.02524c-3.62838,0 -6.71819,-1.34175 -9.26939,-4.02524" fill="#ffffff"/><path d="M225.51223,210.43293l6.11189,-2.30781c4.76778,-1.6738 8.89309,-2.84883 12.37594,-3.52511c11.10792,-2.18101 13.62706,1.02288 7.55744,9.61164c-3.43213,4.86922 -7.36301,8.17455 -11.79265,9.91597c-3.92243,1.55545 -7.90403,1.78369 -11.94481,0.68473c-3.71954,-1.01442 -6.93188,-2.95873 -9.637,-5.83292c-2.70512,-2.87419 -4.34511,-6.08653 -4.91994,-9.637c-0.94679,-5.90055 0.81154,-7.48981 5.27499,-4.76778c2.23173,1.36947 4.55644,3.32223 6.97415,5.85828" fill="#57c435"/><g><path d="M253.7906,175.54026c6.29298,4.62997 9.57176,11.22532 9.83634,19.78604c0.26456,8.37174 -2.56065,14.63637 -8.47568,18.79391c-5.2536,3.70398 -12.89778,5.6977 -22.93253,5.98116c-8.91977,0.26456 -16.11986,-1.82364 -21.60024,-6.26463c-5.00793,-4.08194 -7.66307,-9.25993 -7.96543,-15.53403c-0.15118,-3.00476 0.34962,-6.13235 1.50237,-9.38278c1.20946,-3.40162 2.96696,-6.49141 5.2725,-9.26939c5.46148,-6.59535 12.48202,-10.01585 21.06164,-10.26153c9.5812,-0.28347 17.34822,1.76694 23.30104,6.15124" fill="#4e8e00"/><path d="M251.91971,177.29776c5.72605,4.19532 8.70246,10.18593 8.92924,17.97186c0.24568,7.97489 -1.90868,13.73873 -6.46306,17.29153c-4.47878,3.4961 -11.8395,5.24415 -22.08213,5.24415c-9.44892,0 -16.40334,-1.96539 -20.86321,-5.89613c-3.70398,-3.25043 -5.70715,-7.88984 -6.00951,-13.91826c-0.13228,-2.7402 0.32127,-5.58431 1.36065,-8.53238c1.09608,-3.08035 2.69294,-5.88668 4.7906,-8.41899c4.97013,-5.99062 11.3576,-9.0993 19.16242,-9.32608c8.69301,-0.26456 15.75135,1.59686 21.17503,5.58431" fill="#a5e900"/><path d="M238.36996,190.73413c1.03938,-1.54962 2.53231,-2.35278 4.47878,-2.40948c1.94648,-0.05669 3.53391,0.66143 4.76225,2.15436c1.11496,1.32284 1.72915,2.97642 1.84254,4.96069c0.11339,1.96539 -0.30237,3.65673 -1.24727,5.07407c-1.05828,1.54962 -2.56065,2.36223 -4.50713,2.43783c-1.94648,0.07559 -3.53391,-0.63307 -4.76225,-2.12601c-1.09608,-1.32284 -1.7008,-2.98586 -1.8142,-4.98903c-0.13228,-1.98427 0.28347,-3.68507 1.24727,-5.10242" fill="#14390f"/><path d="M217.27998,189.6853c1.07718,-1.7575 2.53231,-2.59845 4.3654,-2.52286c1.83309,0.05669 3.29768,0.99215 4.39375,2.80633c0.98268,1.62522 1.47403,3.59059 1.47403,5.89613c0.01889,2.30554 -0.463,4.24257 -1.44568,5.81109c-1.07718,1.7575 -2.53231,2.61735 -4.3654,2.57956c-1.83309,-0.0378 -3.29768,-0.9638 -4.39375,-2.77798c-0.98268,-1.62522 -1.47403,-3.60004 -1.47403,-5.92448c-0.01889,-2.32443 0.463,-4.28036 1.44568,-5.86778" fill="#14390f"/><path d="M196.36005,145.74782c-1.7953,-1.32284 -3.17484,-2.93861 -4.13863,-4.8473c-1.05828,-2.13545 -1.37955,-4.23311 -0.9638,-6.29298c0.49134,-2.36223 1.94648,-4.4599 4.3654,-6.29298c4.81895,-3.62838 9.2883,-3.99689 13.40802,-1.10552c1.71971,1.22836 3.11814,2.91026 4.19532,5.04573c1.03938,2.09767 1.60632,4.30871 1.7008,6.63314c-5.14021,0.79371 -8.46624,1.56852 -9.97805,2.32443c-2.51342,1.26615 -3.67563,3.45831 -3.48665,6.57645c-1.64411,-0.05669 -3.34492,-0.73701 -5.10242,-2.04096" fill="#000000"/><path d="M212.71614,134.52248c0.8504,2.13545 1.09608,4.35597 0.73701,6.66149c-0.30237,1.8898 -0.3685,3.53391 -0.19843,4.93234l0.22677,1.58742l-1.53072,-0.34016c-1.49293,-0.43465 -3.28823,-0.75591 -5.3859,-0.9638c-2.6457,-0.26456 -5.06462,-0.9638 -7.25678,-2.09767c-2.13545,-1.11496 -3.75121,-2.48506 -4.8473,-4.11028c-1.13387,-1.7008 -1.54018,-3.41106 -1.2189,-5.13076c0.35906,-1.90868 1.56852,-3.63784 3.62838,-5.18745c2.05986,-1.54962 4.20477,-2.31499 6.43472,-2.29608c2.04096,0.01889 3.9213,0.68031 5.64101,1.98427c1.68191,1.26615 2.93861,2.91973 3.77013,4.96069" fill="#6de249"/><path d="M201.03728,134.60753c1.03938,-0.92599 2.30554,-1.38899 3.79847,-1.38899c1.49293,0 2.75908,0.463 3.79847,1.38899c1.05828,0.90709 1.58742,2.01261 1.58742,3.31657c0,1.30396 -0.52915,2.41892 -1.58742,3.34492c-1.03938,0.90709 -2.30554,1.36065 -3.79847,1.36065c-1.49293,0 -2.75908,-0.45356 -3.79847,-1.36065c-1.05828,-0.92599 -1.58742,-2.04096 -1.58742,-3.34492c0,-1.30396 0.52915,-2.40948 1.58742,-3.31657" fill="#389e1b"/><path d="M239.47549,120.831c2.72128,-4.17642 7.0111,-5.44259 12.86943,-3.79847c2.94807,0.83151 5.09297,2.2583 6.43472,4.28036c1.17167,1.7764 1.66301,3.84572 1.47403,6.20795c-0.17009,2.11655 -0.83151,4.11028 -1.98427,5.98116c-1.15276,1.83309 -2.47562,3.0709 -3.96854,3.71343c-1.00159,-2.94807 -2.91026,-4.56384 -5.72605,-4.8473c-1.71971,-0.17009 -5.11187,0.30237 -10.17649,1.41734c-0.79371,-2.19214 -1.10552,-4.45044 -0.93545,-6.77488c0.18897,-2.36223 0.85985,-4.4221 2.01261,-6.1796" fill="#000000"/><path d="M244.91807,119.10186c2.07876,-0.81261 4.3654,-0.86931 6.85992,-0.17009c2.51342,0.69923 4.28981,1.87088 5.32919,3.51499c0.9638,1.49293 1.23781,3.23154 0.82206,5.21581c-0.39685,1.90868 -1.37955,3.76067 -2.94807,5.55596c-1.60632,1.85199 -3.59059,3.37326 -5.95282,4.56384c-2.17325,5.29139 -3.88351,7.56859 -5.13076,6.83157c-0.9638,-0.60473 -2.05042,-3.68507 -3.25988,-9.24105c-1.20946,-2.00316 -1.8142,-4.15752 -1.8142,-6.46306c-0.01889,-2.19214 0.51969,-4.17642 1.61577,-5.95282c1.09608,-1.8142 2.589,-3.09924 4.47878,-3.85515" fill="#6de249"/><path d="M245.71178,124.23263c1.17167,-0.75591 2.40002,-0.97324 3.68507,-0.65197c1.30396,0.32127 2.28664,1.09608 2.94807,2.32443c0.66143,1.20946 0.80316,2.51342 0.42521,3.91185c-0.37796,1.39843 -1.15276,2.47562 -2.32443,3.23154c-1.19056,0.75591 -2.42837,0.97324 -3.71343,0.65197c-1.28504,-0.30237 -2.2583,-1.06774 -2.91973,-2.29608c-0.64253,-1.22836 -0.78426,-2.54176 -0.42521,-3.9402c0.37796,-1.39843 1.15276,-2.47562 2.32443,-3.23154" fill="#389e1b"/><path d="M284.887,164.42832c0.77481,1.05828 0.78426,1.86144 0.02834,2.40948c-0.54803,0.41575 -1.2189,0.30237 -2.01261,-0.34016c-1.22836,-0.9638 -2.30554,-1.56852 -3.23154,-1.8142l-3.85515,-0.39685c-1.09608,-0.01889 -1.74805,-0.29291 -1.95593,-0.82206c-0.34016,-0.8504 0.34962,-1.65356 2.06932,-2.40948c1.8142,-0.81261 3.52445,-0.74646 5.13076,0.19843c1.8142,1.09608 3.08979,2.15436 3.82682,3.17484" fill="#255d0e"/><path d="M186.63711,165.05197c0.81261,-1.02048 2.21105,-2.06932 4.19532,-3.14649c1.7575,-0.9638 3.62838,-1.03938 5.61266,-0.22677c1.87088,0.75591 2.61735,1.55907 2.23939,2.40948c-0.22677,0.52915 -0.93545,0.80316 -2.12601,0.82206l-4.22367,0.39685c-1.00159,0.24568 -2.1638,0.85985 -3.48665,1.84254c-0.8882,0.62362 -1.63466,0.72757 -2.23939,0.31181c-0.81261,-0.54803 -0.80316,-1.35121 0.02834,-2.40948" fill="#255d0e"/></g><path d="M189.02037,188.61467c0.62362,-0.64252 1.37955,-0.9638 2.26774,-0.9638c0.8882,0 1.64411,0.32127 2.26774,0.9638c0.62362,0.64252 0.93545,1.42679 0.93545,2.35278c0,0.92599 -0.31181,1.71026 -0.93545,2.35278c-0.62362,0.66143 -1.37955,0.99215 -2.26774,0.99215c-0.8882,0 -1.64411,-0.33071 -2.26774,-0.99215c-0.62362,-0.64252 -0.93545,-1.42679 -0.93545,-2.35278c0,-0.92599 0.31181,-1.71026 0.93545,-2.35278" fill="#000000"/></g></g></svg>