<?xml version="1.0" encoding="UTF-8" standalone="no"?>
<!-- Generator: Adobe Illustrator 16.0.0, SVG Export Plug-In . SVG Version: 6.00 Build 0)  -->

<svg
   version="1.1"
   id="Capa_1"
   x="0px"
   y="0px"
   width="24"
   height="24"
   viewBox="0 0 24 23.999999"
   xml:space="preserve"
   sodipodi:docname="calculator.svg"
   inkscape:version="1.1.1 (3bf5ae0d25, 2021-09-20)"
   xmlns:inkscape="http://www.inkscape.org/namespaces/inkscape"
   xmlns:sodipodi="http://sodipodi.sourceforge.net/DTD/sodipodi-0.dtd"
   xmlns:xlink="http://www.w3.org/1999/xlink"
   xmlns="http://www.w3.org/2000/svg"
   xmlns:svg="http://www.w3.org/2000/svg"><defs
   id="defs39"><linearGradient
     inkscape:collect="always"
     xlink:href="#linearGradient1882"
     id="linearGradient1012"
     x1="100"
     y1="437.09949"
     x2="774.19897"
     y2="437.09949"
     gradientUnits="userSpaceOnUse" /><linearGradient
     inkscape:collect="always"
     id="linearGradient1882"><stop
       style="stop-color:#666666;stop-opacity:1"
       offset="0"
       id="stop1878" /><stop
       style="stop-color:#000000;stop-opacity:0;"
       offset="1"
       id="stop1880" /></linearGradient><linearGradient
     inkscape:collect="always"
     xlink:href="#linearGradient2898"
     id="linearGradient2900"
     x1="97.574287"
     y1="-4.8298955"
     x2="771.77338"
     y2="869.36902"
     gradientUnits="userSpaceOnUse" /><linearGradient
     inkscape:collect="always"
     id="linearGradient2898"><stop
       style="stop-color:#b3b3b3;stop-opacity:1"
       offset="0"
       id="stop2894" /><stop
       style="stop-color:#808080;stop-opacity:1"
       offset="1"
       id="stop2896" /></linearGradient></defs><sodipodi:namedview
   id="namedview37"
   pagecolor="#505050"
   bordercolor="#ffffff"
   borderopacity="1"
   inkscape:pageshadow="0"
   inkscape:pageopacity="0"
   inkscape:pagecheckerboard="1"
   showgrid="true"
   fit-margin-top="0"
   fit-margin-left="0"
   fit-margin-right="0"
   fit-margin-bottom="0"
   inkscape:zoom="32.872173"
   inkscape:cx="9.5065211"
   inkscape:cy="10.601672"
   inkscape:window-width="1920"
   inkscape:window-height="1019"
   inkscape:window-x="0"
   inkscape:window-y="33"
   inkscape:window-maximized="1"
   inkscape:current-layer="Capa_1"><inkscape:grid
     type="xygrid"
     id="grid856"
     originx="-708.05037"
     originy="-782.09945" /></sodipodi:namedview>

<g
   id="g6"
   transform="translate(-708.05036,-782.09951)">
</g>
<g
   id="g8"
   transform="translate(-708.05036,-782.09951)">
</g>
<g
   id="g10"
   transform="translate(-708.05036,-782.09951)">
</g>
<g
   id="g12"
   transform="translate(-708.05036,-782.09951)">
</g>
<g
   id="g14"
   transform="translate(-708.05036,-782.09951)">
</g>
<g
   id="g16"
   transform="translate(-708.05036,-782.09951)">
</g>
<g
   id="g18"
   transform="translate(-708.05036,-782.09951)">
</g>
<g
   id="g20"
   transform="translate(-708.05036,-782.09951)">
</g>
<g
   id="g22"
   transform="translate(-708.05036,-782.09951)">
</g>
<g
   id="g24"
   transform="translate(-708.05036,-782.09951)">
</g>
<g
   id="g26"
   transform="translate(-708.05036,-782.09951)">
</g>
<g
   id="g28"
   transform="translate(-708.05036,-782.09951)">
</g>
<g
   id="g30"
   transform="translate(-708.05036,-782.09951)">
</g>
<g
   id="g32"
   transform="translate(-708.05036,-782.09951)">
</g>
<g
   id="g34"
   transform="translate(-708.05036,-782.09951)">
</g>
<g
   id="g4315"><rect
     style="fill:#cccccc"
     id="rect3196"
     width="8"
     height="11.000001"
     x="5.9496298"
     y="8.9005499" /><rect
     style="fill:#cccccc"
     id="rect3533"
     width="4"
     height="4"
     x="13.94963"
     y="8.9005499" /></g><rect
   style="fill:#cca782;fill-opacity:1"
   id="rect3776"
   width="4"
   height="7"
   x="13.94963"
   y="12.90055" /><rect
   style="fill:#808080;fill-opacity:1"
   id="rect4341"
   width="12"
   height="4"
   x="5.9496298"
   y="3.9005499" /><g
   id="g4"
   transform="matrix(0.02076538,0,0,0.02059028,2.9234628,2.9999989)"
   style="fill:url(#linearGradient1012);fill-opacity:1"><path
     d="m 125,0 c -13.8,0 -25,11.2 -25,25 v 824.199 c 0,13.801 11.2,25 25,25 h 624.199 c 13.801,0 25,-11.199 25,-25 V 25 c 0,-13.8 -11.199,-25 -25,-25 z m 190.4,770.9 c 0,13.799 -11.2,25 -25,25 h -77.7 c -13.8,0 -25,-11.201 -25,-25 v -77.701 c 0,-13.799 11.2,-25 25,-25 h 77.7 c 13.8,0 25,11.201 25,25 z m 0,-179.4 c 0,13.801 -11.2,25 -25,25 h -77.7 c -13.8,0 -25,-11.199 -25,-25 v -77.699 c 0,-13.801 11.2,-25 25,-25 h 77.7 c 13.8,0 25,11.199 25,25 z m 0,-179.4 c 0,13.8 -11.2,25 -25,25 h -77.7 c -13.8,0 -25,-11.2 -25,-25 v -77.7 c 0,-13.8 11.2,-25 25,-25 h 77.7 c 13.8,0 25,11.2 25,25 z M 501,770.9 c 0,13.799 -11.199,25 -25,25 h -77.7 c -13.801,0 -25,-11.201 -25,-25 v -77.701 c 0,-13.799 11.199,-25 25,-25 H 476 c 13.801,0 25,11.201 25,25 z m 0,-179.4 c 0,13.801 -11.199,25 -25,25 h -77.7 c -13.801,0 -25,-11.199 -25,-25 v -77.699 c 0,-13.801 11.199,-25 25,-25 H 476 c 13.801,0 25,11.199 25,25 z m 0,-179.4 c 0,13.8 -11.199,25 -25,25 h -77.7 c -13.801,0 -25,-11.2 -25,-25 v -77.7 c 0,-13.8 11.199,-25 25,-25 H 476 c 13.801,0 25,11.2 25,25 z m 185.6,358.8 c 0,13.799 -11.199,25 -25,25 h -77.7 c -13.801,0 -25,-11.201 -25,-25 v -257 c 0,-13.801 11.199,-25 25,-25 h 77.7 c 13.801,0 25,11.199 25,25 z m 0,-358.8 c 0,13.8 -11.199,25 -25,25 h -77.7 c -13.801,0 -25,-11.2 -25,-25 v -77.7 c 0,-13.8 11.199,-25 25,-25 h 77.7 c 13.801,0 25,11.2 25,25 z m 0,-215.8 c 0,13.8 -11.199,25 -25,25 H 212.7 c -13.8,0 -25,-11.2 -25,-25 v -83.8 c 0,-13.8 11.2,-25 25,-25 h 448.8 c 13.801,0 25,11.2 25,25 v 83.8 z"
     id="path2"
     style="fill:url(#linearGradient2900);fill-opacity:1" /></g></svg>
