<?xml version="1.0" encoding="UTF-8" standalone="no"?>
<svg
   version="1.1"
   x="0px"
   y="0px"
   viewBox="0 0 100 100"
   enable-background="new 0 0 100 100"
   xml:space="preserve"
   id="svg2"
   sodipodi:docname="noun-mandelbrot-fractal-103125.svg"
   width="100"
   height="100"
   inkscape:version="1.4 (e7c3feb100, 2024-10-09)"
   xmlns:inkscape="http://www.inkscape.org/namespaces/inkscape"
   xmlns:sodipodi="http://sodipodi.sourceforge.net/DTD/sodipodi-0.dtd"
   xmlns="http://www.w3.org/2000/svg"
   xmlns:svg="http://www.w3.org/2000/svg"><defs
     id="defs2" /><sodipodi:namedview
     id="namedview2"
     pagecolor="#ffffff"
     bordercolor="#666666"
     borderopacity="1.0"
     inkscape:showpageshadow="2"
     inkscape:pageopacity="0.0"
     inkscape:pagecheckerboard="0"
     inkscape:deskcolor="#d1d1d1"
     inkscape:zoom="3.224"
     inkscape:cx="-22.487593"
     inkscape:cy="111.9727"
     inkscape:window-width="1920"
     inkscape:window-height="1013"
     inkscape:window-x="0"
     inkscape:window-y="30"
     inkscape:window-maximized="1"
     inkscape:current-layer="svg2" /><path
     d="m 93.2,71.8 c -0.2,-0.1 -0.4,-0.1 -0.6,-0.2 0.2,-0.1 0.4,-0.3 0.5,-0.5 0.5,-0.6 -0.3,-1.4 -0.8,-0.8 -0.3,0.3 -0.6,0.6 -1,0.8 -0.4,-0.4 -1,-0.7 -1.4,-1.2 0,0 0,0 0,0 0,-0.1 0,-0.1 0.1,-0.2 0.1,0 0.2,-0.1 0.3,-0.2 0.1,-0.2 0.3,-0.2 0.4,-0.1 0.7,0.4 1.3,-0.6 0.6,-1 -0.5,-0.3 -1,-0.3 -1.5,-0.1 -0.3,-0.5 -0.9,-0.9 -1.5,-0.9 -0.2,0 -0.3,0 -0.4,0.1 1.3,-1.4 2.3,-3 3,-4.7 0.2,0.4 0.6,0.7 1.1,0.7 0.6,0 1.1,-0.5 1.1,-1.1 0,-0.6 -0.5,-1.1 -1.1,-1.1 -0.2,0 -0.4,0.1 -0.6,0.2 1.2,-4 0.4,-8.3 -3.6,-11.3 4.1,-3 5,-7.3 3.8,-11.5 0.2,0.1 0.3,0.2 0.5,0.2 0.6,0 1,-0.5 1,-1 0,-0.5 -0.5,-1 -1,-1 -0.4,0 -0.8,0.3 -0.9,0.7 -0.7,-1.7 -1.7,-3.3 -3,-4.7 0.1,0 0.1,0 0.2,0 0.7,0 1.3,-0.4 1.5,-1 0.2,0.1 0.5,0.2 0.8,0.1 0.8,-0.1 0.8,-1.3 0,-1.2 -0.2,0 -0.3,0 -0.5,-0.1 -0.1,-0.1 -0.2,-0.1 -0.2,-0.1 0,-0.1 -0.1,-0.2 -0.1,-0.3 0.3,-0.1 0.6,-0.3 1,-0.5 0.2,-0.2 0.6,-0.3 0.9,-0.4 0.3,0.2 0.6,0.5 0.8,0.7 0.5,0.5 1.4,-0.3 0.8,-0.8 -0.2,-0.2 -0.4,-0.4 -0.6,-0.5 0.3,-0.1 0.6,-0.2 0.8,-0.4 0.7,-0.4 0.1,-1.4 -0.6,-1 -0.2,0.1 -0.3,0.2 -0.5,0.2 -0.3,-0.7 -0.6,-1.2 -0.6,-2 0,-0.8 -1.2,-0.8 -1.2,0 0,0.4 0.1,0.9 0.2,1.3 0,0.1 0.3,1 0.5,1.3 0,0 0,0.1 0,0.1 -0.8,0.2 -1.4,1 -2.2,1.2 0,0 -0.1,0 -0.1,0 0,-0.3 0,-0.6 0,-1 0,-0.8 -1.2,-0.8 -1.2,0 0,0.3 0,0.7 0,1 0,0 0,0.1 0,0.1 -0.7,0.2 -1.2,0.9 -1.2,1.6 0,0.1 0,0.1 0,0.2 -1.1,-1 -2.3,-1.9 -3.7,-2.6 0.4,-0.1 0.8,-0.5 0.8,-1 0,-0.6 -0.5,-1 -1,-1 -0.5,0 -1,0.5 -1,1 0,0.1 0,0.2 0.1,0.4 -2.2,-1 -4.6,-1.6 -7.1,-1.7 1.5,-0.4 2.5,-1.8 2.5,-3.4 0,-1.6 -1,-2.9 -2.5,-3.3 0.3,-0.2 0.5,-0.6 0.5,-1 0,-0.3 -0.1,-0.6 -0.4,-0.9 0.1,-0.7 0.3,-1.3 0.5,-1.9 0.1,-0.1 0.1,-0.1 0.2,-0.2 0.3,-0.3 0.8,-0.5 1.1,-0.7 0.5,-0.3 1,-0.6 1.5,-0.9 0.7,-0.4 0.1,-1.4 -0.6,-1 -0.8,0.5 -1.8,1 -2.5,1.6 -1.1,-1.5 -2.2,-3.1 -3.3,-4.6 -0.4,-0.6 -1.5,0 -1,0.6 1.2,1.7 2.3,3.3 3.5,5 -0.3,0.6 -0.4,1.4 -0.6,2.1 -0.5,0.1 -0.9,0.6 -0.9,1.1 0,0.3 0.1,0.6 0.3,0.8 -1.8,-0.2 -3.1,1.2 -3.1,3 0,1.6 1.1,3 2.6,3.4 -2.4,0.2 -4.6,0.7 -6.8,1.5 0,-0.1 0.1,-0.2 0.1,-0.3 0,-0.5 -0.4,-0.9 -0.9,-0.9 -0.5,0 -0.9,0.4 -0.9,0.9 0,0.4 0.2,0.7 0.5,0.8 -1.1,0.5 -2.1,1.1 -3.1,1.7 0,-0.1 0.1,-0.3 0.1,-0.4 0,-0.5 -0.2,-0.9 -0.5,-1.2 0,-0.3 0,-0.7 0.1,-1 0.1,-0.8 -1,-1.1 -1.2,-0.3 0,0.2 -0.1,0.5 -0.1,0.7 -0.1,0 -0.1,0 -0.2,0 -0.1,0 -0.2,0 -0.3,0 -0.3,-0.4 -0.6,-0.8 -1,-1.2 0.3,-0.4 0.7,-0.9 1,-1.3 0.5,-0.6 -0.6,-1.2 -1,-0.6 -0.3,0.4 -0.5,0.7 -0.8,1.1 0,0 -0.1,0 -0.1,0 -0.5,-0.4 -1,-0.8 -1.5,-1.1 -0.7,-0.4 -1.3,0.7 -0.6,1 0.3,0.2 0.6,0.4 0.9,0.6 -0.3,0.2 -0.6,0.3 -0.8,0.5 -0.7,0.4 -0.1,1.4 0.6,1 0.4,-0.2 0.8,-0.4 1.2,-0.7 0.4,0.4 0.7,0.7 1,1.2 -0.1,0.1 -0.3,0.3 -0.3,0.5 -0.3,0 -0.5,0 -0.8,0 -0.8,0 -0.8,1.2 0,1.2 0.2,0 0.4,0 0.6,0 0.2,0.8 0.8,1.4 1.7,1.4 -1.1,0.9 -2.2,1.9 -3.1,3.1 0,0 0,-0.1 0,-0.1 0,-0.7 -0.6,-1.2 -1.2,-1.2 -0.6,0 -1.2,0.6 -1.2,1.2 0,0.7 0.6,1.2 1.2,1.2 0.1,0 0.2,0 0.4,-0.1 -2.5,3.3 -4.2,7.4 -4.7,11.8 -0.7,-2.2 -2.2,-4.1 -4.2,-5.2 0.1,0 0.1,0.1 0.2,0.1 0.2,0 0.3,-0.1 0.3,-0.3 0,-0.2 -0.1,-0.3 -0.3,-0.3 -0.2,0 -0.3,0.1 -0.3,0.3 0,0.1 0,0.1 0.1,0.2 -0.5,-0.3 -1,-0.5 -1.5,-0.7 0.2,0 0.4,-0.2 0.4,-0.4 0,-0.2 -0.2,-0.4 -0.4,-0.4 -0.2,0 -0.4,0.2 -0.4,0.4 0,0.1 0,0.2 0.1,0.3 -0.8,-0.2 -1.5,-0.3 -2.4,-0.4 0.2,-0.1 0.3,-0.3 0.3,-0.5 0,-0.3 -0.3,-0.6 -0.6,-0.6 -0.3,0 -0.6,0.3 -0.6,0.6 0,0.2 0.1,0.4 0.3,0.5 -1.4,0.1 -2.8,0.4 -4,1.1 0.1,-0.2 0.2,-0.4 0.2,-0.6 0,-0.5 -0.4,-0.9 -0.8,-1 0,0 0,0 0,0 C 37,39.7 37.2,39 36.5,38.6 35.8,38.2 35.1,38.1 34.3,37.9 34.1,37.1 34.1,36.3 34,35.4 c -0.1,-0.5 -0.4,-0.9 -0.9,-1 -0.7,-0.3 -1,0.9 -0.3,1.2 0.2,0.1 0.1,1.3 0.1,1.6 0.1,0.5 0.1,1.4 0.5,1.8 0.4,0.4 1.3,0.4 1.9,0.5 0.8,0.2 0.7,0.9 1,1.4 -0.1,0.2 -0.2,0.3 -0.2,0.5 0,0.6 0.5,1 1,1 0.1,0 0.1,0 0.1,0 -0.8,0.5 -1.5,1.1 -2.1,1.8 -0.1,-0.3 -0.4,-0.6 -0.7,-0.6 -0.4,0 -0.7,0.3 -0.7,0.7 0,0.4 0.3,0.7 0.7,0.7 0,0 0,0 0.1,0 -0.7,1.1 -1.2,2.5 -1.4,3.9 -0.4,-0.7 -1.2,-1.3 -2.1,-1.3 -1,0 -1.9,0.6 -2.2,1.5 -0.2,-0.1 -0.4,-0.4 -0.6,-0.4 -0.4,0 -0.7,0.8 -0.8,0.8 H 15.5 c -0.2,0 -0.7,-1.7 -1.2,-1.7 -0.6,0 -1,1.7 -1.2,1.7 H 5.6 c -0.1,0 -0.3,0.3 -0.3,0.5 0,0.2 0.1,0.6 0.3,0.6 h 7.5 c 0.2,0 0.6,1.5 1.2,1.5 0.6,0 1.1,-1.5 1.2,-1.5 h 11.7 c 0.2,0 0.5,0.7 0.8,0.7 0.2,0 0.4,-0.2 0.6,-0.3 0.3,0.9 1.2,1.5 2.2,1.5 0.9,0 1.7,-0.5 2.1,-1.3 0.2,1.4 0.7,2.7 1.4,3.9 0,0 0,0 -0.1,0 -0.4,0 -0.8,0.3 -0.8,0.8 0,0.4 0.3,0.8 0.8,0.8 0.4,0 0.7,-0.3 0.7,-0.6 0.6,0.7 1.3,1.3 2,1.8 0,0 0,0 0,0 -0.6,0 -1,0.4 -1,1 0,0.2 0.1,0.3 0.1,0.5 -0.4,0.7 -0.9,1.1 -1.6,1.5 -0.5,0.3 -1.2,0.1 -1.7,0.6 -1.2,1 -0.7,2.6 -1.6,3.8 -0.4,0.6 0.6,1.2 1,0.6 0.8,-1.1 0.3,-3.5 2,-3.6 1.1,-0.1 2.4,-1.3 2.9,-2.3 0,0 0,0 0,0 0.4,-0.1 0.8,-0.5 0.8,-1 0,-0.2 -0.1,-0.4 -0.2,-0.5 1.2,0.6 2.5,1 4,1 -0.2,0.1 -0.4,0.3 -0.4,0.5 0,0.3 0.3,0.6 0.6,0.6 0.3,0 0.6,-0.3 0.6,-0.6 0,-0.3 -0.2,-0.5 -0.4,-0.5 0.9,0 1.8,-0.2 2.6,-0.4 -0.1,0.1 -0.1,0.2 -0.1,0.3 0,0.2 0.2,0.4 0.4,0.4 0.2,0 0.4,0 0.4,-0.2 0,-0.2 -0.1,-0.6 -0.3,-0.6 0,0 0,0 0,0 0.5,-1 1.1,-0.6 1.5,-0.9 0,0 -0.1,0 -0.1,0.1 0,0.2 0.1,0.3 0.3,0.3 0.2,0 0.3,-0.2 0.3,-0.3 0,-0.2 -0.1,-0.3 -0.3,-0.3 1.9,-1.1 3.3,-2.9 4,-5.1 0.5,4.3 2.1,8.3 4.6,11.6 -0.7,0 -1.2,0.5 -1.2,1.2 0,0.7 0.5,1.2 1.2,1.2 0.6,0 1,-0.4 1.2,-1 0.9,1.1 1.9,2 3,2.9 -0.7,0.1 -1.3,0.5 -1.6,1.1 -0.3,0 -0.5,0 -0.8,-0.1 -0.8,-0.1 -0.8,1.1 0,1.2 0.2,0 0.5,0 0.7,0 0.1,0.3 0.2,0.5 0.3,0.7 -0.3,0.4 -0.6,0.7 -0.9,1 -0.4,-0.2 -0.8,-0.4 -1.2,-0.7 -0.7,-0.4 -1.3,0.7 -0.6,1 0.3,0.2 0.6,0.3 0.8,0.5 -0.3,0.2 -0.6,0.4 -0.9,0.6 -0.7,0.4 -0.1,1.4 0.6,1 0.5,-0.3 1,-0.7 1.5,-1.1 0,0 0.1,0 0.1,0 0.3,0.4 0.5,0.7 0.8,1.1 0.5,0.6 1.5,0 1,-0.6 -0.3,-0.4 -0.7,-0.9 -1,-1.3 0.3,-0.3 0.5,-0.6 0.8,-0.9 0.1,0 0.3,0.1 0.5,0.1 0,0 0,0 0,0 0,0.2 0,0.3 0.1,0.5 0.2,0.7 1.4,0.4 1.2,-0.3 -0.1,-0.2 -0.1,-0.4 -0.1,-0.6 0.4,-0.3 0.6,-0.8 0.6,-1.4 0,-0.1 0,-0.3 -0.1,-0.4 1,0.6 2,1.2 3.1,1.7 -0.4,0.2 -0.7,0.6 -0.7,1.1 0,0.7 0.5,1.2 1.2,1.2 0.7,0 1.2,-0.5 1.2,-1.2 0,-0.2 0,-0.3 -0.1,-0.4 2,0.7 4.2,1.2 6.5,1.4 -1.5,0.4 -2.6,1.8 -2.6,3.4 0,1.8 1.3,3.2 3,3.5 -0.2,0.2 -0.3,0.5 -0.3,0.9 0,0.6 0.4,1 0.9,1.2 0,0.3 0,0.6 0.1,0.9 0.2,1 -0.1,1.8 -0.7,2.7 -0.4,0.6 -0.8,1.2 -1.2,1.8 -0.3,0.5 -0.4,1.5 -0.9,1.8 -0.7,0.4 -0.1,1.4 0.6,1 1.2,-0.7 1.5,-2.5 2.2,-3.6 0.4,-0.5 0.8,-0.9 1.1,-1.4 0.8,0.5 1.7,0.9 2.7,1.1 0.8,0.1 1.1,-1 0.3,-1.2 -0.9,-0.2 -1.7,-0.5 -2.5,-1.1 0,-0.7 -0.2,-1.6 -0.2,-2.3 0,0 0,0 0,0 0,-0.2 0.3,-0.6 0.3,-1 0,-0.4 -0.3,-0.8 -0.6,-1 1.4,-0.5 2.3,-1.8 2.3,-3.3 0,-1.6 -1,-2.9 -2.4,-3.3 2.4,-0.1 4.6,-0.7 6.7,-1.6 0,0.1 0,0.1 0,0.2 0,0.7 0.6,1.3 1.3,1.3 0.7,0 1.3,-0.6 1.3,-1.3 0,-0.5 -0.3,-1 -0.7,-1.2 1.2,-0.7 2.3,-1.6 3.3,-2.5 0,0.1 0,0.3 0,0.4 0,0.8 0.5,1.4 1.2,1.6 0,0.1 0,0.1 0,0.2 0,0.4 0,0.8 0.1,1.3 0,0.8 1.2,0.8 1.2,0 0,-0.4 0,-0.8 -0.1,-1.3 0,-0.1 0,-0.1 -0.1,-0.2 0.1,0 0.1,-0.1 0.2,-0.1 0.3,0.4 0.7,0.8 1.2,1.1 0.9,0.6 0.6,2.1 0.4,3 -0.2,0.8 1,1.1 1.2,0.3 0.2,-0.8 0.3,-1.7 0.2,-2.5 0.3,0.2 0.6,0.3 1,0.4 0.6,0 0.9,-1.1 0.2,-1.3 z"
     id="path1"
     style="stroke:#ff31d9;stroke-opacity:1;stroke-width:2;stroke-dasharray:none" /></svg>
