<?xml version="1.0" encoding="UTF-8" standalone="no"?>
<svg
   width="56"
   height="57"
   version="1.1"
   id="svg6"
   sodipodi:docname="hash.svg"
   inkscape:version="1.4.3 (0d15f75042, 2025-12-25)"
   xmlns:inkscape="http://www.inkscape.org/namespaces/inkscape"
   xmlns:sodipodi="http://sodipodi.sourceforge.net/DTD/sodipodi-0.dtd"
   xmlns="http://www.w3.org/2000/svg"
   xmlns:svg="http://www.w3.org/2000/svg">
  <defs
     id="defs6" />
  <sodipodi:namedview
     id="namedview6"
     pagecolor="#ffffff"
     bordercolor="#666666"
     borderopacity="1.0"
     inkscape:showpageshadow="2"
     inkscape:pageopacity="0.0"
     inkscape:pagecheckerboard="0"
     inkscape:deskcolor="#d1d1d1"
     inkscape:zoom="12.78125"
     inkscape:cx="31.96088"
     inkscape:cy="32"
     inkscape:window-width="1920"
     inkscape:window-height="1020"
     inkscape:window-x="0"
     inkscape:window-y="0"
     inkscape:window-maximized="1"
     inkscape:current-layer="svg6" />
  <rect
     style="opacity:0.2"
     width="56"
     height="56"
     x="1.8516566e-10"
     y="1"
     rx="2.8"
     ry="2.8"
     id="rect1" />
  <rect
     style="fill:#8e8e8e"
     width="56"
     height="56"
     x="1.8516566e-10"
     y="0"
     rx="2.8"
     ry="2.8"
     id="rect2" />
  <path
     style="opacity:0.2"
     d="m 22,11 -1.777344,8 h -7.777344 l -1.335937,6 h 7.779297 l -1.777344,8 H 9.332031 L 8,39 h 7.777344 L 14,47 h 6 l 1.777344,-8 h 8 L 28,47 h 6 l 1.777344,-8 h 7.824218 l 1.332032,-6 h -7.822266 l 1.777344,-8 h 7.822266 L 48,19.207031 V 19 H 40.222656 L 42,11 h -6 l -1.777344,8 h -8 L 28,11 Z m 2.888672,14 h 8 l -1.777344,8 h -8 z"
     id="path2" />
  <path
     style="fill:#3f3f3f"
     d="m 22,9.9999998 h 6 L 20,46 h -6 z"
     id="path3" />
  <path
     style="fill:#3f3f3f"
     d="m 36,9.9999998 h 6 L 34,46 h -6 z"
     id="path4" />
  <path
     style="fill:#3f3f3f"
     d="m 12.445656,18 -1.335937,6 h 35.601438 l 1.289062,-5.792968 V 18 Z M 9.332375,32 8.000344,38 h 35.601437 l 1.332032,-6 z"
     id="path5" />
  <path
     style="opacity:0.2;fill:#ffffff"
     d="M 2.8007812,0 C 1.2495813,0 0,1.2495813 0,2.8007812 v 1 C 0,2.2495813 1.2495813,1 2.8007812,1 H 53.19922 c 1.5512,0 2.800781,1.2495813 2.800781,2.8007812 v -1 C 56.000001,1.2495813 54.75042,0 53.19922,0 Z"
     id="path6" />
</svg>
