<?xml version="1.0" encoding="UTF-8" standalone="no"?>
<svg
   width="24"
   height="24"
   viewBox="0 0 24 24"
   fill="none"
   stroke="currentColor"
   stroke-width="2"
   stroke-linecap="round"
   stroke-linejoin="round"
   class="feather feather-image"
   version="1.1"
   id="svg8"
   sodipodi:docname="image.svg"
   inkscape:version="1.2.2 (b0a8486541, 2022-12-01)"
   xmlns:inkscape="http://www.inkscape.org/namespaces/inkscape"
   xmlns:sodipodi="http://sodipodi.sourceforge.net/DTD/sodipodi-0.dtd"
   xmlns="http://www.w3.org/2000/svg"
   xmlns:svg="http://www.w3.org/2000/svg">
  <defs
     id="defs12" />
  <sodipodi:namedview
     id="namedview10"
     pagecolor="#ffffff"
     bordercolor="#666666"
     borderopacity="1.0"
     inkscape:showpageshadow="2"
     inkscape:pageopacity="0.0"
     inkscape:pagecheckerboard="0"
     inkscape:deskcolor="#d1d1d1"
     showgrid="false"
     inkscape:zoom="12.610071"
     inkscape:cx="19.984027"
     inkscape:cy="18.477295"
     inkscape:window-width="1920"
     inkscape:window-height="1049"
     inkscape:window-x="0"
     inkscape:window-y="0"
     inkscape:window-maximized="1"
     inkscape:current-layer="svg8" />
  <rect
     x="3"
     y="3"
     width="18"
     height="18"
     rx="2"
     ry="2"
     id="rect2"
     style="stroke:#bfbfbf;stroke-opacity:1" />
  <path
     style="fill:#77b7cc;fill-opacity:1;stroke:#000000;stroke-width:0;stroke-dasharray:none"
     d="M 9.50533,3.838712 C 7.80649,3.9016882 6.0726407,3.7192735 4.3968312,4.0439544 3.6585426,4.3361312 4.040903,5.3141232 3.9243575,5.9036215 3.9103532,10.332622 3.8229191,14.76598 3.9622517,19.192684 c -0.032127,0.493567 0.6256905,1.238457 0.9867516,0.59002 3.5836164,-3.515577 7.1004907,-7.115859 10.7482077,-10.5573097 0.82289,-0.2800115 1.298617,0.691678 1.855805,1.1054377 0.734798,0.691903 1.410541,1.46317 2.206768,2.081843 0.507669,-0.03386 0.221576,-0.761375 0.317937,-1.094713 0.01401,-2.2796542 0.09225,-4.5701373 -0.05465,-6.843809 C 19.701829,3.7211704 18.665366,3.9804852 18.019056,3.8735397 15.181729,3.8135713 12.343101,3.8463067 9.50533,3.838712 Z M 8.5100029,6.1585864 C 10.112794,6.13227 11.384463,8.0331289 10.604921,9.4753212 9.9797574,11.107874 7.4599966,11.264228 6.5552716,9.8023511 5.5726452,8.3376082 6.6997607,6.0810646 8.5100029,6.1585864 Z"
     id="path2205" />
  <path
     style="fill:#d7d551;fill-opacity:1;stroke:#a8cc77;stroke-width:0;stroke-dasharray:none;stroke-opacity:1"
     d="M 8.43293,5.9659424 C 7.807926,5.9600935 7.194341,6.2319319 6.7697627,6.6889121 6.066328,7.4117036 5.7872507,8.5519206 6.1801595,9.4965086 6.4812303,10.274257 7.2255106,10.839954 8.0456527,10.961482 8.7041661,11.0716 9.409724,10.932063 9.9664186,10.560368 10.382013,10.287922 10.672873,9.8650559 10.849832,9.406485 11.03649,9.0079493 11.049092,8.5536755 10.997457,8.1241256 10.825663,7.2272334 10.178542,6.4270002 9.318104,6.1082053 9.0353074,6.0055598 8.733117,5.962554 8.43293,5.9659424 Z"
     id="path2292" />
  <g
     id="g2902"
     style="stroke:#37c264;stroke-opacity:1;fill:#5bab38;fill-opacity:1">
    <path
       style="fill:#5bab38;fill-opacity:1;stroke:#37c264;stroke-width:0;stroke-dasharray:none;stroke-opacity:1"
       d="m 15.83915,11.355578 c -2.775081,2.808965 -5.627799,5.546605 -8.3308264,8.423482 -0.034548,0.564566 0.820145,0.228428 1.1517231,0.346086 3.4857233,0.01716 6.9793603,0.128257 10.4607913,-0.06199 0.578871,0.02977 1.060476,-0.44716 0.954586,-1.033659 0.01534,-1.247042 0.100796,-2.525 -0.0276,-3.752848 -1.35255,-1.306061 -2.635419,-2.721339 -4.031203,-3.959633 -0.06188,-0.05289 -0.118686,0.01674 -0.177472,0.03856 z"
       id="path2207" />
    <path
       style="fill:#5bab38;fill-opacity:1;stroke:#37c264;stroke-width:0;stroke-dasharray:none;stroke-opacity:1"
       d="m 15.883494,8.9982642 c -0.383273,0.049537 -0.612245,0.4226711 -0.896687,0.6456587 -3.27852,3.1496121 -6.4961675,6.3620081 -9.7094204,9.5779651 -0.1907608,0.229168 -0.4737408,0.408299 -0.6038539,0.674182 -0.065578,0.289539 0.3066822,0.275977 0.4944557,0.2763 0.7965974,0.0116 1.5995173,0.02606 2.3924054,-0.0016 0.2420111,-0.0307 0.069767,-0.299433 0.2289068,-0.403468 1.6054213,-1.740589 3.3046244,-3.390396 4.9687144,-5.073994 1.063092,-1.055958 2.117918,-2.124796 3.201993,-3.158435 0.87588,0.746041 1.652566,1.597845 2.481751,2.394921 0.477387,0.462171 0.9372,0.944918 1.431834,1.388018 0.237097,0.109364 0.352032,-0.162439 0.316502,-0.354563 0.0075,-0.868106 0.04301,-1.740243 -0.01432,-2.606318 C 20.154106,12.182367 19.942467,12.112355 19.80676,12.201388 18.719605,11.302794 17.790023,10.228796 16.719957,9.3102049 16.486801,9.1041788 16.201811,8.9675442 15.883494,8.9982642 Z"
       id="path2843" />
  </g>
</svg>
