<?xml version="1.0" encoding="UTF-8" standalone="no"?>
<svg
   enable-background="new 0 0 24 24"
   height="24px"
   viewBox="0 0 24 24"
   width="24px"
   fill="#000000"
   version="1.1"
   id="svg5951"
   sodipodi:docname="note_secure.svg"
   inkscape:version="1.1.1 (3bf5ae0d25, 2021-09-20)"
   xmlns:inkscape="http://www.inkscape.org/namespaces/inkscape"
   xmlns:sodipodi="http://sodipodi.sourceforge.net/DTD/sodipodi-0.dtd"
   xmlns:xlink="http://www.w3.org/1999/xlink"
   xmlns="http://www.w3.org/2000/svg"
   xmlns:svg="http://www.w3.org/2000/svg"
   xmlns:rdf="http://www.w3.org/1999/02/22-rdf-syntax-ns#"
   xmlns:cc="http://creativecommons.org/ns#"
   xmlns:dc="http://purl.org/dc/elements/1.1/">
  <metadata
     id="metadata5957">
    <rdf:RDF>
      <cc:Work
         rdf:about="">
        <dc:format>image/svg+xml</dc:format>
        <dc:type
           rdf:resource="http://purl.org/dc/dcmitype/StillImage" />
        <dc:title />
      </cc:Work>
    </rdf:RDF>
  </metadata>
  <defs
     id="defs5955">
    <linearGradient
       inkscape:collect="always"
       xlink:href="#linearGradient6506"
       id="linearGradient6508"
       x1="2.7966101"
       y1="2.9491525"
       x2="21.101694"
       y2="21"
       gradientUnits="userSpaceOnUse" />
    <linearGradient
       inkscape:collect="always"
       id="linearGradient6506">
      <stop
         style="stop-color:#5ce55c;stop-opacity:1"
         offset="0"
         id="stop6502" />
      <stop
         style="stop-color:#338033;stop-opacity:1"
         offset="1"
         id="stop6504" />
    </linearGradient>
    <linearGradient
       inkscape:collect="always"
       xlink:href="#linearGradient7241"
       id="linearGradient7243"
       x1="3.9755256"
       y1="1.1039203"
       x2="20.024868"
       y2="22.085859"
       gradientUnits="userSpaceOnUse"
       gradientTransform="translate(0.29448335,-0.5889667)" />
    <linearGradient
       inkscape:collect="always"
       id="linearGradient7241">
      <stop
         style="stop-color:#e6e6e6;stop-opacity:1"
         offset="0"
         id="stop7237" />
      <stop
         style="stop-color:#666666;stop-opacity:1"
         offset="1"
         id="stop7239" />
    </linearGradient>
  </defs>
  <sodipodi:namedview
     pagecolor="#ffffff"
     bordercolor="#666666"
     borderopacity="1"
     objecttolerance="10"
     gridtolerance="10"
     guidetolerance="10"
     inkscape:pageopacity="0"
     inkscape:pageshadow="2"
     inkscape:window-width="1920"
     inkscape:window-height="1019"
     id="namedview5953"
     showgrid="true"
     inkscape:zoom="39.333334"
     inkscape:cx="13.385593"
     inkscape:cy="15.165254"
     inkscape:window-x="0"
     inkscape:window-y="33"
     inkscape:window-maximized="1"
     inkscape:current-layer="svg5951"
     inkscape:pagecheckerboard="1">
    <inkscape:grid
       type="xygrid"
       id="grid848" />
  </sodipodi:namedview>
  <rect
     fill="none"
     height="24"
     width="24"
     id="rect5947" />
  <g
     id="g852">
    <rect
       style="fill:#e6e6e6;stroke-width:1.39642"
       id="rect1059"
       width="13"
       height="9"
       x="6"
       y="7" />
    <path
       sodipodi:type="star"
       style="fill:#e6e6e6"
       id="path1706"
       inkscape:flatsided="true"
       sodipodi:sides="3"
       sodipodi:cx="15.133975"
       sodipodi:cy="15.535898"
       sodipodi:r1="4.1231055"
       sodipodi:r2="2.0615528"
       sodipodi:arg1="-0.24497866"
       sodipodi:arg2="0.80221889"
       inkscape:rounded="0"
       inkscape:randomized="0"
       inkscape:transform-center-x="-0.5907203"
       inkscape:transform-center-y="0.55397666"
       transform="matrix(1.041858,0,0,1.1079546,-0.43488481,-2.1051155)"
       d="M 19.133975,14.535898 14,19.5 12.26795,12.571797 Z" />
  </g>
  <path
     d="M 19,3 H 4.9900002 c -1.1,0 -1.9900004,0.9 -1.9900004,2 l 0.01,14 c 0,1.1 0.8900004,2 1.9900004,2 H 15 l 6,-6 V 5 C 21,3.9 20.1,3 19,3 Z M 7.0000002,8 H 17 v 2 H 7.0000002 Z M 12,14 H 7.0000002 V 12 H 12 Z"
     id="path5949"
     style="fill:url(#linearGradient6508);fill-opacity:1"
     inkscape:connector-curvature="0"
     sodipodi:nodetypes="ssccsccsscccccccccc" />
  <g
     style="fill:#000000"
     id="g7235"
     transform="matrix(0.34533333,0,0,0.34533333,14,13.712)">
    <path
       id="path7221"
       d="M 0,0 H 24 V 24 H 0 Z"
       inkscape:connector-curvature="0"
       style="fill:none" />
    <path
       id="path7223"
       d="m 18.294483,7.4110333 h -1 v -2 c 0,-2.76 -2.24,-5 -5,-5 -2.7599997,0 -4.9999997,2.24 -4.9999997,5 v 2 h -1 c -1.1,0 -2,0.9 -2,2 v 9.9999997 c 0,1.1 0.9,2 2,2 H 18.294483 c 1.1,0 2,-0.9 2,-2 V 9.4110333 c 0,-1.1 -0.9,-2 -2,-2 z m -6,8.9999997 c -1.1,0 -2,-0.9 -2,-2 0,-1.1 0.9,-2 2,-2 1.1,0 2,0.9 2,2 0,1.1 -0.9,2 -2,2 z m 3.1,-8.9999997 H 9.1944833 v -2 c 0,-1.71 1.3899997,-3.1 3.0999997,-3.1 1.71,0 3.1,1.39 3.1,3.1 z"
       inkscape:connector-curvature="0"
       style="fill:url(#linearGradient7243);fill-opacity:1" />
  </g>
</svg>
