<?xml version="1.0" encoding="UTF-8" standalone="no"?>
<!-- Generator: Adobe Illustrator 22.1.0, SVG Export Plug-In . SVG Version: 6.00 Build 0)  -->

<svg
   version="1.1"
   id="Layer_1"
   x="0px"
   y="0px"
   viewBox="0 0 45 45"
   xml:space="preserve"
   sodipodi:docname="Portal_Logo.svg"
   width="45"
   height="45"
   inkscape:version="1.4 (e7c3feb100, 2024-10-09)"
   xmlns:inkscape="http://www.inkscape.org/namespaces/inkscape"
   xmlns:sodipodi="http://sodipodi.sourceforge.net/DTD/sodipodi-0.dtd"
   xmlns="http://www.w3.org/2000/svg"
   xmlns:svg="http://www.w3.org/2000/svg"><defs
   id="defs7" /><sodipodi:namedview
   id="namedview7"
   pagecolor="#ffffff"
   bordercolor="#666666"
   borderopacity="1.0"
   inkscape:showpageshadow="2"
   inkscape:pageopacity="0.0"
   inkscape:pagecheckerboard="0"
   inkscape:deskcolor="#d1d1d1"
   inkscape:zoom="6.3107143"
   inkscape:cx="66.632711"
   inkscape:cy="39.773628"
   inkscape:window-width="1920"
   inkscape:window-height="1013"
   inkscape:window-x="0"
   inkscape:window-y="30"
   inkscape:window-maximized="1"
   inkscape:current-layer="g7" />
<style
   type="text/css"
   id="style1">
	.st0{fill:#58595B;}
	.st1{fill:#36C0F1;}
</style>
<g
   id="g7">
	
	<g
   id="g2"
   transform="translate(-9.35)">
		<path
   class="st1"
   d="m 35.5,0 c 5.7,0 9.1,4.6 10.4,13.8 0,0.6 0.1,1.7 0.2,3.3 0,8.8 -3,16.7 -9,23.7 -2.8,2.8 -5.6,4.2 -8.4,4.2 -4.3,0 -7.6,-3.2 -10,-9.7 -0.7,-2.2 -1.1,-4.7 -1.1,-7.5 0,-7.8 2.3,-15.3 7,-22.5 h 0.2 v 0.3 c -1.3,2.2 -2.1,4.1 -2.6,5.7 v 0.2 h 0.2 C 26.3,3.9 30.7,0 35.5,0 Z M 21.4,28.9 c 0,7.7 2.6,12.3 7.9,13.7 h 0.9 c 1.1,0 2,-0.4 2.5,-1.1 h -1.4 c -4,0 -6.5,-3.3 -7.7,-9.8 h 0.3 c 1.6,5.1 3.9,7.6 6.9,7.6 4.7,0 8.3,-4.5 11.1,-13.5 C 42.6,22.9 43,20 43,17.2 v -0.5 c 0,-1.9 -0.2,-4 -0.7,-6.4 H 42 v 0.2 c 0.1,1 0.2,1.8 0.2,2.4 v 0.4 c 0,3.9 -0.6,6.5 -1.8,8 V 21.1 C 41,19 41.3,17 41.3,15.2 41.3,9.7 39.7,5.9 36.5,3.9 L 34.8,3.7 c -4.7,0 -8.7,5.2 -12,15.6 -0.9,3.7 -1.4,6.9 -1.4,9.6 z"
   id="path2" />
	</g>
	
	
	
	
	
</g>
</svg>
