<?xml version="1.0" encoding="utf-8"?>
<!DOCTYPE svg PUBLIC "-//W3C//DTD SVG 1.0//EN" "http://www.w3.org/TR/2001/REC-SVG-20010904/DTD/svg10.dtd">
<svg version="1.0" xmlns="http://www.w3.org/2000/svg" width="48px" height="48px" viewBox="0 0 48 48" preserveAspectRatio="xMidYMid meet">
 <g fill="#e56bd7">
  <path d="M0 24 l0 -24 24 0 24 0 0 24 0 24 -24 0 -24 0 0 -24z"/>
 </g>
 <g fill="#db6dda">
  <path d="M0 24 l0 -24 24 0 24 0 0 19 0 19 -0.03 0 c-0.02 0 -0.46 0 -0.98 0 l-0.94 0 0 0.02 0 0.03 -0.03 -0.01 -0.03 -0.01 0 0.99 0 0.99 -0.08 0 c-0.05 0 -0.50 0 -1 0 l-0.92 -0 0 1 0 1 -0.96 0 -0.96 0 -0.04 0.01 -0.04 0.01 0 0.99 0 0.99 -0.08 0 c-0.05 0 -0.49 0 -0.98 0 l-0.89 0 0 0.02 0 0.03 -0.03 -0.01 -0.03 -0.01 0 0.99 0 0.99 -0.23 0 c-0.13 0 -0.56 0 -0.96 0 l-0.73 0 -0.04 0.01 -0.04 0.01 0 0.99 0 0.99 -19 0 -19 0 0 -24z"/>
 </g>
 <g fill="#ca70df">
  <path d="M0 24 l0 -24 24 0 24 0 0 14.01 0 14.01 -0.02 0 c-0.01 0 -0.42 0 -0.91 0.01 -0.49 0 -0.93 0.01 -0.97 0.01 l-0.08 0 0 0.94 0 0.94 -0.03 0.04 -0.03 0.04 -0.93 0 -0.93 0 -0.04 0.02 -0.04 0.02 -0.01 0.95 -0.01 0.95 -0.04 0.02 -0.04 0.03 -0.19 0 c-0.10 0 -0.52 0 -0.93 0 l-0.74 0 -0.02 0.02 c-0.03 0.03 -0.03 0.11 -0.04 1 l-0 0.89 -0.02 0.04 -0.02 0.04 -0.19 0.01 c-0.10 0 -0.53 0.01 -0.96 0.01 l-0.78 0 -0.02 0.01 -0.01 0.02 0 0.89 c0 0.50 -0.01 0.93 -0.01 0.96 l-0.01 0.07 -0.99 0 -0.99 0.01 -0.01 1 -0 1 -0.03 0.01 c-0.02 0.01 -0.45 0.01 -0.96 0.02 l-0.93 0 -0.02 0.04 -0.02 0.04 -0 0.90 0 0.91 -0.01 0.04 -0.01 0.04 -0.09 0.01 -0.09 0.01 -0.88 0 -0.88 0 -0.01 0.03 c-0 0.01 -0.01 0.46 -0.02 0.97 l-0.01 0.94 -0.03 0.03 -0.03 0.03 -0.93 0 -0.93 0 -0.03 0.03 -0.03 0.04 -0 0.93 -0 0.93 -0.03 0.03 -0.03 0.03 -0.95 0 -0.95 0.01 -0.01 0.01 -0.01 0.01 -0 0.94 -0 0.94 -0.04 0.04 -0.04 0.04 -0.94 0 -0.94 0 -0.01 0.01 c-0.02 0.02 -0.02 0.02 -0.03 1.03 l-0 0.93 -14.01 0 -14.01 0 0 -24z"/>
 </g>
 <g fill="#bb73e4">
  <path d="M0 24 l0 -24 24 0 24 0 0 8.02 0 8.02 -0.96 0 -0.96 -0 -0.02 0.04 -0.03 0.04 0 0.90 0 0.90 -0.03 0.07 -0.03 0.07 0 0.96 0 0.96 -0.95 0 -0.96 0 -0.04 0.03 -0.04 0.02 -0.01 0.97 -0.01 0.97 -0.98 0.01 -0.98 0.01 -0.04 0.03 -0.04 0.03 -0.93 0 -0.94 0 -0.02 0.04 -0.02 0.04 0 0.92 -0 0.92 -0.03 0.07 -0.03 0.06 0 0.92 0 0.92 -0.05 0.03 -0.05 0.03 -0.91 0 -0.91 0 -0.04 0.04 -0.04 0.04 0 0.95 0 0.94 -0.04 0.01 -0.04 0.01 -0.93 0 -0.92 0 -0.04 0.04 -0.04 0.04 0 0.96 0 0.96 -0.89 0 c-0.49 0 -0.91 0.01 -0.93 0.01 -0.02 0 -0.11 0.01 -0.20 0.02 -0.13 0.01 -1.56 0.05 -1.84 0.05 l-0.06 -0 0 0.04 c0 0.02 0 0.05 0 0.05 0 0.01 -0.01 0.03 -0.03 0.04 l-0.03 0.02 0.04 0 0.04 0 -0.01 0.04 -0.01 0.04 -0.02 -0.04 -0.02 -0.03 0 0.08 0 0.08 0.03 -0.04 0.03 -0.04 0 0.05 0 0.04 -0.03 0 -0.03 0 0.04 0.03 0.04 0.03 -0.04 0 -0.04 0 0.04 0.02 0.03 0.02 -0.03 0.01 -0.04 0.01 0.03 0 0.03 0 0 0.04 0 0.04 -0.03 0.01 -0.03 0.01 0.03 0 0.03 0 0 0.04 0 0.04 -0.03 0 -0.03 0 0.04 0.03 0.04 0.03 -0.04 0 -0.04 0 0.04 0.03 0.04 0.03 -0.03 0 -0.03 0 0 0.05 0 0.04 0.03 -0.04 0.03 -0.04 0 0.05 0 0.04 -0.03 0 -0.03 0 0 0.05 0 0.04 0.03 -0.04 0.03 -0.04 0 0.04 0 0.04 -0.03 0.01 -0.03 0.01 0.03 0 0.03 0 0 0.04 0 0.04 -0.03 0 -0.03 0 0 0.04 0 0.04 0.03 -0.01 0.03 -0.01 0 0.03 0 0.03 -0.03 0 -0.03 0 0 0.05 0 0.04 0.03 -0.04 0.02 -0.04 0.01 0.01 0.01 0.01 -0.04 0.04 -0.04 0.04 0.03 0 0.03 0 0 0.04 0 0.04 -0.03 0 -0.03 0 0 0.09 0 0.09 0.03 -0.04 0.03 -0.04 0 0.04 0 0.04 -0.03 0.01 -0.03 0.01 0.03 0 0.03 0 0 0.04 0 0.04 -0.03 0 -0.03 0 0 0.09 0 0.09 0.03 -0.04 0.03 -0.04 0 0.05 0 0.04 -0.03 0 -0.03 0 0 0.05 c0 0.02 0 0.50 0 1.06 l-0 1.02 -1 0 -1 0 0 1 0 1 -1 0 -1 0 0 1 0 1 -1.10 0 -1.10 0 0 0.03 0 0.03 -0.04 0 -0.05 0 0.04 -0.03 0.04 -0.03 -0.14 0 -0.14 0 0 0.05 0 0.05 0.22 0 0.22 0 0.01 0.02 0.02 0.01 0.01 0.81 0.01 0.81 -0.02 0.11 -0.02 0.11 -0.83 0 -0.84 0 -0.13 -0.02 c-0.07 -0.01 -0.11 -0.02 -0.09 -0.03 l0.03 -0 0 -0.04 0 -0.04 -0.02 0 -0.02 0 0.01 -0.13 c0.01 -0.07 0.02 -0.14 0.02 -0.14 0 -0 -0.01 -0.04 -0.02 -0.08 l-0.02 -0.08 0.02 0 0.02 0 -0 -0.07 c-0 -0.04 -0.01 -0.08 -0.01 -0.09 -0 -0.01 -0.01 -0.02 -0.03 -0.02 l-0.02 0 0 0.32 c0 0.17 0 0.34 -0 0.38 l-0 0.05 -0.17 0 -0.17 0 0.08 0.02 0.08 0.02 -0.60 0 -0.60 0 0.01 0.02 0.01 0.03 0.63 -0 0.63 -0 0.02 0.02 0.02 0.02 0 0.89 0 0.89 -0.02 0.02 -0.02 0.02 -0.80 0 c-0.44 0 -0.86 0 -0.93 0.01 l-0.13 0 -0.04 0.03 -0.04 0.02 -0.01 0.97 -0.01 0.97 -0.94 0.01 -0.94 0 -0.10 0.04 -0.10 0.04 -0.89 0 -0.89 0 -0.03 0.03 -0.03 0.03 -0.01 0.93 -0.01 0.93 -0.04 0.04 -0.04 0.04 -0.94 0 -0.94 0 -0.02 0.02 -0.02 0.02 0 0.96 0 0.96 -8.02 0 -8.02 0 0 -24z m22.30 16.07 l0 -0.02 -0.09 0.01 c-0.05 0 -0.09 0.01 -0.10 0.02 l-0.01 0.01 0.10 0 0.10 0 0 -0.02z m0.30 0 l0 -0.03 -0.14 0 -0.14 0 0.01 0.02 0.01 0.02 0.13 0 0.13 0 0 -0.03z m1.45 -0.90 l0 -0.05 0.03 0 0.03 0 -0.04 -0.04 -0.04 -0.04 0.03 -0.01 0.02 -0.01 -0.01 -0.14 -0.01 -0.14 0.03 -0.02 0.04 -0.02 -0.03 0 -0.03 0 0 -0.24 0 -0.24 0.01 0 c0.01 0 0.02 -0.02 0.02 -0.04 l0 -0.04 -0.02 0 c-0.01 0 -0.02 -0.01 -0.02 -0.03 l0 -0.03 0.02 0.01 0.03 0.01 0.01 -0.02 0.01 -0.02 0.38 0 0.38 0 -0 -0.05 -0 -0.05 -0.03 0 -0.03 0 -0 0.03 -0 0.03 -0.01 -0.03 -0.01 -0.03 -0.04 0 -0.04 0 0.04 0.03 0.04 0.03 -0.04 0 -0.05 0 0 -0.03 0 -0.03 -0.04 0 -0.04 0 0 0.03 0 0.03 -0.04 0 -0.05 0 0.04 -0.03 0.04 -0.03 -0.04 0 -0.05 0 -0 0.03 -0 0.03 -0.01 -0.03 -0.01 -0.03 -0.04 0 -0.04 0 0 0.03 0 0.03 -0.03 -0.04 -0.02 -0.04 -0.05 0.03 -0.05 0.03 -0.07 0 -0.07 0 0.04 -0.03 0.04 -0.03 -0.04 0 -0.05 0 0 0.03 0 0.03 -0.05 0 -0.05 0 0 0.59 0 0.59 0.02 0 0.02 0 0 -0.05z m1.42 -1.11 c0 -0.01 -0.01 -0.02 -0.03 -0.02 l-0.03 0 0.04 -0.03 0.04 -0.03 -0.04 0 -0.05 0 -0 0.03 -0 0.03 -0.01 -0.03 -0.01 -0.03 -0.04 0 -0.04 0 0 0.03 0 0.03 -0.03 0 -0.03 0 0.01 -0.03 0.01 -0.03 -0.04 0 -0.04 0 0 0.03 0 0.03 -0.04 0 -0.05 0 0.04 -0.03 0.04 -0.03 -0.14 0 -0.14 0 0 0.05 0 0.05 0.29 -0 0.29 -0 0 -0.02z"/>
 </g>
 <g fill="#a478ea">
  <path d="M0 24 l0 -24 24 0 24 0 0 1.99 0 1.99 -0.97 0 -0.98 0 -0.04 0.04 -0.04 0.04 0 0.96 0 0.96 -0.95 0 -0.96 0 -0.03 0.02 -0.03 0.02 -0 0.99 -0.01 0.99 -0.99 0.01 -1 0 -0 1 -0.01 0.99 -0.99 0.01 -1 0 0 1 0 1 -1 0 -1 0 0 1 0 1 -1 0 -1 0 -0 1 -0.01 0.99 -0.99 0.01 -1 0 -0 1 -0.01 0.99 -0.99 0.01 -1 0 -0 1 -0.01 0.99 -0.96 0.01 -0.96 0 -0.04 0.04 -0.04 0.04 0 0.94 0 0.94 0.05 0 0.04 0 -0.05 0.02 -0.05 0.02 0.84 0 c0.46 0 0.91 0 1.01 0 l0.17 0 0 1 0 1 1 0 1 0 0 2 0 2 -1 0 -1 0 0 3 0 3 -1 0 -1 0 0 1 0 1 -1 0 -1 0 0 1 0 1 -2 0 -2 0 0 1 0 1 -3 0 -3 0 0 -1 0 -1 -1 0 -1 0 -0 -0.99 -0.01 -1 -0.27 -0.01 -0.27 -0.01 0.02 0.03 0.02 0.03 -0.04 -0.03 -0.03 -0.03 -0.71 0 -0.71 0 -0 1 -0.01 0.99 -0.99 0.01 -1 0 -0 1 -0.01 0.99 -0.99 0.01 -1 0 -0 1 -0.01 0.99 -0.99 0.01 -1 0 -0 1 -0.01 0.99 -0.99 0.01 -0.99 0 -0.02 0.03 -0.02 0.03 0 0.96 0 0.95 -0.08 0 c-0.05 0 -0.49 0 -0.98 0.01 l-0.89 0 -0.02 0.02 -0.02 0.02 0 0.99 0 0.99 -2 0 -2 0 0 -24z m13.98 10.98 l0 -1 -0.01 -0.01 -0.01 -0.01 0 1.03 0 1.03 0.01 -0.01 0.01 -0.01 0 -1.01z m0.01 -2.85 l0.01 -0.05 -0.03 -0.01 -0.02 -0.01 0 0.08 0 0.08 0.01 -0.01 c0.01 -0.01 0.02 -0.04 0.03 -0.06z m6 -1.14 l-0 -0.96 -0.02 -0.02 -0.02 -0.02 0 1.01 0 1.01 0.02 -0.03 0.02 -0.03 0 -0.96z m4.01 -2 l0.01 -1 0.99 -0 0.99 -0 0 -0.99 0 -1 -0.99 0 -0.99 0 0 0.03 0 0.03 -0.03 -0.03 -0.03 -0.03 -0 0.05 -0 0.05 0.03 0 0.02 0 0 0.95 0 0.95 -1 0 -1 0 0 0.92 0 0.92 -0.03 0.01 -0.03 0.01 0.03 0.04 0.03 0.04 -0.03 0.03 -0.03 0.03 1.02 -0 1.02 -0.01 0.01 -1z"/>
 </g>
 <g fill="#9b79ed">
  <path d="M18 39 l0 -1 -1 0 -1 0 0 -1 0 -1 -1 0 -1 0 0 -2 0 -2 3 0 3 0 0 -1 0 -1 2 0 2 0 0 -1 0 -1 1 0 1 0 0 -1 0 -1 -4 0 -4 0 0 -1 0 -1 -1.97 0.01 -1.97 0.01 -0.03 0.03 -0.03 0.03 -0 0.87 c-0 0.48 -0 0.91 -0.01 0.96 l0 0.09 -0.99 0 -1 0.01 -0.01 0.99 -0 0.99 -0.12 0.01 -0.12 0.01 -0.85 -0 -0.85 -0 -0.03 0.03 -0.02 0.02 -0.01 0.95 -0.01 0.95 -0.02 0.02 -0.02 0.02 -0.96 0 -0.96 0 -0.01 0.01 -0.02 0.01 -0 0.96 -0 0.96 -0.02 0.02 -0.02 0.02 -0.95 0.01 -0.95 0 -0.03 0.03 -0.03 0.03 -0 0.95 -0 0.95 -0.01 0.02 -0.02 0.01 -0.94 0 c-0.52 0 -0.95 0.01 -0.97 0.02 l-0.03 0.01 -0.01 0.96 -0.01 0.96 -0.02 0.02 -0.02 0.02 -0.96 0 -0.96 0 -0.02 0.02 -0.02 0.02 -0 0.83 c-0 0.46 -0 0.89 -0.01 0.98 l-0 0.14 -1 0 -1 0 0 -19 0 -19 19.01 0 19.01 0 0 0.88 c0 0.48 -0.01 0.93 -0.01 1 l-0.01 0.12 -1 0 -1 0 0 1 0 1 -0.99 0 -1 0.01 -0.01 1 -0 0.99 -0.16 0 c-0.09 0 -0.49 0 -0.90 0 l-0.75 0 0 0.02 0 0.02 -0.08 -0.02 -0.08 -0.02 -0 0.90 c-0 0.49 -0 0.92 0 0.94 l0 0.05 -0.03 -0.04 -0.03 -0.04 0 0.08 0 0.08 0.12 -0 0.12 -0 0.02 -0.03 0.02 -0.03 0 0.04 0 0.04 0.03 -0.04 0.03 -0.04 0 0.03 0 0.03 0.04 0 0.04 0 0.01 -0.03 0.01 -0.03 0 0.03 0 0.03 0.04 0 0.04 0 0 -0.03 0 -0.03 0.03 0.04 0.03 0.04 0 -0.03 0 -0.03 0.04 0 0.04 0 0 0.03 0 0.03 0.03 -0.04 0.03 -0.04 0 0.04 0 0.04 0.03 -0.04 0.03 -0.04 0 0.04 0 0.04 0.02 -0.03 c0.01 -0.01 0.03 -0.03 0.05 -0.03 l0.03 -0 0 0.03 0 0.03 0.03 -0.04 0.03 -0.04 0 0.04 0 0.04 0.03 -0.04 0.03 -0.04 0 0.03 0 0.03 0.14 0 0.14 0 0 -0.03 0 -0.03 0.02 0.03 c0.03 0.04 0.05 0.04 0.08 0 l0.02 -0.03 0 0.03 0 0.03 0.04 0 0.04 0 0 -0.03 0 -0.03 0.02 0.03 0.02 0.03 0.08 -0.01 0.08 -0 0 -0.03 0 -0.03 0.02 0.03 0.02 0.03 0.08 0 0.07 0 0.02 -0.03 0.02 -0.03 0 0.03 0 0.03 0.09 0 0.09 0 0 3 0 3 -2 0 -2 0 0 1 0 1 -1 0 -1 0 0 1 0 1 -1 0 -1 0 0 1 0 1 2 0 2 0 0 1 0 1 1 0 1 0 0 1 0 1 1 0 1 0 0 2 0 2 -1 0 -1 0 0 3 0 3 -1 0 -1 0 0 1 0 1 -1 0 -1 0 0 1 0 1 -2 0 -2 0 0 1 0 1 -3 0 -3 0 0 -1z"/>
 </g>
 <g fill="#927bf0">
  <path d="M18 39 l0 -1 -1 0 -1 0 0 -1 0 -1 -1 0 -1 0 0 -2 0 -2 3 0 3 0 0 -1 0 -1 2 0 2 0 0 -1 0 -1 1 0 1 0 0 -1 0 -1 -4 0 -4 0 0 -1 0 -1 -1 0 -1 0 0 -1 0 -1 -1 0 -1 0 -0 -0.89 c-0 -0.49 -0 -0.92 0 -0.94 l0 -0.05 -0.03 0 -0.03 0 0 -0.06 0 -0.06 -0.98 0 -0.98 0.01 -0.01 0.98 -0 0.98 -0.13 0 c-0.07 0 -0.51 0 -0.97 0 l-0.84 0 -0.02 0.02 -0.02 0.02 -0.01 0.94 -0.01 0.94 -0.03 0.03 -0.03 0.03 -0.94 0 -0.93 0 -0.04 0.04 -0.04 0.04 0 0.94 0 0.94 -0.05 0.03 -0.05 0.03 -0.92 0 -0.92 0 -0.04 0.03 -0.04 0.03 0 0.97 0 0.97 -0.90 0 c-1 0 -1.04 0 -1.07 0.03 l-0.02 0.02 -0.01 0.95 -0.01 0.95 -0.02 0.02 -0.02 0.02 -0.90 0 c-0.49 0 -0.93 0.01 -0.96 0.01 l-0.07 0.01 -0.01 0.07 -0.01 0.07 0 0.91 -0 0.91 -0.13 0.01 c-0.12 0.01 -1.54 0.01 -1.75 0 l-0.09 -0 0 -15.99 0 -15.99 15.99 0 15.99 0 0 0.72 c0 0.40 0 0.82 -0 0.95 l-0 0.24 -0.02 0.02 -0.02 0.02 -0.94 0 -0.94 0 -0.03 0.03 -0.03 0.03 -0 0.99 -0.01 0.99 -0.99 0.01 c-0.55 0 -1 0.01 -1 0.01 -0 0 -0.01 0.44 -0.02 0.98 l-0.01 0.98 -0.97 0.01 -0.97 0.01 -0.03 0.03 -0.03 0.03 -0 0.94 -0 0.94 -0.05 0.02 -0.05 0.02 -0.89 0.01 -0.89 0.01 -0.05 0.03 -0.05 0.03 -0 0.90 c-0 0.50 -0 0.93 -0 0.95 l-0 0.05 -0.15 0.01 -0.15 0.02 -0.80 0 -0.80 0 -0.04 0.03 -0.04 0.03 -0.01 0.87 -0.01 0.87 -0.03 0.03 -0.03 0.03 0.06 0.06 c0.03 0.03 0.06 0.07 0.06 0.08 l0 0.03 0.06 0 0.06 0 0.03 -0.03 0.04 -0.03 -0.02 0.03 -0.02 0.03 0.91 0 0.92 -0 -0 -0.02 c-0 -0.01 -0 -0.47 0 -1.01 l0 -1 0.03 0.01 0.03 0.01 0 -0.03 0 -0.03 0.02 0.03 0.02 0.03 0.68 -0 0.68 0 0.02 -0.03 0.02 -0.03 0 0.03 0 0.03 0.26 0 0.26 0 0 -1 0 -1 -0.03 0.01 -0.03 0.01 0 -0.04 0 -0.04 1.20 0 1.19 0 -0.15 0.02 -0.15 0.02 0.98 0 0.98 0 -0 -0.02 c-0 -0.01 -0 -0.46 0 -1 l0 -0.98 1 0 1 0 0 1 0 1 1 0 1 0 0 3 0 3 -2 0 -2 0 0 1 0 1 -1 0 -1 0 0 1 0 1 -1 0 -1 0 0 1 0 1 2 0 2 0 0 1 0 1 1 0 1 0 0 1 0 1 1 0 1 0 0 2 0 2 -1 0 -1 0 0 3 0 3 -1 0 -1 0 0 1 0 1 -1 0 -1 0 0 1 0 1 -2 0 -2 0 0 1 0 1 -3 0 -3 0 0 -1z m-2 -20.01 l0 -0.96 -0.05 -0.01 -0.05 -0.01 -0.01 -0.04 -0.01 -0.04 -0.06 0.02 -0.06 0.02 -0.84 0 c-0.46 0 -0.86 0.01 -0.88 0.02 l-0.05 0.01 0 0.96 0 0.96 -0.03 0.01 -0.03 0.01 1.03 0 1.03 0 0 -0.96z m1.98 -3.90 l-0.02 -0.08 0 0.09 0 0.09 0.02 -0.02 0.02 -0.02 -0.02 -0.08z m2.03 -2.07 l0 -0.05 -0.03 0.03 -0.03 0.03 0.01 0.03 c0.03 0.04 0.04 0.03 0.04 -0.03z"/>
  <path d="M28.65 7.96 c0.17 -0 0.44 -0 0.60 0 l0.29 0.01 -0.60 0 -0.60 0 0.31 -0.01z"/>
  <path d="M29.65 7.96 c0.06 -0 0.15 -0 0.21 0 l0.10 0.01 -0.21 0 -0.21 0 0.11 -0.01z"/>
 </g>
 <g fill="#62c6cf">
  <path d="M18 39 l0 -1 -1 0 -1 0 0 -1 0 -1 -1 0 -1 0 0 -2 0 -2 3 0 3 0 0 -1 0 -1 2 0 2 0 0 -1 0 -1 1 0 1 0 0 -1 0 -1 -4 0 -4 0 0 -1 0 -1 -1 0 -1 0 0 -1 0 -1 -1 0 -1 0 0 -1 0 -1 1 0 1 0 0 -2 0 -2 1 0 1 0 0 -1 0 -1 1 0 1 0 0 -1 0 -1 2 0 2 0 0 -1 0 -1 1 0 1 0 0 -1 0 -1 2 0 2 0 0 -1 0 -1 1 0 1 0 0 1 0 1 1 0 1 0 0 3 0 3 -2 0 -2 0 0 1 0 1 -1 0 -1 0 0 1 0 1 -1 0 -1 0 0 1 0 1 2 0 2 0 0 1 0 1 1 0 1 0 0 1 0 1 1 0 1 0 0 2 0 2 -1 0 -1 0 0 3 0 3 -1 0 -1 0 0 1 0 1 -1 0 -1 0 0 1 0 1 -2 0 -2 0 0 1 0 1 -3 0 -3 0 0 -1z"/>
 </g>
 <g fill="#7d7ff6">
  <path d="M0 10.01 l0 -10.01 10.01 0 10.01 0 0 0.96 0 0.96 -0.03 0.05 -0.03 0.05 -0.96 0 -0.96 0 -0.01 0.04 -0.01 0.04 0 0.91 0 0.91 -0.03 0.07 -0.03 0.07 -0 0.88 c-0 0.48 -0 0.91 -0.01 0.96 l-0 0.08 -0.96 0 -0.96 0 -0.03 0.03 -0.03 0.03 0 0.94 0 0.94 -0.05 0.03 -0.05 0.03 -0.92 0 -0.92 0 -0.05 0.03 -0.05 0.03 -0.92 0 -0.92 0 -0.05 0.03 -0.05 0.03 0 0.90 0 0.90 -0.03 0.06 -0.03 0.06 -0.96 0 -0.96 0 -0.01 0.04 -0.01 0.04 0 0.93 0 0.93 -0.03 0.03 -0.03 0.03 -0.96 0 -0.96 0 0.01 0.02 0.01 0.03 -0.02 0.01 -0.03 0.01 -0 0.91 0 0.92 -0.03 0.05 -0.03 0.05 -0.94 0 c-0.51 0 -0.94 0 -0.95 -0 -0.01 0 -0.03 0.01 -0.04 0.03 l-0.02 0.03 0 0.94 0 0.94 -0.04 0.03 -0.04 0.03 -0.95 0 -0.95 0 -0.01 0.06 -0.01 0.06 0 0.90 0 0.90 -0.03 0.05 -0.03 0.05 -0 0.94 0 0.94 -0.03 0.03 -0.03 0.03 -0.96 0.01 c-0.53 0.01 -1.41 0.02 -1.95 0.03 l-1 0.01 0 -10.01z"/>
 </g>
 <g fill="#7381f9">
  <path d="M0 5 l0 -5 5 0 5 0 -0 1 -0.01 0.99 -0.99 0.01 -0.99 0.01 -0.01 0.99 -0 1 -1 0 -0.99 0.01 -0.01 0.99 -0 1 -1 0 -0.99 0.01 -0.01 1 -0 0.99 -0.99 0 -0.99 0 -0.01 0.03 c-0.01 0.01 -0.01 0.46 -0.02 0.99 l-0.01 0.96 -0.99 0.01 -1 0 0 -5z"/>
 </g>
 <g fill="#37b5cf">
  <path d="M18 39 l0 -1 -1 0 -1 0 0 -1 0 -1 -1 0 -1 0 0 -2 0 -2 3 0 3 0 0 -1 0 -1 2 0 2 0 0 -1 0 -1 1 0 1 0 0 -1 0 -1 -4 0 -4 0 0 -1 0 -1 -1 0 -1 0 0 -1 0 -1 -1 0 -1 0 0 -1 0 -1 1 0 1 0 0 -2 0 -2 1 0 1 0 0 -1 0 -1 1 0 1 0 0 -1 0 -1 2 0 2 0 0 -1 0 -1 1 0 1 0 0 -1 0 -1 2 0 2 0 0 -1 0 -1 1 0 1 0 0 1 0 1 1 0 1 0 0 3 0 3 -2 0 -2 0 0 1 0 1 -1 0 -1 0 0 1 0 1 -1 0 -1 0 0 1 0 1 2 0 2 0 0 1 0 1 1 0 1 0 0 1 0 1 1 0 1 0 0 2 0 2 -1 0 -1 0 0 3 0 3 -1 0 -1 0 0 1 0 1 -1 0 -1 0 0 1 0 1 -2 0 -2 0 0 1 0 1 -3 0 -3 0 0 -1z m10 -14 l0 -1 -1 0 -1 0 0 1 0 1 1 0 1 0 0 -1z"/>
 </g>
 <g fill="#25c3cf">
  <path d="M18 38.01 l-0.01 -2 -1.06 -0.01 c-0.58 -0.01 -1.03 -0.01 -0.99 -0.02 l0.07 -0 0 -0.99 0 -0.99 -1 0 -1 0 0 -1 0 -1 3.01 0 3.01 0 0.01 -0.05 0.01 -0.06 0 0.06 0 0.06 1.10 -0.01 c0.60 -0.01 1.12 -0.01 1.15 -0.02 l0.05 -0 0 -0.04 0 -0.04 0.03 0 c0.01 0 0.03 0.01 0.03 0.02 l0 0.02 0.16 -0 c0.09 0 0.38 0.01 0.66 0.02 l0.51 0.02 0.04 -0.04 0.04 -0.03 -0.02 0.03 -0.02 0.03 0.03 0 0.03 0 0.01 -0.04 0.01 -0.04 0.05 0 0.05 0 0 -0.13 0 -0.13 -0.05 0 -0.05 0 0 -0.03 0 -0.03 0.05 0 0.05 0 0 -0.23 c0 -0.13 0.01 -0.26 0.01 -0.29 l0.01 -0.06 -0.03 -0.05 -0.03 -0.05 0.02 0.01 0.02 0.01 0 -0.42 0 -0.42 -0.02 -0.04 -0.02 -0.04 -0 0.03 0 0.03 -0.04 0 -0.04 0 0.04 -0.05 0.04 -0.05 0.03 0 0.03 0 0 -0.05 c0 -0.03 0 -0.44 -0 -0.91 l-0 -0.85 0.01 -0.09 0.02 -0.09 0.99 0 0.99 0 0 -0.88 c0 -0.49 0 -0.94 0 -1 l-0.01 -0.12 -4 0 -4 0 0 -1 0 -1 -1 0 -1 0 0 -1 0 -1 -1 0 -1 0 0 -1 0 -1 1 0 1 0 0 -2 0 -2 1 0 1 0 0 -1 0 -1 1 0 1 0 0 -1 0 -1 2 0 2 0 0 -1 0 -1 1 0 1 0 0 -1 0 -1 2 0 2 0 0 -1 0 -1 1 0 1 0 0 1 0 1 1 0 1 0 0 3 0 3 -2 0 -2 0 0 1 0 1 -1 0 -1 0 0 1 0 1 -1 0 -1 0 0 1 0 1 2 0 2 0 0 1 0 1 1 0 1 0 0 1 0 1 1 0 1 0 0 2 0 2 -1 0 -1 0 -0.04 -0.05 -0.04 -0.05 -0.04 0.03 -0.04 0.03 -0.01 -0.03 -0.01 -0.03 -0.06 0 -0.07 0 0.06 0.01 0.05 0.01 -0.01 0.03 -0.02 0.03 0.03 -0.02 0.03 -0.02 0 0.03 c0 0.01 0.01 0.03 0.02 0.03 0.01 -0 0.04 -0 0.08 0 l0.05 0 0 3 0 3 -1 0 -1 0 0 1 0 1 -1 0 -1 0 0 1 0 1 -2 0 -2 0 0 1 0 1 -3 0 -3 0 -0 -1.99z m13.06 -10.03 l0 0.04 0.01 -0.01 0.01 -0.01 -0.01 -0.04 -0.02 -0.05 -0.02 0.04 c-0.01 0.02 -0.02 0.05 -0.02 0.06 l0 0.03 0.03 -0.04 0.03 -0.04 0 0.04z m0.95 -2.93 l0 -1.04 -3 0 -3 0 0 1 0 1 1.02 0 c0.56 0 1.89 0 2.97 0.01 l1.95 0 -0.01 0.04 -0 0.04 0.04 0 0.04 0 0 -1.05z"/>
 </g>
 <g fill="#10becf">
  <path d="M18 38.99 l0 -1.01 2 0.01 2 0 0 -1.02 0 -1.02 -0.05 -0 -0.05 -0 0 0.03 0 0.02 -0.93 0 -0.93 0 -0.03 -0.02 -0.03 -0.02 -0 -0.96 0 -0.96 -0.01 -0.01 -0.02 -0.01 -0.84 0 c-0.47 0 -0.90 0 -0.97 0.01 l-0.13 0.01 0 0.19 0 0.19 0.03 0.01 0.03 0.01 -0.03 0 -0.03 0 0 0.15 0 0.15 0.03 0.01 0.03 0.01 -0.03 0.01 -0.03 0.01 0 0.12 0 0.12 0.03 0 0.03 0 0 0.05 0 0.05 -0.03 0.01 -0.03 0.01 0.04 0.06 0.04 0.06 -0.03 0.01 -0.03 0.01 0 0.15 0 0.16 0.03 -0.04 0.03 -0.04 0 0.06 0 0.05 -0.03 0 -0.03 0 0 0.04 0 0.04 0.03 0.01 0.03 0.01 -0.03 0 -0.03 0 0 0.13 0 0.13 -1.07 -0.01 c-0.59 -0 -1.04 -0.01 -1 -0.02 l0.07 -0.01 0 -0.99 0 -0.99 -1 0 -1 0 0 -1 0 -1 3.01 0 3.01 0 0.01 -0.05 0.01 -0.06 0 0.06 0 0.06 1.10 -0.01 c0.60 -0.01 1.12 -0.01 1.15 -0.02 l0.05 -0 0 -0.04 0 -0.04 0.03 0 c0.01 0 0.03 0.01 0.03 0.02 l0 0.02 0.16 -0 c0.09 0 0.38 0.01 0.66 0.02 l0.51 0.02 0.04 -0.04 0.04 -0.03 -0.02 0.03 -0.02 0.03 0.03 0 0.03 0 0.01 -0.04 0.01 -0.04 0.05 0 0.05 0 0 -0.13 0 -0.13 -0.05 0 -0.05 0 0 -0.03 0 -0.03 0.05 0 0.05 0 0 -0.23 c0 -0.13 0.01 -0.26 0.01 -0.29 l0.01 -0.06 -0.03 -0.05 -0.03 -0.05 0.02 0.01 0.02 0.01 0 -0.42 0 -0.42 -0.02 -0.04 -0.02 -0.04 -0 0.03 0 0.03 -0.04 0 -0.04 0 0.04 -0.05 0.04 -0.05 0.03 0 0.03 0 0 -0.05 c0 -0.03 0 -0.44 -0 -0.91 l-0 -0.85 0.01 -0.09 0.02 -0.09 0.99 0 0.99 0 0 -0.88 c0 -0.49 0 -0.94 0 -1 l-0.01 -0.12 -4 0 -4 0 0 -1 0 -1 -1 0 -1 0 0 -1 0 -1 -1 0 -1 0 0 -1 0 -1 1 0 1 0 0 -2 0 -2 1 0 1 0 0 -1 0 -1 1 0 1 0 0 -1 0 -1 2 0 2 0 0 -1 0 -1 1 0 1 0 0 -1 0 -1 2 0 2 0 0 -1 0 -1 1 0 1 0 0 1 0 1 1 0 1 0 0 3 0 3 -2 0 -2 0 0 1 0 1 -1 0 -1 0 0 1 0 1 -1 0 -1 0 0 1 0 1 2 0 2 0 0 1 0 1 1 0 1 0 0 1 0 1 1 0 1 0 0 2 0 2 -1 0 -1 0 -0.04 -0.05 -0.04 -0.05 -0.04 0.03 -0.04 0.03 -0.01 -0.03 -0.01 -0.03 -0.06 0 -0.07 0 0.06 0.01 0.05 0.01 -0.01 0.03 -0.02 0.03 0.03 -0.02 0.03 -0.02 0 0.03 c0 0.01 0.01 0.03 0.02 0.03 0.01 -0 0.04 -0 0.08 0 l0.05 0 0 3 0 3 -1 0 -1 0 0 1 0 1 -1 0 -1 0 0 1 0 1 -2 0 -2 0 0 1 0 1 -3 0 -3 0 0 -1z m7.97 -3.03 l0.03 -0.04 0 -0.99 0 -0.99 0.03 0.01 0.03 0.01 0 -0.04 0 -0.04 0.03 0 0.03 0 0 0.04 c0 0.02 0.01 0.05 0.03 0.05 l0.03 0.02 -0.02 -0.03 -0.02 -0.03 0.04 0 0.04 0 -0.01 0.02 -0.01 0.02 0.03 0 0.03 0 -0.01 -0.05 -0.01 -0.05 0.05 0 0.05 0 -0.03 0.02 -0.03 0.02 0.05 0.03 0.05 0.03 -0.02 -0.03 -0.01 -0.03 0.03 0 c0.02 0 0.05 0.01 0.06 0.03 l0.03 0.03 -0 -0.04 -0 -0.05 0.03 -0.01 0.03 -0 -0.03 0.01 -0.03 0.01 0.05 0.03 0.05 0.03 0.02 -0.03 0.01 -0.03 0.04 0.04 0.04 0.03 -0.01 -0.04 -0.01 -0.04 0.04 0.01 0.04 0.01 -0.01 0.02 -0.01 0.02 0.04 0 0.04 0 -0.01 -0.02 -0.01 -0.02 0.05 0 0.05 0 0.01 0.03 0.01 0.03 -0.01 -0.06 -0.01 -0.06 0.04 0.04 c0.02 0.02 0.03 0.04 0.03 0.05 -0 0.01 0.01 0.01 0.03 0.01 l0.04 0 -0.01 -0.02 -0.01 -0.02 0.08 0 0.09 0 0.03 0.03 0.03 0.03 0 -0.03 0 -0.03 0.07 -0 0.07 0 0.04 0.03 0.04 0.03 -0.02 -0.03 -0.02 -0.03 0.05 0 0.05 0 0 0.03 0 0.03 0.01 -0.03 0.01 -0.03 0.07 0 0.07 0 0.03 0.03 0.04 0.03 -0.02 -0.03 -0.02 -0.03 0.04 0 0.04 0 0.01 0.03 0.01 0.03 0.01 -0.03 0.01 -0.03 0.03 0 0.03 0 0.01 0.03 0.01 0.03 -0.01 -0.05 -0.01 -0.06 0.04 0 0.04 0 0.01 0.03 0.01 0.03 0.02 -0.01 c0.01 -0.01 0.02 -0.04 0.03 -0.07 l0.01 -0.05 -0.03 0 -0.03 0 0.03 -0.04 0.04 -0.04 -0.04 0.02 -0.04 0.02 0.05 -0.04 c0.02 -0.02 0.04 -0.05 0.04 -0.06 l0 -0.03 -0.04 0.01 -0.05 0.01 0.05 -0.04 0.05 -0.04 -0.03 -0.05 -0.03 -0.05 0.03 0.01 0.03 0.02 -0 -0.11 c-0 -0.06 -0.01 -0.12 -0.02 -0.13 l-0.02 -0.02 0.02 -0.03 0.02 -0.03 0 -0.23 0 -0.23 -0.02 0.03 -0.02 0.03 0 -0.03 c0 -0.01 0.01 -0.04 0.02 -0.04 l0.02 -0.01 0 -0.14 0 -0.14 -0.04 0.01 -0.04 0.01 0.05 -0.03 c0.02 -0.01 0.04 -0.04 0.04 -0.05 l0 -0.03 -0.02 0.01 -0.02 0.01 0.01 -0.05 c0 -0.03 0.01 -0.05 0.01 -0.05 0 0 0.01 -0.04 0.01 -0.09 l0 -0.09 -0.02 0.01 -0.02 0.01 0 -0.04 0 -0.04 -0.14 -0.01 -0.14 -0.02 -0.78 0.01 -0.78 0 -0.05 0.04 -0.04 0.04 0 0.82 0 0.82 0.02 0.04 0.02 0.05 -0.05 0.02 c-0.03 0.01 -0.05 0.03 -0.05 0.03 0 0 -0.01 0.03 -0.03 0.05 l-0.04 0.04 -0.84 -0.01 -0.84 -0 -0.10 0.02 -0.10 0.02 -0.01 0.99 -0.01 1 0.97 -0 0.97 -0 0.04 -0.03z m5.08 -7.99 l0 0.04 0.01 -0.01 0.01 -0.01 -0.01 -0.04 -0.02 -0.05 -0.02 0.04 c-0.01 0.02 -0.02 0.05 -0.02 0.06 l0 0.03 0.03 -0.04 0.03 -0.04 0 0.04z m0.95 -2.93 l0 -1.04 -3 0 -3 0 0 1 0 1 1.02 0 c0.56 0 1.89 0 2.97 0.01 l1.95 0 -0.01 0.04 -0 0.04 0.04 0 0.04 0 0 -1.05z"/>
  <path d="M23.85 31.83 c0 -0.01 0.01 -0.03 0.03 -0.03 l0.03 0 0 -0.03 0 -0.03 -0.03 0.01 -0.03 0.01 0 -0.03 0 -0.03 0.04 0 0.04 0 0 0.02 c0 0.01 -0.01 0.04 -0.01 0.06 -0.02 0.05 -0.06 0.05 -0.06 0.01z"/>
 </g>
 <g fill="#00a8cf">
  <path d="M14 33 l0 -1 1 0 1 0 0 1 0 1 -1 0 -1 0 0 -1z"/>
 </g>
 <g fill="#f50065">
  <path d="M18 39 l0 -1 2 0 2 0 0 -1 0 -1 2 0 2 0 0 -1 0 -1 1 0 1 0 0 -1 0 -1 1 0 1 0 0 -2 0 -2 1 0 1 0 0 -2 0 -2 -3 0 -3 0 0 1 0 1 -4 0 -4 0 0 -1 0 -1 -1 0 -1 0 0 -1 0 -1 -1 0 -1 0 0 -1 0 -1 1 0 1 0 0 -2 0 -2 1 0 1 0 0 -1 0 -1 1 0 1 0 0 -1 0 -1 2 0 2 0 0 -1 0 -1 1 0 1 0 0 -1 0 -1 2 0 2 0 0 -1 0 -1 1 0 1 0 0 1 0 1 1 0 1 0 0 3 0 3 -2 0 -2 0 0 1 0 1 -1 0 -1 0 0 1 0 1 -1 0 -1 0 0 1 0 1 2 0 2 0 0 1 0 1 1 0 1 0 0 1 0 1 1 0 1 0 0 2 0 2 -1 0 -1 0 0 3 0 3 -1 0 -1 0 0 1 0 1 -1 0 -1 0 0 1 0 1 -2 0 -2 0 0 1 0 1 -3 0 -3 0 0 -1z"/>
 </g>
 <g fill="#f50059">
  <path d="M18 39 l0 -1 2 0 2 0 0 -1 0 -1 2 0 2 0 0 -1 0 -1 1 0 1 0 0 -1 0 -1 1 0 1 0 0 -2 0 -2 1 0 1 0 0 -2 0 -2 -3 -0 -3 -0.01 0 -1 0 -1 -2.94 0 -2.94 0 -0.06 0.03 -0.06 0.03 0 0.89 0 0.89 0.05 0.04 0.05 0.04 0 0.04 0 0.04 -0.03 -0.04 -0.03 -0.04 0 0.05 0 0.04 2.97 0 2.97 0 0 1 0 1 -4 0 -4 0 0 -1 0 -1 -0.08 -0 -0.08 -0 0.06 -0.02 0.06 -0.02 -0.11 0 -0.11 -0 0.05 0.02 0.05 0.02 -0.30 0 -0.30 0 0.05 -0.02 0.05 -0.02 -0.10 0 -0.10 0 0.05 0.02 0.05 0.02 -0.14 0 -0.14 0 -0.01 -0.03 -0.01 -0.03 -0.04 0 -0.04 0 0.05 0.02 0.05 0.02 -0.44 0 -0.44 0 0 -0.03 0 -0.03 -0.02 0.01 -0.02 0.01 0 -0.24 0 -0.23 0.04 0 0.05 0 0 -0.03 0 -0.02 -0.04 0.01 -0.03 0.01 -0.01 -0.05 c-0.01 -0.03 -0.01 -0.36 -0.01 -0.74 l0 -0.69 -1 0 -1.01 0 0 -1 0 -1 1 0 1 0 0 -2 0 -2 1 0 1 0 0 -1 0 -1 1 0 1 0 0 -1 0 -1 2 0 2 0 0 -0.07 c0 -0.04 0 -0.48 0 -0.98 l0 -0.91 0.03 0.02 0.03 0.02 -0.04 -0.04 -0.03 -0.04 1 0 1 0 0 -1 0 -1 2 0 2 0 0 -1 0 -1 1 0 1 0 0 1 0 1 1 0 1 0 0 3 0 3 -2 0 -2 0 0 1 0 1 -1 0 -1 0 0 1 0 1 -1 0 -1 0 0 1 0 1 2 0 2 0 0 1 0 1 1 0 1 0 0 1 0 1 1 0 1 0 0 2 0 2 -1 0 -1 0 0 3 0 3 -1 0 -1 0 0 1 0 1 -1 0 -1 0 0 1 0 1 -2 0 -2 0 0 1 0 1 -3 0 -3 0 0 -1z m-1.50 -15.04 c-0.03 -0 -0.07 -0 -0.10 0 l-0.06 0.01 0.10 0 0.10 0 -0.04 -0.01z m0.20 0 c-0.03 -0 -0.07 -0 -0.10 0 l-0.06 0.01 0.10 0 0.10 0 -0.04 -0.01z m0.40 0 c-0.03 -0 -0.07 -0 -0.10 0 l-0.06 0.01 0.10 0 0.10 0 -0.04 -0.01z m0.40 0 c-0.03 -0 -0.07 -0 -0.10 0 l-0.06 0.01 0.10 0 0.10 0 -0.04 -0.01z m0.20 0 c-0.03 -0 -0.07 -0 -0.10 0 l-0.06 0.01 0.10 0 0.10 0 -0.04 -0.01z m-1.55 -0.98 l0.04 0.03 0.02 -0.02 0.01 -0.01 -0.04 0 -0.04 0 0.04 -0.03 0.04 -0.03 -0.06 0.01 -0.06 0.01 -0.01 0.03 -0 0.03 0.01 -0.03 0.01 -0.03 0.04 0.03z m-0.04 -0.60 l0 -0.03 0.05 0 0.05 0 0 -0.04 0 -0.04 -0.03 0 c-0.05 0 -0.06 -0 -0.10 -0.03 l-0.05 -0.03 0 0.03 c0 0.01 0.02 0.04 0.05 0.05 l0.04 0.03 -0.03 0.01 c-0.04 0.02 -0.04 0.06 -0.01 0.06 0.01 0 0.03 -0.01 0.03 -0.03z m4.16 -4.46 l0.01 -0.03 -0.07 0.01 c-0.04 0 -0.08 0.02 -0.09 0.03 l-0.01 0.02 0.07 -0 0.08 -0 0.01 -0.03z m1.07 -0.02 l-0 -0.06 -0.03 0.05 -0.03 0.05 -0.03 -0.05 -0.04 -0.05 0 0.05 0 0.05 0.06 0 0.06 0 0 -0.05z m-0.57 -0.07 c0 -0.03 -0.03 -0.03 -0.08 0 l-0.04 0.03 0.06 0 0.05 0 0 -0.03z m3.55 -7.64 c-0.01 -0.01 -0.04 -0.02 -0.08 -0.03 l-0.06 -0.01 0 0.03 0 0.03 0.08 0 0.08 0 -0.01 -0.01z m0.86 -0.03 l0 -0.05 -0.02 0.03 c-0.01 0.02 -0.04 0.04 -0.07 0.04 l-0.05 0.01 0.07 0 0.07 0 0 -0.04z m0.30 0.02 l0 -0.02 -0.09 0.01 c-0.15 0.01 -0.16 0.03 -0.03 0.03 l0.12 0 0 -0.02z"/>
 </g>
 <g fill="#eb114d">
  <path d="M18 39 l0 -1 2 0 2 0 0 -1 0 -1 2 0 2 0 0 -1 0 -1 1 0 1 0 0 -1 0 -1 1 0 1 0 0 -2 0 -2 1 0 1 0 0 -2 0 -2 -2.03 0 -2.03 0 0.03 -0.03 0.03 -0.03 0 -0.97 0 -0.97 -3 0 -3 0 -0 -0.98 c-0 -0.54 -0 -0.99 0 -1 0 -0.01 -0 -0.01 -0.01 -0.01 -0.01 0 -0.46 0 -1 0 l-0.98 -0 0.01 -0.98 c0 -0.54 0.01 -0.99 0.02 -0.99 0 -0 0.43 -0.01 0.95 -0.01 l0.94 0 0.04 -0.01 0.04 -0.01 0 -1 0 -1 1 0 1 0 0 -1 0 -1 2 0 2 0 0 -1 0 -1 2 0 2 0 0 -2 0 -2 -1 0 -1 0 0 -1 0 -1 1 0 1 0 0 1 0 1 1 0 1 0 0 3 0 3 -2 0 -2 0 0 1 0 1 -1 0 -1 0 0 1 0 1 -1 0 -1 0 0 1 0 1 2 0 2 0 0 1 0 1 1 0 1 0 0 1 0 1 1 0 1 0 0 2 0 2 -1 0 -1 0 0 3 0 3 -1 0 -1 0 0 1 0 1 -1 0 -1 0 0 1 0 1 -2 0 -2 0 0 1 0 1 -3 0 -3 0 0 -1z"/>
 </g>
 <g fill="#cf2d4a">
  <path d="M18 39 l0 -1 2 0 2 0 0 -1 0 -1 2 0 2 0 0 -1 0 -1 1 0 1 0 0 -1 0 -1 1 0 1 0 0 -2 0 -2 1 0 1 0 0 -2 0 -2 -2.03 -0 -2.03 -0 0.03 -0.01 0.03 -0.01 0 -0.99 0 -0.99 -3 0 -3 0 0 -3 0 -3 1.02 0 1.02 0 0.01 -0.05 0.01 -0.06 0.04 0.06 0.03 0.06 0.01 -0.03 0.01 -0.03 0.12 -0.01 0.12 -0.01 0.02 0.03 0.02 0.03 0.01 -0.04 0.01 -0.04 0.14 0.01 0.14 0.01 0.04 -0.05 0.04 -0.05 -0.01 0.05 -0.01 0.04 0.08 0 0.08 0 0.01 -0.03 0.01 -0.03 0.01 0.03 0.01 0.03 0.07 0 0.07 0 0.03 -0.03 0.03 -0.03 0 0.03 0 0.03 0.09 0 0.09 0 0 -0.03 0 -0.03 0.03 0.04 0.03 0.04 0.01 -0.03 0.01 -0.03 0.04 0.03 0.04 0.03 0.02 -0.04 0.02 -0.04 0.03 0.04 0.03 0.04 0.03 -0.04 0.03 -0.04 0.03 0.04 0.03 0.04 0.02 -0.03 0.02 -0.03 0.06 -0.01 c0.03 -0 0.06 -0.01 0.06 -0.02 0 -0 0.01 -0.41 0.01 -0.89 l0 -0.88 0.03 -0 c0.01 -0 0.04 -0 0.05 0 l0.02 0 0 -0.05 0 -0.05 1 0 1 0 0 -1 0 -1 2 0 2 0 0 -2 0 -2 -1 0 -1 0 0 -1 0 -1 1 0 1 0 0 1 0 1 1 0 1 0 0 3 0 3 -2 0 -2 0 0 1 0 1 -1 0 -1 0 0 1 0 1 -1 0 -1 0 0 1 0 1 2 0 2 0 0 1 0 1 1 0 1 0 0 1 0 1 1 0 1 0 0 2 0 2 -1 0 -1 0 0 3 0 3 -1 0 -1 0 0 1 0 1 -1 0 -1 0 0 1 0 1 -2 0 -2 0 0 1 0 1 -3 0 -3 0 0 -1z"/>
  <path d="M18 25 l0 -1 4 0 4 0 0 1 0 1 -4 0 -4 0 0 -1z"/>
 </g>
 <g fill="#f60045">
  <path d="M18 39 l0 -1 2 0 2 0 0 -1 0 -1 2 0 2 0 0 -1 0 -1 1 0 1 0 0 -1 0 -1 1 0 1 0 0 -2 0 -2 1 0 1 0 0 -2 0 -2 -2.03 -0 -2.03 -0 0.03 -0.01 0.03 -0.01 0 -0.99 0 -0.99 -3 0 -3 0 0 -3 0 -3 1.02 0 1.02 0 0.01 -0.05 0.01 -0.06 0.04 0.06 0.03 0.06 0.01 -0.03 0.01 -0.03 0.12 -0.01 0.12 -0.01 0.02 0.03 0.02 0.03 0.01 -0.04 0.01 -0.04 0.14 0.01 0.14 0.01 0.04 -0.05 0.04 -0.05 -0.01 0.05 -0.01 0.04 0.08 0 0.08 0 0.01 -0.03 0.01 -0.03 0.01 0.03 0.01 0.03 0.07 0 0.07 0 0.03 -0.03 0.03 -0.03 0 0.03 0 0.03 0.09 0 0.09 0 0 -0.03 0 -0.03 0.03 0.04 0.03 0.04 0.01 -0.03 0.01 -0.03 0.04 0.03 0.04 0.03 0.02 -0.04 0.02 -0.04 0.03 0.04 0.03 0.04 0.03 -0.04 0.03 -0.04 0.03 0.04 0.03 0.04 0.02 -0.03 0.02 -0.03 0.06 -0.01 c0.03 -0 0.06 -0.01 0.06 -0.02 0 -0 0.01 -0.41 0.01 -0.89 l0 -0.88 0.03 -0 c0.01 -0 0.04 -0 0.05 0 l0.02 0 0 -0.05 0 -0.05 1 0 1 0 0 -1 0 -1 2 0 2 0 0 -1.99 0 -2 -0.02 -0.04 -0.02 -0.03 -0.02 0.03 -0.02 0.03 -0.96 0 -0.96 -0 0 -1 0 -1 1 0 1 0 0 1 0 1 1 0 1 0 0 3 0 3 -2 0 -2 0 0 1 0 1 -1 0 -1 0 0 1 0 1 -1 0 -1 0 0 1 0 1 2 0 2 0 0 1 0 1 1 0 1 0 0 1 0 1 1 0 1 0 0 2 0 2 -1 0 -1 0 0 3 0 3 -1 0 -1 0 0 1 0 1 -1 0 -1 0 0 1 0 1 -2 0 -2 0 0 1 0 1 -3 0 -3 0 0 -1z"/>
  <path d="M24 14.05 c0 -0.01 0.01 -0.02 0.03 -0.02 0.12 -0.01 1.90 0 1.91 0.01 l0.01 0.01 -0.98 0 -0.98 0.01 0 -0.02z"/>
 </g>
 <g fill="#df0058">
  <path d="M22 19 l0 -3 2 0 2 0 0 -1 0 -1 1 0 1 0 0 -1 0 -1 2 0 2 0 0 -1.99 0 -2 -0.02 -0.04 -0.02 -0.03 -0.02 0.03 -0.02 0.03 -0.96 0 -0.96 -0 0 -1 0 -1 1 0 1 0 0 1 0 1 1 0 1 0 0 3 0 3 -2 0 -2 0 0 1 0 1 -1 0 -1 0 0 1 0 1 -1 0 -1 0 0 1 0 1 2 0 2 0 0 1 0 1 -4 0 -4 0 0 -3z"/>
  <path d="M16 17 l0 -1 1 0 1 0 0 -1 0 -1 1 0 1 0 0 -1 0 -1 1 0 1 0 0 1 0 1 -1 0 -1 0 0 1 0 1 -1 0 -1 0 0 1 0 1 -1 0 -1 0 0 -1z"/>
 </g>
 <g fill="#cf0056">
  <path d="M16 17 l0 -1 0.99 0 0.99 0 0.01 0.06 0.01 0.05 -0.01 0.94 -0.01 0.94 -0.99 0 -1 0 0 -1z"/>
 </g>
 <g fill="#cf123e">
  <path d="M14 21 l0 -1 1 0 1 0 0 1 0 1 -1 0 -1 0 0 -1z"/>
  <path d="M24 21 l0 -1 -1 0 -1 0 0 -2 0 -2 2 0 2 0 0 -1 0 -1 1 0 1 0 0 -1 0 -1 2 0 2 0 0 -1.99 0 -2 -0.02 -0.04 -0.02 -0.03 -0.02 0.03 -0.02 0.03 -0.96 0 -0.96 -0 0 -1 0 -1 1 0 1 0 0 1 0 1 1 0 1 0 0 3 0 3 -2 0 -2 0 0 1 0 1 -1 0 -1 0 0 1 0 1 -1 0 -1 0 0 1 0 1 2 0 2 0 0 1 0 1 -3 0 -3 0 0 -1z"/>
  <path d="M18 15 l0 -1 1 0 1 0 0 -1 0 -1 1 0 1 0 0 1 0 1 -1 0 -1 0 0 1 0 1 -1 0 -1 0 0 -1z"/>
  <path d="M26 9 l0 -1 1 0 1 0 0 1 0 1 -1 0 -1 0 0 -1z"/>
 </g>
 <g fill="#cf0146">
  <path d="M24 21 l0 -1 -1 0 -1 0 0 -1 0 -1 1 0 1 0 0 -1 0 -1 1 0 1 0 0 -1 0 -1 1 0 1 0 0 -1 0 -1 2 0 2 0 -0 -2.03 c-0 -1.12 -0 -2.02 0 -2 l0.01 0.03 1 0 1 0 0 3 0 3 -2 0 -2 0 0 1 0 1 -1 0 -1 0 0 1 0 1 -1 0 -1 0 0 1.01 0 1.01 0.09 0 c0.14 0 1.32 -0 2.68 -0.02 l1.22 -0.01 0 0.99 0 0.99 -0.04 0.01 c-0.03 0 -1.38 0.01 -3 0.01 l-2.96 0 0 -1z"/>
  <path d="M18 15.01 l0.01 -1 0.91 -0 c0.50 -0 0.95 -0.01 1 -0.01 l0.08 0 0 -1 0 -1 1 0 1 0 0 1 0 1 -1 0 -1 0 0 1 0 1 -1 0 -1 0 0 -0.99z"/>
  <path d="M26.05 9.95 l-0.03 -0.05 -0 -0.92 -0 -0.92 0.02 -0.02 0.02 -0.02 0.96 0 0.96 0 -0.04 0.03 -0.04 0.03 0.04 0.03 0.04 0.04 -0.01 0.05 -0.01 0.05 0.02 0.01 0.02 0.01 0 0.84 0 0.84 -0.06 0.02 -0.06 0.02 -0.88 0 -0.88 0 0 -0.03 0 -0.03 -0.02 0.04 -0.02 0.04 -0.03 -0.05z"/>
  <path d="M30.05 7.99 l-0.04 -0.01 0 -0.94 c0 -0.51 0.01 -0.95 0.02 -0.97 l0.01 -0.03 0.94 0 0.94 0 0.02 0.02 0.02 0.02 0 0.92 0 0.92 -0.04 0.04 -0.04 0.04 -0.89 -0 c-0.49 -0 -0.91 -0.01 -0.93 -0.01z"/>
 </g>
 <g fill="#000000">
  <path d="M18 39 l0 -1 2 0 2 0 0 -1 0 -1 2 0 2 0 0 -1 0 -1 1 0 1 0 0 -1 0 -1 1 0 1 0 0 -2 0 -2 1 0 1 0 0 -2 0 -2 1 0 1 0 0 2 0 2 -1 0 -1 0 0 3 0 3 -1 0 -1 0 0 1 0 1 -1 0 -1 0 0 1 0 1 -2 0 -2 0 0 1 0 1 -3 0 -3 0 0 -1z"/>
  <path d="M18 25 l0 -1 3 0 3 0 0 1 0 1 -3 0 -3 0 0 -1z"/>
  <path d="M22 19 l0 -1 1 0 1 0 0 -1 0 -1 1 0 1 0 0 -1 0 -1 1 0 1 0 0 -1 0 -1 2 0 2 0 0 -2 0 -2 1 0 1 0 0 3 0 3 -2 0 -2 0 0 1 0 1 -1 0 -1 0 0 1 0 1 -1 0 -1 0 0 1 0 1 -2 0 -2 0 0 -1z"/>
 </g>
</svg>