<?xml version="1.0" standalone="no"?>
<!DOCTYPE svg PUBLIC "-//W3C//DTD SVG 20010904//EN"
 "http://www.w3.org/TR/2001/REC-SVG-20010904/DTD/svg10.dtd">
<svg version="1.0" xmlns="http://www.w3.org/2000/svg"
 width="340.000000pt" height="336.000000pt" viewBox="0 0 340.000000 336.000000"
 preserveAspectRatio="xMidYMid meet">
<metadata>
Created by potrace 1.16, written by Peter Selinger 2001-2019
</metadata>
<g transform="translate(0.000000,336.000000) scale(0.100000,-0.100000)"
fill="#000000" stroke="none">
<path d="M347 3332 c-23 -25 -22 -85 1 -105 25 -23 85 -22 105 1 23 25 22 85
-1 105 -25 23 -85 22 -105 -1z m91 -14 c21 -21 14 -66 -13 -84 -23 -15 -27
-15 -50 0 -17 11 -25 26 -25 44 0 35 16 52 50 52 14 0 31 -5 38 -12z"/>
<path d="M397 3292 c-10 -10 -14 -22 -10 -25 7 -8 43 21 43 35 0 14 -16 9 -33
-10z"/>
<path d="M507 3332 c-23 -25 -22 -85 1 -105 25 -23 85 -22 105 1 23 25 22 85
-1 105 -25 23 -85 22 -105 -1z m91 -14 c21 -21 14 -66 -13 -84 -23 -15 -27
-15 -50 0 -17 11 -25 26 -25 44 0 35 16 52 50 52 14 0 31 -5 38 -12z"/>
<path d="M557 3292 c-10 -10 -14 -22 -10 -25 7 -8 43 21 43 35 0 14 -16 9 -33
-10z"/>
<path d="M686 3303 c-11 -70 -10 -73 34 -73 44 0 45 3 34 73 -6 32 -10 37 -34
37 -24 0 -28 -5 -34 -37z m52 -1 c2 -7 -6 -12 -17 -12 -21 0 -27 11 -14 24 9
9 26 2 31 -12z"/>
<path d="M846 3303 c-11 -70 -10 -73 34 -73 44 0 45 3 34 73 -6 32 -10 37 -34
37 -24 0 -28 -5 -34 -37z m52 -1 c2 -7 -6 -12 -17 -12 -21 0 -27 11 -14 24 9
9 26 2 31 -12z"/>
<path d="M55 3280 l-16 -30 41 0 41 0 -16 30 c-9 17 -20 30 -25 30 -5 0 -16
-13 -25 -30z"/>
<path d="M215 3280 l-16 -30 41 0 41 0 -16 30 c-9 17 -20 30 -25 30 -5 0 -16
-13 -25 -30z"/>
<path d="M1970 3300 c0 -5 5 -10 10 -10 6 0 10 5 10 10 0 6 -4 10 -10 10 -5 0
-10 -4 -10 -10z"/>
<path d="M2000 3300 c0 -5 5 -10 10 -10 6 0 10 5 10 10 0 6 -4 10 -10 10 -5 0
-10 -4 -10 -10z"/>
<path d="M2030 3300 c0 -5 5 -10 10 -10 6 0 10 5 10 10 0 6 -4 10 -10 10 -5 0
-10 -4 -10 -10z"/>
<path d="M2060 3300 c0 -5 5 -10 10 -10 6 0 10 5 10 10 0 6 -4 10 -10 10 -5 0
-10 -4 -10 -10z"/>
<path d="M2090 3300 c0 -5 5 -10 10 -10 6 0 10 5 10 10 0 6 -4 10 -10 10 -5 0
-10 -4 -10 -10z"/>
<path d="M2220 3300 c0 -5 5 -10 10 -10 6 0 10 5 10 10 0 6 -4 10 -10 10 -5 0
-10 -4 -10 -10z"/>
<path d="M2250 3300 c0 -5 5 -10 10 -10 6 0 10 5 10 10 0 6 -4 10 -10 10 -5 0
-10 -4 -10 -10z"/>
<path d="M2280 3300 c0 -5 5 -10 10 -10 6 0 10 5 10 10 0 6 -4 10 -10 10 -5 0
-10 -4 -10 -10z"/>
<path d="M2310 3300 c0 -5 5 -10 10 -10 6 0 10 5 10 10 0 6 -4 10 -10 10 -5 0
-10 -4 -10 -10z"/>
<path d="M2340 3300 c0 -5 5 -10 10 -10 6 0 10 5 10 10 0 6 -4 10 -10 10 -5 0
-10 -4 -10 -10z"/>
<path d="M2475 3240 l0 -51 40 3 40 3 0 45 0 45 -40 3 -40 3 0 -51z m50 31 c3
-5 1 -12 -5 -16 -5 -3 -10 1 -10 9 0 18 6 21 15 7z m-3 -63 c-9 -9 -12 -7 -12
12 0 19 3 21 12 12 9 -9 9 -15 0 -24z"/>
<path d="M2715 3240 l0 -51 40 3 40 3 0 45 0 45 -40 3 -40 3 0 -51z m50 31 c3
-5 1 -12 -5 -16 -5 -3 -10 1 -10 9 0 18 6 21 15 7z m-3 -63 c-9 -9 -12 -7 -12
12 0 19 3 21 12 12 9 -9 9 -15 0 -24z"/>
<path d="M2983 3283 c15 -2 39 -2 55 0 15 2 2 4 -28 4 -30 0 -43 -2 -27 -4z"/>
<path d="M3223 3283 c15 -2 39 -2 55 0 15 2 2 4 -28 4 -30 0 -43 -2 -27 -4z"/>
<path d="M1673 3200 c0 -47 2 -66 4 -42 2 23 2 61 0 85 -2 23 -4 4 -4 -43z"/>
<path d="M1833 3200 c0 -47 2 -66 4 -42 2 23 2 61 0 85 -2 23 -4 4 -4 -43z"/>
<path d="M1970 3270 c0 -5 5 -10 10 -10 6 0 10 5 10 10 0 6 -4 10 -10 10 -5 0
-10 -4 -10 -10z"/>
<path d="M2000 3270 c0 -5 5 -10 10 -10 6 0 10 5 10 10 0 6 -4 10 -10 10 -5 0
-10 -4 -10 -10z"/>
<path d="M2030 3270 c0 -5 5 -10 10 -10 6 0 10 5 10 10 0 6 -4 10 -10 10 -5 0
-10 -4 -10 -10z"/>
<path d="M2060 3270 c0 -5 5 -10 10 -10 6 0 10 5 10 10 0 6 -4 10 -10 10 -5 0
-10 -4 -10 -10z"/>
<path d="M2090 3270 c0 -5 5 -10 10 -10 6 0 10 5 10 10 0 6 -4 10 -10 10 -5 0
-10 -4 -10 -10z"/>
<path d="M2220 3270 c0 -5 5 -10 10 -10 6 0 10 5 10 10 0 6 -4 10 -10 10 -5 0
-10 -4 -10 -10z"/>
<path d="M2250 3270 c0 -5 5 -10 10 -10 6 0 10 5 10 10 0 6 -4 10 -10 10 -5 0
-10 -4 -10 -10z"/>
<path d="M2280 3270 c0 -5 5 -10 10 -10 6 0 10 5 10 10 0 6 -4 10 -10 10 -5 0
-10 -4 -10 -10z"/>
<path d="M2310 3270 c0 -5 5 -10 10 -10 6 0 10 5 10 10 0 6 -4 10 -10 10 -5 0
-10 -4 -10 -10z"/>
<path d="M2340 3270 c0 -5 5 -10 10 -10 6 0 10 5 10 10 0 6 -4 10 -10 10 -5 0
-10 -4 -10 -10z"/>
<path d="M2943 3267 c4 -10 0 -17 -11 -20 -16 -4 -16 -5 0 -6 12 -1 16 -7 12
-18 -5 -14 -4 -15 4 -4 5 7 14 16 19 20 5 3 0 15 -11 25 -15 15 -18 16 -13 3z"/>
<path d="M3183 3267 c4 -10 0 -17 -11 -20 -16 -4 -16 -5 0 -6 12 -1 16 -7 12
-18 -5 -14 -4 -15 4 -4 5 7 14 16 19 20 5 3 0 15 -11 25 -15 15 -18 16 -13 3z"/>
<path d="M2990 3260 c0 -5 16 -10 35 -10 19 0 35 5 35 10 0 6 -16 10 -35 10
-19 0 -35 -4 -35 -10z"/>
<path d="M3230 3260 c0 -5 16 -10 35 -10 19 0 35 5 35 10 0 6 -16 10 -35 10
-19 0 -35 -4 -35 -10z"/>
<path d="M1970 3240 c0 -5 5 -10 10 -10 6 0 10 5 10 10 0 6 -4 10 -10 10 -5 0
-10 -4 -10 -10z"/>
<path d="M2000 3240 c0 -5 5 -10 10 -10 6 0 10 5 10 10 0 6 -4 10 -10 10 -5 0
-10 -4 -10 -10z"/>
<path d="M2030 3240 c0 -5 5 -10 10 -10 6 0 10 5 10 10 0 6 -4 10 -10 10 -5 0
-10 -4 -10 -10z"/>
<path d="M2060 3240 c0 -5 5 -10 10 -10 6 0 10 5 10 10 0 6 -4 10 -10 10 -5 0
-10 -4 -10 -10z"/>
<path d="M2090 3240 c0 -5 5 -10 10 -10 6 0 10 5 10 10 0 6 -4 10 -10 10 -5 0
-10 -4 -10 -10z"/>
<path d="M2220 3240 c0 -5 5 -10 10 -10 6 0 10 5 10 10 0 6 -4 10 -10 10 -5 0
-10 -4 -10 -10z"/>
<path d="M2250 3240 c0 -5 5 -10 10 -10 6 0 10 5 10 10 0 6 -4 10 -10 10 -5 0
-10 -4 -10 -10z"/>
<path d="M2280 3240 c0 -5 5 -10 10 -10 6 0 10 5 10 10 0 6 -4 10 -10 10 -5 0
-10 -4 -10 -10z"/>
<path d="M2310 3240 c0 -5 5 -10 10 -10 6 0 10 5 10 10 0 6 -4 10 -10 10 -5 0
-10 -4 -10 -10z"/>
<path d="M2340 3240 c0 -5 5 -10 10 -10 6 0 10 5 10 10 0 6 -4 10 -10 10 -5 0
-10 -4 -10 -10z"/>
<path d="M2990 3230 c0 -5 9 -10 20 -10 11 0 20 5 20 10 0 6 -9 10 -20 10 -11
0 -20 -4 -20 -10z"/>
<path d="M3230 3230 c0 -5 9 -10 20 -10 11 0 20 5 20 10 0 6 -9 10 -20 10 -11
0 -20 -4 -20 -10z"/>
<path d="M1970 3210 c0 -5 5 -10 10 -10 6 0 10 5 10 10 0 6 -4 10 -10 10 -5 0
-10 -4 -10 -10z"/>
<path d="M2000 3210 c0 -5 5 -10 10 -10 6 0 10 5 10 10 0 6 -4 10 -10 10 -5 0
-10 -4 -10 -10z"/>
<path d="M2030 3210 c0 -5 5 -10 10 -10 6 0 10 5 10 10 0 6 -4 10 -10 10 -5 0
-10 -4 -10 -10z"/>
<path d="M2074 3206 c-8 -8 -7 -15 0 -22 8 -8 15 -7 22 0 8 8 7 15 0 22 -8 8
-15 7 -22 0z"/>
<path d="M2220 3210 c0 -5 5 -10 10 -10 6 0 10 5 10 10 0 6 -4 10 -10 10 -5 0
-10 -4 -10 -10z"/>
<path d="M2250 3210 c0 -5 5 -10 10 -10 6 0 10 5 10 10 0 6 -4 10 -10 10 -5 0
-10 -4 -10 -10z"/>
<path d="M2280 3210 c0 -5 5 -10 10 -10 6 0 10 5 10 10 0 6 -4 10 -10 10 -5 0
-10 -4 -10 -10z"/>
<path d="M2324 3206 c-8 -8 -7 -15 0 -22 8 -8 15 -7 22 0 8 8 7 15 0 22 -8 8
-15 7 -22 0z"/>
<path d="M2983 3203 c15 -2 39 -2 55 0 15 2 2 4 -28 4 -30 0 -43 -2 -27 -4z"/>
<path d="M3223 3203 c15 -2 39 -2 55 0 15 2 2 4 -28 4 -30 0 -43 -2 -27 -4z"/>
<path d="M1970 3180 c0 -5 5 -10 10 -10 6 0 10 5 10 10 0 6 -4 10 -10 10 -5 0
-10 -4 -10 -10z"/>
<path d="M2000 3180 c0 -5 5 -10 10 -10 6 0 10 5 10 10 0 6 -4 10 -10 10 -5 0
-10 -4 -10 -10z"/>
<path d="M2030 3180 c0 -5 5 -10 10 -10 6 0 10 5 10 10 0 6 -4 10 -10 10 -5 0
-10 -4 -10 -10z"/>
<path d="M2220 3180 c0 -5 5 -10 10 -10 6 0 10 5 10 10 0 6 -4 10 -10 10 -5 0
-10 -4 -10 -10z"/>
<path d="M2250 3180 c0 -5 5 -10 10 -10 6 0 10 5 10 10 0 6 -4 10 -10 10 -5 0
-10 -4 -10 -10z"/>
<path d="M2280 3180 c0 -5 5 -10 10 -10 6 0 10 5 10 10 0 6 -4 10 -10 10 -5 0
-10 -4 -10 -10z"/>
<path d="M2983 3183 c15 -2 39 -2 55 0 15 2 2 4 -28 4 -30 0 -43 -2 -27 -4z"/>
<path d="M3223 3183 c15 -2 39 -2 55 0 15 2 2 4 -28 4 -30 0 -43 -2 -27 -4z"/>
<path d="M660 3153 c0 -25 1 -26 13 -8 21 28 36 10 30 -35 l-6 -40 42 0 c39 0
41 2 41 30 0 27 -3 30 -30 30 -25 0 -30 4 -30 25 0 21 -5 25 -30 25 -26 0 -30
-4 -30 -27z"/>
<path d="M820 3153 c0 -25 1 -26 13 -8 21 28 36 10 30 -35 l-6 -40 42 0 c39 0
41 2 41 30 0 27 -3 30 -30 30 -25 0 -30 4 -30 25 0 21 -5 25 -30 25 -26 0 -30
-4 -30 -27z"/>
<path d="M50 3120 l0 -41 30 16 c17 9 30 20 30 25 0 5 -13 16 -30 25 l-30 16
0 -41z"/>
<path d="M210 3120 l0 -41 30 16 c17 9 30 20 30 25 0 5 -13 16 -30 25 l-30 16
0 -41z"/>
<path d="M374 3143 c19 -23 19 -23 0 -45 l-19 -23 23 19 c22 19 22 19 45 0
l22 -19 -19 23 c-19 22 -19 22 0 45 l19 22 -22 -19 c-23 -19 -23 -19 -45 0
l-23 19 19 -22z"/>
<path d="M534 3143 c19 -23 19 -23 0 -45 l-19 -23 23 19 c22 19 22 19 45 0
l22 -19 -19 23 c-19 22 -19 22 0 45 l19 22 -22 -19 c-23 -19 -23 -19 -45 0
l-23 19 19 -22z"/>
<path d="M1984 3056 c-8 -8 -7 -15 0 -22 8 -8 15 -7 22 0 8 8 7 15 0 22 -8 8
-15 7 -22 0z"/>
<path d="M2030 3060 c0 -5 5 -10 10 -10 6 0 10 5 10 10 0 6 -4 10 -10 10 -5 0
-10 -4 -10 -10z"/>
<path d="M2060 3060 c0 -5 5 -10 10 -10 6 0 10 5 10 10 0 6 -4 10 -10 10 -5 0
-10 -4 -10 -10z"/>
<path d="M2090 3060 c0 -5 5 -10 10 -10 6 0 10 5 10 10 0 6 -4 10 -10 10 -5 0
-10 -4 -10 -10z"/>
<path d="M2234 3056 c-8 -8 -7 -15 0 -22 8 -8 15 -7 22 0 8 8 7 15 0 22 -8 8
-15 7 -22 0z"/>
<path d="M2280 3060 c0 -5 5 -10 10 -10 6 0 10 5 10 10 0 6 -4 10 -10 10 -5 0
-10 -4 -10 -10z"/>
<path d="M2310 3060 c0 -5 5 -10 10 -10 6 0 10 5 10 10 0 6 -4 10 -10 10 -5 0
-10 -4 -10 -10z"/>
<path d="M2340 3060 c0 -5 5 -10 10 -10 6 0 10 5 10 10 0 6 -4 10 -10 10 -5 0
-10 -4 -10 -10z"/>
<path d="M2513 3030 c-1 -11 -8 -34 -17 -50 -14 -30 -14 -30 14 -30 23 0 27 4
23 19 -3 11 2 34 10 50 15 30 15 31 -7 31 -15 0 -22 -6 -23 -20z"/>
<path d="M2753 3030 c-1 -11 -8 -34 -17 -50 -14 -30 -14 -30 14 -30 23 0 27 4
23 19 -3 11 2 34 10 50 15 30 15 31 -7 31 -15 0 -22 -6 -23 -20z"/>
<path d="M2983 3043 c15 -2 39 -2 55 0 15 2 2 4 -28 4 -30 0 -43 -2 -27 -4z"/>
<path d="M3223 3043 c15 -2 39 -2 55 0 15 2 2 4 -28 4 -30 0 -43 -2 -27 -4z"/>
<path d="M347 3022 c-23 -25 -22 -85 1 -105 25 -23 85 -22 105 1 23 25 22 85
-1 105 -25 23 -85 22 -105 -1z m91 -14 c21 -21 14 -66 -13 -84 -23 -15 -27
-15 -50 0 -17 11 -25 26 -25 44 0 35 16 52 50 52 14 0 31 -5 38 -12z"/>
<path d="M410 2985 c-10 -12 -16 -12 -26 -4 -11 9 -15 7 -20 -5 -4 -11 1 -22
12 -31 26 -20 27 -19 47 14 18 31 8 51 -13 26z"/>
<path d="M507 3022 c-23 -25 -22 -85 1 -105 25 -23 85 -22 105 1 23 25 22 85
-1 105 -25 23 -85 22 -105 -1z m91 -14 c21 -21 14 -66 -13 -84 -23 -15 -27
-15 -50 0 -17 11 -25 26 -25 44 0 35 16 52 50 52 14 0 31 -5 38 -12z"/>
<path d="M570 2985 c-10 -12 -16 -12 -26 -4 -11 9 -15 7 -20 -5 -4 -11 1 -22
12 -31 26 -20 27 -19 47 14 18 31 8 51 -13 26z"/>
<path d="M640 2965 l0 -75 160 0 160 0 0 75 0 75 -160 0 -160 0 0 -75z"/>
<path d="M2030 3030 c0 -5 5 -10 10 -10 6 0 10 5 10 10 0 6 -4 10 -10 10 -5 0
-10 -4 -10 -10z"/>
<path d="M2060 3030 c0 -5 5 -10 10 -10 6 0 10 5 10 10 0 6 -4 10 -10 10 -5 0
-10 -4 -10 -10z"/>
<path d="M2090 3030 c0 -5 5 -10 10 -10 6 0 10 5 10 10 0 6 -4 10 -10 10 -5 0
-10 -4 -10 -10z"/>
<path d="M2280 3030 c0 -5 5 -10 10 -10 6 0 10 5 10 10 0 6 -4 10 -10 10 -5 0
-10 -4 -10 -10z"/>
<path d="M2310 3030 c0 -5 5 -10 10 -10 6 0 10 5 10 10 0 6 -4 10 -10 10 -5 0
-10 -4 -10 -10z"/>
<path d="M2340 3030 c0 -5 5 -10 10 -10 6 0 10 5 10 10 0 6 -4 10 -10 10 -5 0
-10 -4 -10 -10z"/>
<path d="M2003 3015 c-19 -21 -17 -85 2 -85 11 0 15 12 15 50 0 55 0 55 -17
35z"/>
<path d="M2253 3015 c-19 -21 -17 -85 2 -85 11 0 15 12 15 50 0 55 0 55 -17
35z"/>
<path d="M2928 3017 c-15 -12 -15 -14 4 -26 11 -7 17 -8 14 -2 -3 5 2 12 11
14 17 4 17 5 0 6 -10 0 -15 6 -12 11 8 13 4 12 -17 -3z"/>
<path d="M2990 3020 c0 -5 16 -10 35 -10 19 0 35 5 35 10 0 6 -16 10 -35 10
-19 0 -35 -4 -35 -10z"/>
<path d="M3171 3016 c-9 -10 -7 -17 6 -27 9 -8 14 -9 10 -2 -4 7 0 13 10 16
17 4 17 5 0 6 -10 0 -15 6 -12 11 9 15 -1 12 -14 -4z"/>
<path d="M3230 3020 c0 -5 16 -10 35 -10 19 0 35 5 35 10 0 6 -16 10 -35 10
-19 0 -35 -4 -35 -10z"/>
<path d="M1742 3008 c-16 -16 -15 -33 3 -48 13 -11 15 -7 15 24 0 40 -1 41
-18 24z"/>
<path d="M1902 3008 c-16 -16 -15 -33 3 -48 13 -11 15 -7 15 24 0 40 -1 41
-18 24z"/>
<path d="M2030 3000 c0 -5 5 -10 10 -10 6 0 10 5 10 10 0 6 -4 10 -10 10 -5 0
-10 -4 -10 -10z"/>
<path d="M2060 3000 c0 -5 5 -10 10 -10 6 0 10 5 10 10 0 6 -4 10 -10 10 -5 0
-10 -4 -10 -10z"/>
<path d="M2090 3000 c0 -5 5 -10 10 -10 6 0 10 5 10 10 0 6 -4 10 -10 10 -5 0
-10 -4 -10 -10z"/>
<path d="M2280 3000 c0 -5 5 -10 10 -10 6 0 10 5 10 10 0 6 -4 10 -10 10 -5 0
-10 -4 -10 -10z"/>
<path d="M2310 3000 c0 -5 5 -10 10 -10 6 0 10 5 10 10 0 6 -4 10 -10 10 -5 0
-10 -4 -10 -10z"/>
<path d="M2340 3000 c0 -5 5 -10 10 -10 6 0 10 5 10 10 0 6 -4 10 -10 10 -5 0
-10 -4 -10 -10z"/>
<path d="M2990 2990 c0 -5 9 -10 20 -10 11 0 20 5 20 10 0 6 -9 10 -20 10 -11
0 -20 -4 -20 -10z"/>
<path d="M3230 2990 c0 -5 9 -10 20 -10 11 0 20 5 20 10 0 6 -9 10 -20 10 -11
0 -20 -4 -20 -10z"/>
<path d="M55 2960 c9 -16 20 -30 25 -30 5 0 16 14 25 30 l16 30 -41 0 -41 0
16 -30z"/>
<path d="M215 2960 c9 -16 20 -30 25 -30 5 0 16 14 25 30 l16 30 -41 0 -41 0
16 -30z"/>
<path d="M1638 2983 c18 -2 45 -2 60 0 15 2 0 4 -33 4 -33 0 -45 -2 -27 -4z"/>
<path d="M1798 2983 c18 -2 45 -2 60 0 15 2 0 4 -33 4 -33 0 -45 -2 -27 -4z"/>
<path d="M2030 2970 c0 -5 5 -10 10 -10 6 0 10 5 10 10 0 6 -4 10 -10 10 -5 0
-10 -4 -10 -10z"/>
<path d="M2060 2970 c0 -5 5 -10 10 -10 6 0 10 5 10 10 0 6 -4 10 -10 10 -5 0
-10 -4 -10 -10z"/>
<path d="M2090 2970 c0 -5 5 -10 10 -10 6 0 10 5 10 10 0 6 -4 10 -10 10 -5 0
-10 -4 -10 -10z"/>
<path d="M2280 2970 c0 -5 5 -10 10 -10 6 0 10 5 10 10 0 6 -4 10 -10 10 -5 0
-10 -4 -10 -10z"/>
<path d="M2310 2970 c0 -5 5 -10 10 -10 6 0 10 5 10 10 0 6 -4 10 -10 10 -5 0
-10 -4 -10 -10z"/>
<path d="M2340 2970 c0 -5 5 -10 10 -10 6 0 10 5 10 10 0 6 -4 10 -10 10 -5 0
-10 -4 -10 -10z"/>
<path d="M2983 2963 c15 -2 39 -2 55 0 15 2 2 4 -28 4 -30 0 -43 -2 -27 -4z"/>
<path d="M3223 2963 c15 -2 39 -2 55 0 15 2 2 4 -28 4 -30 0 -43 -2 -27 -4z"/>
<path d="M1658 2953 c12 -2 32 -2 45 0 12 2 2 4 -23 4 -25 0 -35 -2 -22 -4z"/>
<path d="M1818 2953 c12 -2 32 -2 45 0 12 2 2 4 -23 4 -25 0 -35 -2 -22 -4z"/>
<path d="M2030 2940 c0 -5 5 -10 10 -10 6 0 10 5 10 10 0 6 -4 10 -10 10 -5 0
-10 -4 -10 -10z"/>
<path d="M2060 2940 c0 -5 5 -10 10 -10 6 0 10 5 10 10 0 6 -4 10 -10 10 -5 0
-10 -4 -10 -10z"/>
<path d="M2090 2940 c0 -5 5 -10 10 -10 6 0 10 5 10 10 0 6 -4 10 -10 10 -5 0
-10 -4 -10 -10z"/>
<path d="M2280 2940 c0 -5 5 -10 10 -10 6 0 10 5 10 10 0 6 -4 10 -10 10 -5 0
-10 -4 -10 -10z"/>
<path d="M2310 2940 c0 -5 5 -10 10 -10 6 0 10 5 10 10 0 6 -4 10 -10 10 -5 0
-10 -4 -10 -10z"/>
<path d="M2340 2940 c0 -5 5 -10 10 -10 6 0 10 5 10 10 0 6 -4 10 -10 10 -5 0
-10 -4 -10 -10z"/>
<path d="M2983 2943 c15 -2 39 -2 55 0 15 2 2 4 -28 4 -30 0 -43 -2 -27 -4z"/>
<path d="M3223 2943 c15 -2 39 -2 55 0 15 2 2 4 -28 4 -30 0 -43 -2 -27 -4z"/>
<path d="M1658 2933 c12 -2 32 -2 45 0 12 2 2 4 -23 4 -25 0 -35 -2 -22 -4z"/>
<path d="M1818 2933 c12 -2 32 -2 45 0 12 2 2 4 -23 4 -25 0 -35 -2 -22 -4z"/>
<path d="M347 2852 c-23 -25 -22 -85 1 -105 25 -23 85 -22 105 1 23 25 22 85
-1 105 -25 23 -85 22 -105 -1z m91 -14 c21 -21 14 -66 -13 -84 -23 -15 -27
-15 -50 0 -17 11 -25 26 -25 44 0 35 16 52 50 52 14 0 31 -5 38 -12z"/>
<path d="M370 2800 c0 -27 3 -30 30 -30 27 0 30 3 30 30 0 27 -3 30 -30 30
-27 0 -30 -3 -30 -30z"/>
<path d="M507 2852 c-23 -25 -22 -85 1 -105 25 -23 85 -22 105 1 23 25 22 85
-1 105 -25 23 -85 22 -105 -1z m91 -14 c21 -21 14 -66 -13 -84 -23 -15 -27
-15 -50 0 -17 11 -25 26 -25 44 0 35 16 52 50 52 14 0 31 -5 38 -12z"/>
<path d="M530 2800 c0 -27 3 -30 30 -30 27 0 30 3 30 30 0 27 -3 30 -30 30
-27 0 -30 -3 -30 -30z"/>
<path d="M660 2800 c0 -40 4 -70 10 -70 6 0 10 30 10 70 0 40 -4 70 -10 70 -6
0 -10 -30 -10 -70z"/>
<path d="M710 2800 c0 -40 4 -70 10 -70 6 0 10 30 10 70 0 40 -4 70 -10 70 -6
0 -10 -30 -10 -70z"/>
<path d="M760 2800 c0 -40 4 -70 10 -70 6 0 10 30 10 70 0 40 -4 70 -10 70 -6
0 -10 -30 -10 -70z"/>
<path d="M820 2800 c0 -40 4 -70 10 -70 6 0 10 30 10 70 0 40 -4 70 -10 70 -6
0 -10 -30 -10 -70z"/>
<path d="M870 2800 c0 -40 4 -70 10 -70 6 0 10 30 10 70 0 40 -4 70 -10 70 -6
0 -10 -30 -10 -70z"/>
<path d="M920 2800 c0 -40 4 -70 10 -70 6 0 10 30 10 70 0 40 -4 70 -10 70 -6
0 -10 -30 -10 -70z"/>
<path d="M78 2824 c-36 -19 -35 -30 2 -49 l30 -16 0 41 c0 22 -1 40 -2 40 -2
-1 -15 -8 -30 -16z"/>
<path d="M238 2824 c-36 -19 -35 -30 2 -49 l30 -16 0 41 c0 22 -1 40 -2 40 -2
-1 -15 -8 -30 -16z"/>
<path d="M1658 2833 c12 -2 32 -2 45 0 12 2 2 4 -23 4 -25 0 -35 -2 -22 -4z"/>
<path d="M1742 2828 c-16 -16 -15 -33 3 -48 13 -11 15 -7 15 24 0 40 -1 41
-18 24z"/>
<path d="M1818 2833 c12 -2 32 -2 45 0 12 2 2 4 -23 4 -25 0 -35 -2 -22 -4z"/>
<path d="M1902 2828 c-16 -16 -15 -33 3 -48 13 -11 15 -7 15 24 0 40 -1 41
-18 24z"/>
<path d="M1970 2820 c0 -5 5 -10 10 -10 6 0 10 5 10 10 0 6 -4 10 -10 10 -5 0
-10 -4 -10 -10z"/>
<path d="M2000 2820 c0 -5 5 -10 10 -10 6 0 10 5 10 10 0 6 -4 10 -10 10 -5 0
-10 -4 -10 -10z"/>
<path d="M2030 2820 c0 -5 5 -10 10 -10 6 0 10 5 10 10 0 6 -4 10 -10 10 -5 0
-10 -4 -10 -10z"/>
<path d="M2074 2816 c-8 -8 -7 -15 0 -22 8 -8 15 -7 22 0 8 8 7 15 0 22 -8 8
-15 7 -22 0z"/>
<path d="M2220 2820 c0 -5 5 -10 10 -10 6 0 10 5 10 10 0 6 -4 10 -10 10 -5 0
-10 -4 -10 -10z"/>
<path d="M2250 2820 c0 -5 5 -10 10 -10 6 0 10 5 10 10 0 6 -4 10 -10 10 -5 0
-10 -4 -10 -10z"/>
<path d="M2280 2820 c0 -5 5 -10 10 -10 6 0 10 5 10 10 0 6 -4 10 -10 10 -5 0
-10 -4 -10 -10z"/>
<path d="M2324 2816 c-8 -8 -7 -15 0 -22 8 -8 15 -7 22 0 8 8 7 15 0 22 -8 8
-15 7 -22 0z"/>
<path d="M1638 2803 c18 -2 45 -2 60 0 15 2 0 4 -33 4 -33 0 -45 -2 -27 -4z"/>
<path d="M1798 2803 c18 -2 45 -2 60 0 15 2 0 4 -33 4 -33 0 -45 -2 -27 -4z"/>
<path d="M2480 2763 c5 -47 6 -48 40 -48 34 0 35 2 38 40 2 22 9 43 15 47 7 5
2 8 -13 8 -23 0 -25 -4 -25 -42 0 -32 -4 -43 -15 -43 -20 0 -27 65 -8 76 9 6
5 9 -12 9 -25 0 -26 -2 -20 -47z"/>
<path d="M2720 2763 c5 -47 6 -48 40 -48 34 0 35 2 38 40 2 22 9 43 15 47 7 5
2 8 -13 8 -23 0 -25 -4 -25 -42 0 -32 -4 -43 -15 -43 -20 0 -27 65 -8 76 9 6
5 9 -12 9 -25 0 -26 -2 -20 -47z"/>
<path d="M1970 2790 c0 -5 5 -10 10 -10 6 0 10 5 10 10 0 6 -4 10 -10 10 -5 0
-10 -4 -10 -10z"/>
<path d="M2000 2790 c0 -5 5 -10 10 -10 6 0 10 5 10 10 0 6 -4 10 -10 10 -5 0
-10 -4 -10 -10z"/>
<path d="M2030 2790 c0 -5 5 -10 10 -10 6 0 10 5 10 10 0 6 -4 10 -10 10 -5 0
-10 -4 -10 -10z"/>
<path d="M2220 2790 c0 -5 5 -10 10 -10 6 0 10 5 10 10 0 6 -4 10 -10 10 -5 0
-10 -4 -10 -10z"/>
<path d="M2250 2790 c0 -5 5 -10 10 -10 6 0 10 5 10 10 0 6 -4 10 -10 10 -5 0
-10 -4 -10 -10z"/>
<path d="M2280 2790 c0 -5 5 -10 10 -10 6 0 10 5 10 10 0 6 -4 10 -10 10 -5 0
-10 -4 -10 -10z"/>
<path d="M2060 2741 c0 -39 4 -51 15 -51 11 0 15 11 15 36 0 19 -7 42 -15 50
-13 14 -15 10 -15 -35z"/>
<path d="M2310 2741 c0 -39 4 -51 15 -51 11 0 15 11 15 36 0 19 -7 42 -15 50
-13 14 -15 10 -15 -35z"/>
<path d="M2924 2776 c-3 -8 -4 -25 -2 -38 3 -22 7 -23 78 -23 l75 0 0 35 0 35
-73 3 c-56 2 -74 0 -78 -12z m81 -16 c28 15 54 2 40 -20 -6 -9 -9 -9 -16 1 -6
11 -12 11 -34 -1 -28 -15 -54 -2 -40 20 6 9 9 9 16 -1 6 -11 12 -11 34 1z"/>
<path d="M3164 2776 c-3 -8 -4 -25 -2 -38 3 -22 7 -23 78 -23 l75 0 0 35 0 35
-73 3 c-56 2 -74 0 -78 -12z m81 -16 c28 15 54 2 40 -20 -6 -9 -9 -9 -16 1 -6
11 -12 11 -34 -1 -28 -15 -54 -2 -40 20 6 9 9 9 16 -1 6 -11 12 -11 34 1z"/>
<path d="M1658 2773 c12 -2 32 -2 45 0 12 2 2 4 -23 4 -25 0 -35 -2 -22 -4z"/>
<path d="M1818 2773 c12 -2 32 -2 45 0 12 2 2 4 -23 4 -25 0 -35 -2 -22 -4z"/>
<path d="M1970 2760 c0 -5 5 -10 10 -10 6 0 10 5 10 10 0 6 -4 10 -10 10 -5 0
-10 -4 -10 -10z"/>
<path d="M2000 2760 c0 -5 5 -10 10 -10 6 0 10 5 10 10 0 6 -4 10 -10 10 -5 0
-10 -4 -10 -10z"/>
<path d="M2030 2760 c0 -5 5 -10 10 -10 6 0 10 5 10 10 0 6 -4 10 -10 10 -5 0
-10 -4 -10 -10z"/>
<path d="M2220 2760 c0 -5 5 -10 10 -10 6 0 10 5 10 10 0 6 -4 10 -10 10 -5 0
-10 -4 -10 -10z"/>
<path d="M2250 2760 c0 -5 5 -10 10 -10 6 0 10 5 10 10 0 6 -4 10 -10 10 -5 0
-10 -4 -10 -10z"/>
<path d="M2280 2760 c0 -5 5 -10 10 -10 6 0 10 5 10 10 0 6 -4 10 -10 10 -5 0
-10 -4 -10 -10z"/>
<path d="M1970 2730 c0 -5 5 -10 10 -10 6 0 10 5 10 10 0 6 -4 10 -10 10 -5 0
-10 -4 -10 -10z"/>
<path d="M2000 2730 c0 -5 5 -10 10 -10 6 0 10 5 10 10 0 6 -4 10 -10 10 -5 0
-10 -4 -10 -10z"/>
<path d="M2030 2730 c0 -5 5 -10 10 -10 6 0 10 5 10 10 0 6 -4 10 -10 10 -5 0
-10 -4 -10 -10z"/>
<path d="M2220 2730 c0 -5 5 -10 10 -10 6 0 10 5 10 10 0 6 -4 10 -10 10 -5 0
-10 -4 -10 -10z"/>
<path d="M2250 2730 c0 -5 5 -10 10 -10 6 0 10 5 10 10 0 6 -4 10 -10 10 -5 0
-10 -4 -10 -10z"/>
<path d="M2280 2730 c0 -5 5 -10 10 -10 6 0 10 5 10 10 0 6 -4 10 -10 10 -5 0
-10 -4 -10 -10z"/>
<path d="M347 2692 c-23 -25 -22 -85 1 -105 25 -23 85 -22 105 1 23 25 22 85
-1 105 -25 23 -85 22 -105 -1z m91 -14 c21 -21 14 -66 -13 -84 -23 -15 -27
-15 -50 0 -17 11 -25 26 -25 44 0 35 16 52 50 52 14 0 31 -5 38 -12z"/>
<path d="M390 2665 c0 -8 -7 -15 -15 -15 -8 0 -15 -4 -15 -10 0 -5 7 -10 15
-10 8 0 15 -7 15 -15 0 -8 5 -15 10 -15 6 0 10 7 10 15 0 8 7 15 15 15 8 0 15
5 15 10 0 6 -7 10 -15 10 -8 0 -15 7 -15 15 0 8 -4 15 -10 15 -5 0 -10 -7 -10
-15z"/>
<path d="M507 2692 c-23 -25 -22 -85 1 -105 25 -23 85 -22 105 1 23 25 22 85
-1 105 -25 23 -85 22 -105 -1z m91 -14 c21 -21 14 -66 -13 -84 -23 -15 -27
-15 -50 0 -17 11 -25 26 -25 44 0 35 16 52 50 52 14 0 31 -5 38 -12z"/>
<path d="M550 2665 c0 -8 -7 -15 -15 -15 -8 0 -15 -4 -15 -10 0 -5 7 -10 15
-10 8 0 15 -7 15 -15 0 -8 5 -15 10 -15 6 0 10 7 10 15 0 8 7 15 15 15 8 0 15
5 15 10 0 6 -7 10 -15 10 -8 0 -15 7 -15 15 0 8 -4 15 -10 15 -5 0 -10 -7 -10
-15z"/>
<path d="M1970 2700 c0 -5 5 -10 10 -10 6 0 10 5 10 10 0 6 -4 10 -10 10 -5 0
-10 -4 -10 -10z"/>
<path d="M2000 2700 c0 -5 5 -10 10 -10 6 0 10 5 10 10 0 6 -4 10 -10 10 -5 0
-10 -4 -10 -10z"/>
<path d="M2030 2700 c0 -5 5 -10 10 -10 6 0 10 5 10 10 0 6 -4 10 -10 10 -5 0
-10 -4 -10 -10z"/>
<path d="M2220 2700 c0 -5 5 -10 10 -10 6 0 10 5 10 10 0 6 -4 10 -10 10 -5 0
-10 -4 -10 -10z"/>
<path d="M2250 2700 c0 -5 5 -10 10 -10 6 0 10 5 10 10 0 6 -4 10 -10 10 -5 0
-10 -4 -10 -10z"/>
<path d="M2280 2700 c0 -5 5 -10 10 -10 6 0 10 5 10 10 0 6 -4 10 -10 10 -5 0
-10 -4 -10 -10z"/>
<path d="M670 2688 c0 -6 7 -20 17 -30 15 -17 15 -19 0 -36 -10 -10 -17 -24
-17 -30 0 -7 -7 -12 -15 -12 -13 0 -15 -34 -15 -245 l0 -245 160 0 160 0 0
245 c0 238 -1 245 -20 245 -11 0 -20 5 -20 10 0 6 -12 10 -27 10 -25 0 -26 0
-8 20 17 19 17 21 0 40 -18 20 -17 20 8 20 15 0 27 5 27 10 0 6 -20 10 -45 10
-49 0 -56 -11 -28 -42 15 -17 15 -19 0 -36 -10 -10 -17 -24 -17 -30 0 -7 -15
-12 -35 -12 -19 0 -35 5 -35 10 0 6 -12 10 -27 10 -25 0 -26 0 -8 20 17 19 17
21 0 40 -18 20 -17 20 8 20 15 0 27 5 27 10 0 6 -20 10 -45 10 -28 0 -45 -4
-45 -12z"/>
<path d="M2493 2693 c15 -2 39 -2 55 0 15 2 2 4 -28 4 -30 0 -43 -2 -27 -4z"/>
<path d="M2733 2693 c15 -2 39 -2 55 0 15 2 2 4 -28 4 -30 0 -43 -2 -27 -4z"/>
<path d="M52 2663 c16 -4 17 -7 3 -34 l-16 -29 41 0 41 0 -16 29 c-14 27 -13
30 3 34 9 3 -3 5 -28 5 -25 0 -37 -2 -28 -5z"/>
<path d="M212 2663 c16 -4 17 -7 3 -34 l-16 -29 41 0 41 0 -16 29 c-14 27 -13
30 3 34 9 3 -3 5 -28 5 -25 0 -37 -2 -28 -5z"/>
<path d="M1658 2663 c12 -2 32 -2 45 0 12 2 2 4 -23 4 -25 0 -35 -2 -22 -4z"/>
<path d="M1818 2663 c12 -2 32 -2 45 0 12 2 2 4 -23 4 -25 0 -35 -2 -22 -4z"/>
<path d="M1658 2643 c12 -2 32 -2 45 0 12 2 2 4 -23 4 -25 0 -35 -2 -22 -4z"/>
<path d="M1742 2638 c-16 -16 -15 -33 3 -48 13 -11 15 -7 15 24 0 40 -1 41
-18 24z"/>
<path d="M1818 2643 c12 -2 32 -2 45 0 12 2 2 4 -23 4 -25 0 -35 -2 -22 -4z"/>
<path d="M1902 2638 c-16 -16 -15 -33 3 -48 13 -11 15 -7 15 24 0 40 -1 41
-18 24z"/>
<path d="M1638 2613 c18 -2 45 -2 60 0 15 2 0 4 -33 4 -33 0 -45 -2 -27 -4z"/>
<path d="M1798 2613 c18 -2 45 -2 60 0 15 2 0 4 -33 4 -33 0 -45 -2 -27 -4z"/>
<path d="M1984 2576 c-8 -8 -7 -15 0 -22 8 -8 15 -7 22 0 8 8 7 15 0 22 -8 8
-15 7 -22 0z"/>
<path d="M2234 2576 c-8 -8 -7 -15 0 -22 8 -8 15 -7 22 0 8 8 7 15 0 22 -8 8
-15 7 -22 0z"/>
<path d="M2022 2555 c-11 -13 -6 -15 38 -15 38 0 50 4 50 15 0 20 -70 20 -88
0z"/>
<path d="M2272 2555 c-11 -13 -6 -15 38 -15 38 0 50 4 50 15 0 20 -70 20 -88
0z"/>
<path d="M3020 2561 c0 -5 -21 -11 -47 -13 -48 -3 -48 -3 -48 -38 0 -31 3 -35
28 -38 15 -2 27 1 27 7 0 5 21 11 48 13 47 3 47 3 47 38 0 31 -3 35 -27 38
-16 2 -28 -1 -28 -7z m25 -32 c0 -8 -11 -16 -25 -17 -14 -2 -31 -9 -38 -15 -9
-7 -16 -7 -24 1 -15 15 -1 32 27 32 13 0 27 5 30 11 9 14 30 6 30 -12z"/>
<path d="M3260 2561 c0 -5 -21 -11 -47 -13 -48 -3 -48 -3 -48 -38 0 -31 3 -35
28 -38 15 -2 27 1 27 7 0 5 21 11 48 13 47 3 47 3 47 38 0 31 -3 35 -27 38
-16 2 -28 -1 -28 -7z m25 -32 c0 -8 -11 -16 -25 -17 -14 -2 -31 -9 -38 -15 -9
-7 -16 -7 -24 1 -15 15 -1 32 27 32 13 0 27 5 30 11 9 14 30 6 30 -12z"/>
<path d="M2496 2538 c2 -13 2 -17 -2 -10 -8 16 -41 15 -47 -1 -10 -28 9 -37
71 -36 39 1 66 7 73 15 9 11 7 14 -7 14 -16 0 -17 2 -4 10 11 8 6 10 -19 8
-20 -2 -36 3 -39 10 -7 22 -30 13 -26 -10z"/>
<path d="M2736 2538 c2 -13 2 -17 -2 -10 -8 16 -41 15 -47 -1 -10 -28 9 -37
71 -36 39 1 66 7 73 15 9 11 7 14 -7 14 -16 0 -17 2 -4 10 11 8 6 10 -19 8
-20 -2 -36 3 -39 10 -7 22 -30 13 -26 -10z"/>
<path d="M347 2532 c-23 -25 -22 -85 1 -105 25 -23 85 -22 105 1 23 25 22 85
-1 105 -25 23 -85 22 -105 -1z m91 -14 c21 -21 14 -66 -13 -84 -23 -15 -27
-15 -50 0 -17 11 -25 26 -25 44 0 35 16 52 50 52 14 0 31 -5 38 -12z"/>
<path d="M373 2482 c10 -10 17 -24 17 -30 0 -7 5 -12 10 -12 6 0 10 5 10 12 0
6 7 20 17 30 15 17 14 18 -27 18 -41 0 -42 -1 -27 -18z"/>
<path d="M507 2532 c-23 -25 -22 -85 1 -105 25 -23 85 -22 105 1 23 25 22 85
-1 105 -25 23 -85 22 -105 -1z m91 -14 c21 -21 14 -66 -13 -84 -23 -15 -27
-15 -50 0 -17 11 -25 26 -25 44 0 35 16 52 50 52 14 0 31 -5 38 -12z"/>
<path d="M533 2482 c10 -10 17 -24 17 -30 0 -7 5 -12 10 -12 6 0 10 5 10 12 0
6 7 20 17 30 15 17 14 18 -27 18 -41 0 -42 -1 -27 -18z"/>
<path d="M1970 2520 c0 -5 5 -10 10 -10 6 0 10 5 10 10 0 6 -4 10 -10 10 -5 0
-10 -4 -10 -10z"/>
<path d="M2000 2520 c0 -5 5 -10 10 -10 6 0 10 5 10 10 0 6 -4 10 -10 10 -5 0
-10 -4 -10 -10z"/>
<path d="M2030 2520 c0 -5 5 -10 10 -10 6 0 10 5 10 10 0 6 -4 10 -10 10 -5 0
-10 -4 -10 -10z"/>
<path d="M2060 2520 c0 -5 5 -10 10 -10 6 0 10 5 10 10 0 6 -4 10 -10 10 -5 0
-10 -4 -10 -10z"/>
<path d="M2090 2520 c0 -5 5 -10 10 -10 6 0 10 5 10 10 0 6 -4 10 -10 10 -5 0
-10 -4 -10 -10z"/>
<path d="M2220 2520 c0 -5 5 -10 10 -10 6 0 10 5 10 10 0 6 -4 10 -10 10 -5 0
-10 -4 -10 -10z"/>
<path d="M2250 2520 c0 -5 5 -10 10 -10 6 0 10 5 10 10 0 6 -4 10 -10 10 -5 0
-10 -4 -10 -10z"/>
<path d="M2280 2520 c0 -5 5 -10 10 -10 6 0 10 5 10 10 0 6 -4 10 -10 10 -5 0
-10 -4 -10 -10z"/>
<path d="M2310 2520 c0 -5 5 -10 10 -10 6 0 10 5 10 10 0 6 -4 10 -10 10 -5 0
-10 -4 -10 -10z"/>
<path d="M2340 2520 c0 -5 5 -10 10 -10 6 0 10 5 10 10 0 6 -4 10 -10 10 -5 0
-10 -4 -10 -10z"/>
<path d="M40 2480 l0 -41 29 16 c27 14 30 13 34 -3 3 -9 5 3 5 28 0 25 -2 37
-5 28 -4 -16 -7 -17 -34 -3 l-29 16 0 -41z"/>
<path d="M200 2480 l0 -41 29 16 c27 14 30 13 34 -3 3 -9 5 3 5 28 0 25 -2 37
-5 28 -4 -16 -7 -17 -34 -3 l-29 16 0 -41z"/>
<path d="M1650 2501 c0 -5 6 -12 13 -14 9 -4 8 -8 -3 -16 -8 -5 -11 -13 -7
-18 5 -4 12 -1 18 7 8 13 10 13 18 0 6 -8 13 -11 18 -7 4 5 1 12 -7 18 -13 8
-13 10 0 18 8 6 11 13 7 18 -5 4 -13 1 -18 -7 -8 -11 -12 -12 -16 -2 -5 14
-23 16 -23 3z"/>
<path d="M1810 2501 c0 -5 6 -12 13 -14 9 -4 8 -8 -3 -16 -8 -5 -11 -13 -7
-18 5 -4 12 -1 18 7 8 13 10 13 18 0 6 -8 13 -11 18 -7 4 5 1 12 -7 18 -13 8
-13 10 0 18 8 6 11 13 7 18 -5 4 -13 1 -18 -7 -8 -11 -12 -12 -16 -2 -5 14
-23 16 -23 3z"/>
<path d="M1970 2490 c0 -5 5 -10 10 -10 6 0 10 5 10 10 0 6 -4 10 -10 10 -5 0
-10 -4 -10 -10z"/>
<path d="M2000 2490 c0 -5 5 -10 10 -10 6 0 10 5 10 10 0 6 -4 10 -10 10 -5 0
-10 -4 -10 -10z"/>
<path d="M2030 2490 c0 -5 5 -10 10 -10 6 0 10 5 10 10 0 6 -4 10 -10 10 -5 0
-10 -4 -10 -10z"/>
<path d="M2060 2490 c0 -5 5 -10 10 -10 6 0 10 5 10 10 0 6 -4 10 -10 10 -5 0
-10 -4 -10 -10z"/>
<path d="M2090 2490 c0 -5 5 -10 10 -10 6 0 10 5 10 10 0 6 -4 10 -10 10 -5 0
-10 -4 -10 -10z"/>
<path d="M2220 2490 c0 -5 5 -10 10 -10 6 0 10 5 10 10 0 6 -4 10 -10 10 -5 0
-10 -4 -10 -10z"/>
<path d="M2250 2490 c0 -5 5 -10 10 -10 6 0 10 5 10 10 0 6 -4 10 -10 10 -5 0
-10 -4 -10 -10z"/>
<path d="M2280 2490 c0 -5 5 -10 10 -10 6 0 10 5 10 10 0 6 -4 10 -10 10 -5 0
-10 -4 -10 -10z"/>
<path d="M2310 2490 c0 -5 5 -10 10 -10 6 0 10 5 10 10 0 6 -4 10 -10 10 -5 0
-10 -4 -10 -10z"/>
<path d="M2340 2490 c0 -5 5 -10 10 -10 6 0 10 5 10 10 0 6 -4 10 -10 10 -5 0
-10 -4 -10 -10z"/>
<path d="M1970 2460 c0 -5 5 -10 10 -10 6 0 10 5 10 10 0 6 -4 10 -10 10 -5 0
-10 -4 -10 -10z"/>
<path d="M2000 2460 c0 -5 5 -10 10 -10 6 0 10 5 10 10 0 6 -4 10 -10 10 -5 0
-10 -4 -10 -10z"/>
<path d="M2030 2460 c0 -5 5 -10 10 -10 6 0 10 5 10 10 0 6 -4 10 -10 10 -5 0
-10 -4 -10 -10z"/>
<path d="M2060 2460 c0 -5 5 -10 10 -10 6 0 10 5 10 10 0 6 -4 10 -10 10 -5 0
-10 -4 -10 -10z"/>
<path d="M2090 2460 c0 -5 5 -10 10 -10 6 0 10 5 10 10 0 6 -4 10 -10 10 -5 0
-10 -4 -10 -10z"/>
<path d="M2220 2460 c0 -5 5 -10 10 -10 6 0 10 5 10 10 0 6 -4 10 -10 10 -5 0
-10 -4 -10 -10z"/>
<path d="M2250 2460 c0 -5 5 -10 10 -10 6 0 10 5 10 10 0 6 -4 10 -10 10 -5 0
-10 -4 -10 -10z"/>
<path d="M2280 2460 c0 -5 5 -10 10 -10 6 0 10 5 10 10 0 6 -4 10 -10 10 -5 0
-10 -4 -10 -10z"/>
<path d="M2310 2460 c0 -5 5 -10 10 -10 6 0 10 5 10 10 0 6 -4 10 -10 10 -5 0
-10 -4 -10 -10z"/>
<path d="M2340 2460 c0 -5 5 -10 10 -10 6 0 10 5 10 10 0 6 -4 10 -10 10 -5 0
-10 -4 -10 -10z"/>
<path d="M347 2372 c-23 -25 -22 -85 1 -105 25 -23 85 -22 105 1 23 25 22 85
-1 105 -25 23 -85 22 -105 -1z m91 -14 c21 -21 14 -66 -13 -84 -23 -15 -27
-15 -50 0 -17 11 -25 26 -25 44 0 35 16 52 50 52 14 0 31 -5 38 -12z"/>
<path d="M370 2340 c-7 -5 -6 -11 5 -20 8 -7 15 -19 15 -26 0 -8 5 -14 10 -14
15 0 12 21 -7 44 -13 16 -10 14 12 -4 17 -14 27 -21 23 -16 -4 5 -3 15 2 21 8
10 3 14 -20 17 -16 2 -34 1 -40 -2z"/>
<path d="M507 2372 c-23 -25 -22 -85 1 -105 25 -23 85 -22 105 1 23 25 22 85
-1 105 -25 23 -85 22 -105 -1z m91 -14 c21 -21 14 -66 -13 -84 -23 -15 -27
-15 -50 0 -17 11 -25 26 -25 44 0 35 16 52 50 52 14 0 31 -5 38 -12z"/>
<path d="M530 2340 c-7 -5 -6 -11 5 -20 8 -7 15 -19 15 -26 0 -8 5 -14 10 -14
15 0 12 21 -7 44 -13 16 -10 14 12 -4 17 -14 27 -21 23 -16 -4 5 -3 15 2 21 8
10 3 14 -20 17 -16 2 -34 1 -40 -2z"/>
<path d="M55 2331 c14 -27 13 -30 -3 -34 -9 -3 3 -5 28 -5 25 0 37 2 28 5 -16
4 -17 7 -3 34 l16 29 -41 0 -41 0 16 -29z"/>
<path d="M215 2331 c14 -27 13 -30 -3 -34 -9 -3 3 -5 28 -5 25 0 37 2 28 5
-16 4 -17 7 -3 34 l16 29 -41 0 -41 0 16 -29z"/>
<path d="M1692 2335 c-12 -15 -23 -21 -27 -15 -9 14 -25 13 -25 -3 0 -7 9 -18
19 -24 17 -11 23 -9 40 14 19 23 28 53 17 53 -3 0 -14 -11 -24 -25z"/>
<path d="M1852 2335 c-12 -15 -23 -21 -27 -15 -9 14 -25 13 -25 -3 0 -7 9 -18
19 -24 17 -11 23 -9 40 14 19 23 28 53 17 53 -3 0 -14 -11 -24 -25z"/>
<path d="M1970 2340 c0 -5 5 -10 10 -10 6 0 10 5 10 10 0 6 -4 10 -10 10 -5 0
-10 -4 -10 -10z"/>
<path d="M2000 2340 c0 -5 5 -10 10 -10 6 0 10 5 10 10 0 6 -4 10 -10 10 -5 0
-10 -4 -10 -10z"/>
<path d="M2030 2340 c0 -5 5 -10 10 -10 6 0 10 5 10 10 0 6 -4 10 -10 10 -5 0
-10 -4 -10 -10z"/>
<path d="M2060 2340 c0 -5 5 -10 10 -10 6 0 10 5 10 10 0 6 -4 10 -10 10 -5 0
-10 -4 -10 -10z"/>
<path d="M2090 2340 c0 -5 5 -10 10 -10 6 0 10 5 10 10 0 6 -4 10 -10 10 -5 0
-10 -4 -10 -10z"/>
<path d="M2220 2340 c0 -5 5 -10 10 -10 6 0 10 5 10 10 0 6 -4 10 -10 10 -5 0
-10 -4 -10 -10z"/>
<path d="M2250 2340 c0 -5 5 -10 10 -10 6 0 10 5 10 10 0 6 -4 10 -10 10 -5 0
-10 -4 -10 -10z"/>
<path d="M2280 2340 c0 -5 5 -10 10 -10 6 0 10 5 10 10 0 6 -4 10 -10 10 -5 0
-10 -4 -10 -10z"/>
<path d="M2310 2340 c0 -5 5 -10 10 -10 6 0 10 5 10 10 0 6 -4 10 -10 10 -5 0
-10 -4 -10 -10z"/>
<path d="M2340 2340 c0 -5 5 -10 10 -10 6 0 10 5 10 10 0 6 -4 10 -10 10 -5 0
-10 -4 -10 -10z"/>
<path d="M2930 2280 l0 -60 70 0 70 0 0 60 0 60 -70 0 -70 0 0 -60z m128 18
c3 -22 0 -26 -17 -21 -13 3 -21 1 -21 -7 0 -9 -7 -7 -21 6 -17 15 -23 16 -40
6 -17 -11 -19 -9 -19 11 0 34 8 38 65 35 46 -3 50 -5 53 -30z"/>
<path d="M3000 2305 c0 -8 7 -15 15 -15 8 0 15 7 15 15 0 8 -7 15 -15 15 -8 0
-15 -7 -15 -15z"/>
<path d="M3170 2280 l0 -60 70 0 70 0 0 60 0 60 -70 0 -70 0 0 -60z m128 18
c3 -22 0 -26 -17 -21 -13 3 -21 1 -21 -7 0 -9 -7 -7 -21 6 -17 15 -23 16 -40
6 -17 -11 -19 -9 -19 11 0 34 8 38 65 35 46 -3 50 -5 53 -30z"/>
<path d="M3240 2305 c0 -8 7 -15 15 -15 8 0 15 7 15 15 0 8 -7 15 -15 15 -8 0
-15 -7 -15 -15z"/>
<path d="M2494 2288 c-10 -24 -20 -46 -22 -50 -2 -5 6 -8 17 -8 15 0 19 4 14
16 -4 12 -2 15 8 12 8 -3 13 -11 12 -17 -2 -6 10 -11 25 -11 l29 0 -25 50
c-13 28 -28 50 -32 50 -4 0 -16 -19 -26 -42z"/>
<path d="M2734 2288 c-10 -24 -20 -46 -22 -50 -2 -5 6 -8 17 -8 15 0 19 4 14
16 -4 12 -2 15 8 12 8 -3 13 -11 12 -17 -2 -6 10 -11 25 -11 l29 0 -25 50
c-13 28 -28 50 -32 50 -4 0 -16 -19 -26 -42z"/>
<path d="M1970 2310 c0 -5 5 -10 10 -10 6 0 10 5 10 10 0 6 -4 10 -10 10 -5 0
-10 -4 -10 -10z"/>
<path d="M2000 2310 c0 -5 5 -10 10 -10 6 0 10 5 10 10 0 6 -4 10 -10 10 -5 0
-10 -4 -10 -10z"/>
<path d="M2030 2310 c0 -5 5 -10 10 -10 6 0 10 5 10 10 0 6 -4 10 -10 10 -5 0
-10 -4 -10 -10z"/>
<path d="M2060 2310 c0 -5 5 -10 10 -10 6 0 10 5 10 10 0 6 -4 10 -10 10 -5 0
-10 -4 -10 -10z"/>
<path d="M2090 2310 c0 -5 5 -10 10 -10 6 0 10 5 10 10 0 6 -4 10 -10 10 -5 0
-10 -4 -10 -10z"/>
<path d="M2220 2310 c0 -5 5 -10 10 -10 6 0 10 5 10 10 0 6 -4 10 -10 10 -5 0
-10 -4 -10 -10z"/>
<path d="M2250 2310 c0 -5 5 -10 10 -10 6 0 10 5 10 10 0 6 -4 10 -10 10 -5 0
-10 -4 -10 -10z"/>
<path d="M2280 2310 c0 -5 5 -10 10 -10 6 0 10 5 10 10 0 6 -4 10 -10 10 -5 0
-10 -4 -10 -10z"/>
<path d="M2310 2310 c0 -5 5 -10 10 -10 6 0 10 5 10 10 0 6 -4 10 -10 10 -5 0
-10 -4 -10 -10z"/>
<path d="M2340 2310 c0 -5 5 -10 10 -10 6 0 10 5 10 10 0 6 -4 10 -10 10 -5 0
-10 -4 -10 -10z"/>
<path d="M1970 2280 c0 -5 5 -10 10 -10 6 0 10 5 10 10 0 6 -4 10 -10 10 -5 0
-10 -4 -10 -10z"/>
<path d="M2000 2280 c0 -5 5 -10 10 -10 6 0 10 5 10 10 0 6 -4 10 -10 10 -5 0
-10 -4 -10 -10z"/>
<path d="M2030 2280 c0 -5 5 -10 10 -10 6 0 10 5 10 10 0 6 -4 10 -10 10 -5 0
-10 -4 -10 -10z"/>
<path d="M2060 2280 c0 -5 5 -10 10 -10 6 0 10 5 10 10 0 6 -4 10 -10 10 -5 0
-10 -4 -10 -10z"/>
<path d="M2090 2280 c0 -5 5 -10 10 -10 6 0 10 5 10 10 0 6 -4 10 -10 10 -5 0
-10 -4 -10 -10z"/>
<path d="M2220 2280 c0 -5 5 -10 10 -10 6 0 10 5 10 10 0 6 -4 10 -10 10 -5 0
-10 -4 -10 -10z"/>
<path d="M2250 2280 c0 -5 5 -10 10 -10 6 0 10 5 10 10 0 6 -4 10 -10 10 -5 0
-10 -4 -10 -10z"/>
<path d="M2280 2280 c0 -5 5 -10 10 -10 6 0 10 5 10 10 0 6 -4 10 -10 10 -5 0
-10 -4 -10 -10z"/>
<path d="M2310 2280 c0 -5 5 -10 10 -10 6 0 10 5 10 10 0 6 -4 10 -10 10 -5 0
-10 -4 -10 -10z"/>
<path d="M2340 2280 c0 -5 5 -10 10 -10 6 0 10 5 10 10 0 6 -4 10 -10 10 -5 0
-10 -4 -10 -10z"/>
<path d="M1984 2246 c-8 -8 -7 -15 0 -22 8 -8 15 -7 22 0 8 8 7 15 0 22 -8 8
-15 7 -22 0z"/>
<path d="M2024 2245 c8 -8 31 -15 50 -15 25 0 36 4 36 15 0 11 -12 15 -51 15
-45 0 -49 -2 -35 -15z"/>
<path d="M2234 2246 c-8 -8 -7 -15 0 -22 8 -8 15 -7 22 0 8 8 7 15 0 22 -8 8
-15 7 -22 0z"/>
<path d="M2274 2245 c8 -8 31 -15 50 -15 25 0 36 4 36 15 0 11 -12 15 -51 15
-45 0 -49 -2 -35 -15z"/>
<path d="M373 2206 c-41 -39 -25 -96 27 -96 30 0 50 17 50 42 0 25 -16 23 -23
-3 -8 -31 -52 -22 -52 11 0 21 5 25 28 24 31 -1 37 20 10 34 -13 7 -24 4 -40
-12z"/>
<path d="M533 2206 c-41 -39 -25 -96 27 -96 30 0 50 17 50 42 0 25 -16 23 -23
-3 -8 -31 -52 -22 -52 11 0 21 5 25 28 24 31 -1 37 20 10 34 -13 7 -24 4 -40
-12z"/>
<path d="M1215 2200 c-3 -5 -12 -7 -19 -4 -16 6 -29 -46 -16 -60 5 -5 6 -15 2
-24 -4 -11 -1 -14 10 -10 9 4 21 1 27 -5 8 -8 14 -8 22 0 6 6 18 9 27 5 11 -4
14 -1 10 10 -4 9 -3 19 2 24 13 14 0 66 -16 60 -7 -3 -16 -1 -19 4 -4 6 -10
10 -15 10 -5 0 -11 -4 -15 -10z m25 -50 c0 -5 -4 -10 -10 -10 -5 0 -10 5 -10
10 0 6 5 10 10 10 6 0 10 -4 10 -10z"/>
<path d="M1475 2200 c-3 -5 -12 -7 -19 -4 -16 6 -29 -46 -16 -60 5 -5 6 -15 2
-24 -4 -11 -1 -14 10 -10 9 4 21 1 27 -5 8 -8 14 -8 22 0 6 6 18 9 27 5 11 -4
14 -1 10 10 -4 9 -3 19 2 24 13 14 0 66 -16 60 -7 -3 -16 -1 -19 4 -4 6 -10
10 -15 10 -5 0 -11 -4 -15 -10z m25 -50 c0 -5 -4 -10 -10 -10 -5 0 -10 5 -10
10 0 6 5 10 10 10 6 0 10 -4 10 -10z"/>
<path d="M52 2160 c0 -25 2 -37 5 -28 4 16 7 17 34 3 l29 -16 0 41 0 41 -29
-16 c-27 -14 -30 -13 -34 3 -3 9 -5 -3 -5 -28z"/>
<path d="M212 2160 c0 -25 2 -37 5 -28 4 16 7 17 34 3 l29 -16 0 41 0 41 -29
-16 c-27 -14 -30 -13 -34 3 -3 9 -5 -3 -5 -28z"/>
<path d="M1644 2186 c-3 -8 -4 -25 -2 -38 2 -19 9 -23 38 -23 33 0 35 2 35 35
0 32 -3 35 -33 38 -21 2 -34 -2 -38 -12z m56 -16 c0 -5 -2 -10 -4 -10 -3 0 -8
5 -11 10 -3 6 -1 10 4 10 6 0 11 -4 11 -10z m-25 -20 c3 -5 1 -10 -4 -10 -6 0
-11 5 -11 10 0 6 2 10 4 10 3 0 8 -4 11 -10z"/>
<path d="M1804 2186 c-3 -8 -4 -25 -2 -38 2 -19 9 -23 38 -23 33 0 35 2 35 35
0 32 -3 35 -33 38 -21 2 -34 -2 -38 -12z m56 -16 c0 -5 -2 -10 -4 -10 -3 0 -8
5 -11 10 -3 6 -1 10 4 10 6 0 11 -4 11 -10z m-25 -20 c3 -5 1 -10 -4 -10 -6 0
-11 5 -11 10 0 6 2 10 4 10 3 0 8 -4 11 -10z"/>
<path d="M1970 2100 c0 -5 5 -10 10 -10 6 0 10 5 10 10 0 6 -4 10 -10 10 -5 0
-10 -4 -10 -10z"/>
<path d="M2000 2100 c0 -5 5 -10 10 -10 6 0 10 5 10 10 0 6 -4 10 -10 10 -5 0
-10 -4 -10 -10z"/>
<path d="M2030 2100 c0 -5 5 -10 10 -10 6 0 10 5 10 10 0 6 -4 10 -10 10 -5 0
-10 -4 -10 -10z"/>
<path d="M2060 2100 c0 -5 5 -10 10 -10 6 0 10 5 10 10 0 6 -4 10 -10 10 -5 0
-10 -4 -10 -10z"/>
<path d="M2090 2100 c0 -5 5 -10 10 -10 6 0 10 5 10 10 0 6 -4 10 -10 10 -5 0
-10 -4 -10 -10z"/>
<path d="M2220 2100 c0 -5 5 -10 10 -10 6 0 10 5 10 10 0 6 -4 10 -10 10 -5 0
-10 -4 -10 -10z"/>
<path d="M2250 2100 c0 -5 5 -10 10 -10 6 0 10 5 10 10 0 6 -4 10 -10 10 -5 0
-10 -4 -10 -10z"/>
<path d="M2280 2100 c0 -5 5 -10 10 -10 6 0 10 5 10 10 0 6 -4 10 -10 10 -5 0
-10 -4 -10 -10z"/>
<path d="M2310 2100 c0 -5 5 -10 10 -10 6 0 10 5 10 10 0 6 -4 10 -10 10 -5 0
-10 -4 -10 -10z"/>
<path d="M2340 2100 c0 -5 5 -10 10 -10 6 0 10 5 10 10 0 6 -4 10 -10 10 -5 0
-10 -4 -10 -10z"/>
<path d="M2475 2060 c-23 -24 -27 -34 -19 -47 23 -36 42 -39 72 -10 l29 28 -5
-27 c-4 -23 -2 -26 12 -21 10 4 20 7 22 7 2 0 4 15 4 34 0 25 -7 39 -22 50
-34 24 -61 19 -93 -14z m45 -26 c0 -8 -4 -12 -10 -9 -5 3 -10 10 -10 16 0 5 5
9 10 9 6 0 10 -7 10 -16z"/>
<path d="M2715 2060 c-23 -24 -27 -34 -19 -47 23 -36 42 -39 72 -10 l29 28 -5
-27 c-4 -23 -2 -26 12 -21 10 4 20 7 22 7 2 0 4 15 4 34 0 25 -7 39 -22 50
-34 24 -61 19 -93 -14z m45 -26 c0 -8 -4 -12 -10 -9 -5 3 -10 10 -10 16 0 5 5
9 10 9 6 0 10 -7 10 -16z"/>
<path d="M2947 2072 c-22 -25 -22 -45 3 -67 16 -14 20 -15 20 -4 0 8 -5 20
-12 27 -8 8 -8 15 1 26 20 23 8 41 -12 18z"/>
<path d="M3030 2079 c0 -8 5 -20 12 -27 9 -9 9 -15 0 -24 -7 -7 -12 -19 -12
-27 0 -11 4 -10 20 4 11 10 20 26 20 35 0 9 -9 25 -20 35 -16 14 -20 15 -20 4z"/>
<path d="M3187 2072 c-22 -25 -22 -45 3 -67 16 -14 20 -15 20 -4 0 8 -5 20
-12 27 -8 8 -8 15 1 26 20 23 8 41 -12 18z"/>
<path d="M3270 2079 c0 -8 5 -20 12 -27 9 -9 9 -15 0 -24 -7 -7 -12 -19 -12
-27 0 -11 4 -10 20 4 11 10 20 26 20 35 0 9 -9 25 -20 35 -16 14 -20 15 -20 4z"/>
<path d="M640 2005 l0 -75 160 0 160 0 0 75 0 75 -160 0 -160 0 0 -75z"/>
<path d="M2050 2068 c6 -8 5 -17 -3 -27 -10 -14 -10 -14 4 -4 10 8 19 9 27 3
9 -7 9 -7 2 2 -6 8 -5 17 3 27 10 14 10 14 -4 4 -10 -8 -19 -9 -27 -3 -9 7 -9
7 -2 -2z"/>
<path d="M2300 2068 c6 -8 5 -17 -3 -27 -10 -14 -10 -14 4 -4 10 8 19 9 27 3
9 -7 9 -7 2 2 -6 8 -5 17 3 27 10 14 10 14 -4 4 -10 -8 -19 -9 -27 -3 -9 7 -9
7 -2 -2z"/>
<path d="M2991 2043 c-6 -21 -7 -41 -2 -46 5 -5 11 4 15 20 4 15 9 36 12 46 3
9 1 17 -5 17 -5 0 -15 -17 -20 -37z"/>
<path d="M3231 2043 c-6 -21 -7 -41 -2 -46 5 -5 11 4 15 20 4 15 9 36 12 46 3
9 1 17 -5 17 -5 0 -15 -17 -20 -37z"/>
<path d="M1970 2055 c0 -12 8 -16 33 -13 17 2 32 8 32 13 0 6 -15 11 -32 13
-25 3 -33 -1 -33 -13z"/>
<path d="M2095 2061 c-3 -5 -1 -12 5 -16 5 -3 10 1 10 9 0 18 -6 21 -15 7z"/>
<path d="M2220 2055 c0 -12 8 -16 33 -13 17 2 32 8 32 13 0 6 -15 11 -32 13
-25 3 -33 -1 -33 -13z"/>
<path d="M2345 2061 c-3 -5 -1 -12 5 -16 5 -3 10 1 10 9 0 18 -6 21 -15 7z"/>
<path d="M402 2043 c34 -4 37 -7 41 -41 l4 -37 1 43 2 42 -42 -2 -43 -1 37 -4z"/>
<path d="M562 2043 c34 -4 37 -7 41 -41 l4 -37 1 43 2 42 -42 -2 -43 -1 37 -4z"/>
<path d="M1661 2026 c-7 -8 -11 -25 -9 -38 2 -18 9 -23 33 -23 23 0 31 5 33
23 2 12 -1 22 -7 22 -6 0 -10 5 -8 12 3 18 -28 21 -42 4z m43 -25 c3 -5 0 -14
-8 -20 -10 -8 -16 -8 -25 3 -9 11 -9 15 1 19 20 8 26 8 32 -2z"/>
<path d="M1821 2026 c-7 -8 -11 -25 -9 -38 2 -18 9 -23 33 -23 23 0 31 5 33
23 2 12 -1 22 -7 22 -6 0 -10 5 -8 12 3 18 -28 21 -42 4z m43 -25 c3 -5 0 -14
-8 -20 -10 -8 -16 -8 -25 3 -9 11 -9 15 1 19 20 8 26 8 32 -2z"/>
<path d="M350 1990 l0 -40 40 0 40 0 0 40 0 40 -40 0 -40 0 0 -40z m60 0 c0
-13 -7 -20 -20 -20 -13 0 -20 7 -20 20 0 13 7 20 20 20 13 0 20 -7 20 -20z"/>
<path d="M510 1990 l0 -40 40 0 40 0 0 40 0 40 -40 0 -40 0 0 -40z m60 0 c0
-13 -7 -20 -20 -20 -13 0 -20 7 -20 20 0 13 7 20 20 20 13 0 20 -7 20 -20z"/>
<path d="M1970 2010 c0 -5 5 -10 10 -10 6 0 10 5 10 10 0 6 -4 10 -10 10 -5 0
-10 -4 -10 -10z"/>
<path d="M2000 2010 c0 -5 5 -10 10 -10 6 0 10 5 10 10 0 6 -4 10 -10 10 -5 0
-10 -4 -10 -10z"/>
<path d="M2030 2010 c0 -5 5 -10 10 -10 6 0 10 5 10 10 0 6 -4 10 -10 10 -5 0
-10 -4 -10 -10z"/>
<path d="M2060 2010 c0 -5 5 -10 10 -10 6 0 10 5 10 10 0 6 -4 10 -10 10 -5 0
-10 -4 -10 -10z"/>
<path d="M2090 2010 c0 -5 5 -10 10 -10 6 0 10 5 10 10 0 6 -4 10 -10 10 -5 0
-10 -4 -10 -10z"/>
<path d="M2220 2010 c0 -5 5 -10 10 -10 6 0 10 5 10 10 0 6 -4 10 -10 10 -5 0
-10 -4 -10 -10z"/>
<path d="M2250 2010 c0 -5 5 -10 10 -10 6 0 10 5 10 10 0 6 -4 10 -10 10 -5 0
-10 -4 -10 -10z"/>
<path d="M2280 2010 c0 -5 5 -10 10 -10 6 0 10 5 10 10 0 6 -4 10 -10 10 -5 0
-10 -4 -10 -10z"/>
<path d="M2310 2010 c0 -5 5 -10 10 -10 6 0 10 5 10 10 0 6 -4 10 -10 10 -5 0
-10 -4 -10 -10z"/>
<path d="M2340 2010 c0 -5 5 -10 10 -10 6 0 10 5 10 10 0 6 -4 10 -10 10 -5 0
-10 -4 -10 -10z"/>
<path d="M60 1995 c-11 -13 -8 -15 20 -15 28 0 31 2 20 15 -7 8 -16 15 -20 15
-4 0 -13 -7 -20 -15z"/>
<path d="M220 1995 c-11 -13 -8 -15 20 -15 28 0 31 2 20 15 -7 8 -16 15 -20
15 -4 0 -13 -7 -20 -15z"/>
<path d="M1970 1980 c0 -5 5 -10 10 -10 6 0 10 5 10 10 0 6 -4 10 -10 10 -5 0
-10 -4 -10 -10z"/>
<path d="M2000 1980 c0 -5 5 -10 10 -10 6 0 10 5 10 10 0 6 -4 10 -10 10 -5 0
-10 -4 -10 -10z"/>
<path d="M2030 1980 c0 -5 5 -10 10 -10 6 0 10 5 10 10 0 6 -4 10 -10 10 -5 0
-10 -4 -10 -10z"/>
<path d="M2060 1980 c0 -5 5 -10 10 -10 6 0 10 5 10 10 0 6 -4 10 -10 10 -5 0
-10 -4 -10 -10z"/>
<path d="M2090 1980 c0 -5 5 -10 10 -10 6 0 10 5 10 10 0 6 -4 10 -10 10 -5 0
-10 -4 -10 -10z"/>
<path d="M2220 1980 c0 -5 5 -10 10 -10 6 0 10 5 10 10 0 6 -4 10 -10 10 -5 0
-10 -4 -10 -10z"/>
<path d="M2250 1980 c0 -5 5 -10 10 -10 6 0 10 5 10 10 0 6 -4 10 -10 10 -5 0
-10 -4 -10 -10z"/>
<path d="M2280 1980 c0 -5 5 -10 10 -10 6 0 10 5 10 10 0 6 -4 10 -10 10 -5 0
-10 -4 -10 -10z"/>
<path d="M2310 1980 c0 -5 5 -10 10 -10 6 0 10 5 10 10 0 6 -4 10 -10 10 -5 0
-10 -4 -10 -10z"/>
<path d="M2340 1980 c0 -5 5 -10 10 -10 6 0 10 5 10 10 0 6 -4 10 -10 10 -5 0
-10 -4 -10 -10z"/>
<path d="M350 1840 l0 -50 50 0 50 0 0 50 0 50 -50 0 -50 0 0 -50z m80 0 c0
-27 -3 -30 -30 -30 -27 0 -30 3 -30 30 0 27 3 30 30 30 27 0 30 -3 30 -30z"/>
<path d="M510 1840 l0 -50 50 0 50 0 0 50 0 50 -50 0 -50 0 0 -50z m80 0 c0
-27 -3 -30 -30 -30 -27 0 -30 3 -30 30 0 27 3 30 30 30 27 0 30 -3 30 -30z"/>
<path d="M640 1725 c0 -103 4 -165 10 -165 6 0 10 -20 10 -45 l0 -45 60 0 60
0 0 45 c0 38 3 45 20 45 17 0 20 -7 20 -45 l0 -45 60 0 60 0 0 45 c0 25 5 45
10 45 6 0 10 62 10 165 l0 165 -160 0 -160 0 0 -165z m120 -205 c0 -28 -2 -30
-40 -30 -38 0 -40 2 -40 30 0 28 2 30 40 30 38 0 40 -2 40 -30z m160 0 c0 -28
-2 -30 -40 -30 -38 0 -40 2 -40 30 0 28 2 30 40 30 38 0 40 -2 40 -30z"/>
<path d="M1663 1863 c16 -16 18 -16 34 0 16 16 15 17 -17 17 -32 0 -33 -1 -17
-17z"/>
<path d="M60 1840 c0 -32 1 -33 17 -17 16 16 16 18 0 34 -16 16 -17 15 -17
-17z"/>
<path d="M220 1840 c0 -32 1 -33 17 -17 16 16 16 18 0 34 -16 16 -17 15 -17
-17z"/>
<path d="M1970 1860 c0 -5 5 -10 10 -10 6 0 10 5 10 10 0 6 -4 10 -10 10 -5 0
-10 -4 -10 -10z"/>
<path d="M2000 1860 c0 -5 5 -10 10 -10 6 0 10 5 10 10 0 6 -4 10 -10 10 -5 0
-10 -4 -10 -10z"/>
<path d="M2045 1860 c4 -6 11 -8 16 -5 14 9 11 15 -7 15 -8 0 -12 -5 -9 -10z"/>
<path d="M2090 1860 c0 -5 5 -10 10 -10 6 0 10 5 10 10 0 6 -4 10 -10 10 -5 0
-10 -4 -10 -10z"/>
<path d="M2220 1860 c0 -5 5 -10 10 -10 6 0 10 5 10 10 0 6 -4 10 -10 10 -5 0
-10 -4 -10 -10z"/>
<path d="M2250 1860 c0 -5 5 -10 10 -10 6 0 10 5 10 10 0 6 -4 10 -10 10 -5 0
-10 -4 -10 -10z"/>
<path d="M2295 1860 c4 -6 11 -8 16 -5 14 9 11 15 -7 15 -8 0 -12 -5 -9 -10z"/>
<path d="M2340 1860 c0 -5 5 -10 10 -10 6 0 10 5 10 10 0 6 -4 10 -10 10 -5 0
-10 -4 -10 -10z"/>
<path d="M2040 1838 c6 -8 5 -17 -3 -27 -10 -14 -10 -14 4 -4 10 8 19 9 27 3
9 -7 9 -7 2 2 -6 8 -5 17 3 27 10 14 10 14 -4 4 -10 -8 -19 -9 -27 -3 -9 7 -9
7 -2 -2z"/>
<path d="M2290 1838 c6 -8 5 -17 -3 -27 -10 -14 -10 -14 4 -4 10 8 19 9 27 3
9 -7 9 -7 2 2 -6 8 -5 17 3 27 10 14 10 14 -4 4 -10 -8 -19 -9 -27 -3 -9 7 -9
7 -2 -2z"/>
<path d="M2488 1843 c17 -2 47 -2 65 0 17 2 3 4 -33 4 -36 0 -50 -2 -32 -4z"/>
<path d="M2728 1843 c17 -2 47 -2 65 0 17 2 3 4 -33 4 -36 0 -50 -2 -32 -4z"/>
<path d="M1970 1830 c0 -5 5 -10 10 -10 6 0 10 5 10 10 0 6 -4 10 -10 10 -5 0
-10 -4 -10 -10z"/>
<path d="M2000 1830 c0 -5 5 -10 10 -10 6 0 10 5 10 10 0 6 -4 10 -10 10 -5 0
-10 -4 -10 -10z"/>
<path d="M2090 1830 c0 -5 5 -10 10 -10 6 0 10 5 10 10 0 6 -4 10 -10 10 -5 0
-10 -4 -10 -10z"/>
<path d="M2220 1830 c0 -5 5 -10 10 -10 6 0 10 5 10 10 0 6 -4 10 -10 10 -5 0
-10 -4 -10 -10z"/>
<path d="M2250 1830 c0 -5 5 -10 10 -10 6 0 10 5 10 10 0 6 -4 10 -10 10 -5 0
-10 -4 -10 -10z"/>
<path d="M2340 1830 c0 -5 5 -10 10 -10 6 0 10 5 10 10 0 6 -4 10 -10 10 -5 0
-10 -4 -10 -10z"/>
<path d="M2940 1832 c0 -4 5 -13 12 -20 8 -8 8 -15 -2 -27 -17 -20 -5 -32 15
-15 12 10 18 10 30 0 20 -17 32 -5 15 15 -10 12 -10 18 0 30 17 20 5 32 -15
15 -12 -10 -19 -10 -27 -2 -14 14 -28 16 -28 4z"/>
<path d="M3180 1832 c0 -4 5 -13 12 -20 8 -8 8 -15 -2 -27 -17 -20 -5 -32 15
-15 12 10 18 10 30 0 20 -17 32 -5 15 15 -10 12 -10 18 0 30 17 20 5 32 -15
15 -12 -10 -19 -10 -27 -2 -14 14 -28 16 -28 4z"/>
<path d="M2483 1823 c15 -2 37 -2 50 0 12 2 0 4 -28 4 -27 0 -38 -2 -22 -4z"/>
<path d="M2723 1823 c15 -2 37 -2 50 0 12 2 0 4 -28 4 -27 0 -38 -2 -22 -4z"/>
<path d="M1970 1800 c0 -5 5 -10 10 -10 6 0 10 5 10 10 0 6 -4 10 -10 10 -5 0
-10 -4 -10 -10z"/>
<path d="M2000 1800 c0 -5 5 -10 10 -10 6 0 10 5 10 10 0 6 -4 10 -10 10 -5 0
-10 -4 -10 -10z"/>
<path d="M2090 1800 c0 -5 5 -10 10 -10 6 0 10 5 10 10 0 6 -4 10 -10 10 -5 0
-10 -4 -10 -10z"/>
<path d="M2220 1800 c0 -5 5 -10 10 -10 6 0 10 5 10 10 0 6 -4 10 -10 10 -5 0
-10 -4 -10 -10z"/>
<path d="M2250 1800 c0 -5 5 -10 10 -10 6 0 10 5 10 10 0 6 -4 10 -10 10 -5 0
-10 -4 -10 -10z"/>
<path d="M2340 1800 c0 -5 5 -10 10 -10 6 0 10 5 10 10 0 6 -4 10 -10 10 -5 0
-10 -4 -10 -10z"/>
<path d="M2488 1803 c17 -2 47 -2 65 0 17 2 3 4 -33 4 -36 0 -50 -2 -32 -4z"/>
<path d="M2728 1803 c17 -2 47 -2 65 0 17 2 3 4 -33 4 -36 0 -50 -2 -32 -4z"/>
<path d="M2046 1793 c-13 -13 -6 -63 9 -63 10 0 15 10 15 29 0 30 -12 46 -24
34z"/>
<path d="M2296 1793 c-13 -13 -6 -63 9 -63 10 0 15 10 15 29 0 30 -12 46 -24
34z"/>
<path d="M2483 1783 c15 -2 37 -2 50 0 12 2 0 4 -28 4 -27 0 -38 -2 -22 -4z"/>
<path d="M2723 1783 c15 -2 37 -2 50 0 12 2 0 4 -28 4 -27 0 -38 -2 -22 -4z"/>
<path d="M1970 1770 c0 -5 5 -10 10 -10 6 0 10 5 10 10 0 6 -4 10 -10 10 -5 0
-10 -4 -10 -10z"/>
<path d="M2000 1770 c0 -5 5 -10 10 -10 6 0 10 5 10 10 0 6 -4 10 -10 10 -5 0
-10 -4 -10 -10z"/>
<path d="M2090 1770 c0 -5 5 -10 10 -10 6 0 10 5 10 10 0 6 -4 10 -10 10 -5 0
-10 -4 -10 -10z"/>
<path d="M2220 1770 c0 -5 5 -10 10 -10 6 0 10 5 10 10 0 6 -4 10 -10 10 -5 0
-10 -4 -10 -10z"/>
<path d="M2250 1770 c0 -5 5 -10 10 -10 6 0 10 5 10 10 0 6 -4 10 -10 10 -5 0
-10 -4 -10 -10z"/>
<path d="M2340 1770 c0 -5 5 -10 10 -10 6 0 10 5 10 10 0 6 -4 10 -10 10 -5 0
-10 -4 -10 -10z"/>
<path d="M3043 1760 c-1 -11 4 -20 13 -20 8 0 14 9 14 20 0 11 -6 20 -13 20
-7 0 -13 -9 -14 -20z"/>
<path d="M3283 1760 c-1 -11 4 -20 13 -20 8 0 14 9 14 20 0 11 -6 20 -13 20
-7 0 -13 -9 -14 -20z"/>
<path d="M2488 1763 c17 -2 47 -2 65 0 17 2 3 4 -33 4 -36 0 -50 -2 -32 -4z"/>
<path d="M2728 1763 c17 -2 47 -2 65 0 17 2 3 4 -33 4 -36 0 -50 -2 -32 -4z"/>
<path d="M1970 1740 c0 -5 5 -10 10 -10 6 0 10 5 10 10 0 6 -4 10 -10 10 -5 0
-10 -4 -10 -10z"/>
<path d="M2000 1740 c0 -5 5 -10 10 -10 6 0 10 5 10 10 0 6 -4 10 -10 10 -5 0
-10 -4 -10 -10z"/>
<path d="M2090 1740 c0 -5 5 -10 10 -10 6 0 10 5 10 10 0 6 -4 10 -10 10 -5 0
-10 -4 -10 -10z"/>
<path d="M2220 1740 c0 -5 5 -10 10 -10 6 0 10 5 10 10 0 6 -4 10 -10 10 -5 0
-10 -4 -10 -10z"/>
<path d="M2250 1740 c0 -5 5 -10 10 -10 6 0 10 5 10 10 0 6 -4 10 -10 10 -5 0
-10 -4 -10 -10z"/>
<path d="M2340 1740 c0 -5 5 -10 10 -10 6 0 10 5 10 10 0 6 -4 10 -10 10 -5 0
-10 -4 -10 -10z"/>
<path d="M2483 1743 c15 -2 37 -2 50 0 12 2 0 4 -28 4 -27 0 -38 -2 -22 -4z"/>
<path d="M2723 1743 c15 -2 37 -2 50 0 12 2 0 4 -28 4 -27 0 -38 -2 -22 -4z"/>
<path d="M395 1680 l-39 -40 42 0 42 0 0 40 c0 22 -1 40 -3 40 -2 0 -21 -18
-42 -40z"/>
<path d="M555 1680 l-39 -40 42 0 42 0 0 40 c0 22 -1 40 -3 40 -2 0 -21 -18
-42 -40z"/>
<path d="M63 1683 c16 -16 18 -16 34 0 16 16 15 17 -17 17 -32 0 -33 -1 -17
-17z"/>
<path d="M223 1683 c16 -16 18 -16 34 0 16 16 15 17 -17 17 -32 0 -33 -1 -17
-17z"/>
<path d="M1660 1655 c-11 -13 -8 -15 20 -15 28 0 31 2 20 15 -7 8 -16 15 -20
15 -4 0 -13 -7 -20 -15z"/>
<path d="M1970 1620 c0 -5 5 -10 10 -10 6 0 10 5 10 10 0 6 -4 10 -10 10 -5 0
-10 -4 -10 -10z"/>
<path d="M2000 1620 c0 -5 5 -10 10 -10 6 0 10 5 10 10 0 6 -4 10 -10 10 -5 0
-10 -4 -10 -10z"/>
<path d="M2030 1620 c0 -5 5 -10 10 -10 6 0 10 5 10 10 0 6 -4 10 -10 10 -5 0
-10 -4 -10 -10z"/>
<path d="M2060 1620 c0 -5 5 -10 10 -10 6 0 10 5 10 10 0 6 -4 10 -10 10 -5 0
-10 -4 -10 -10z"/>
<path d="M2090 1620 c0 -5 5 -10 10 -10 6 0 10 5 10 10 0 6 -4 10 -10 10 -5 0
-10 -4 -10 -10z"/>
<path d="M2220 1620 c0 -5 5 -10 10 -10 6 0 10 5 10 10 0 6 -4 10 -10 10 -5 0
-10 -4 -10 -10z"/>
<path d="M2250 1620 c0 -5 5 -10 10 -10 6 0 10 5 10 10 0 6 -4 10 -10 10 -5 0
-10 -4 -10 -10z"/>
<path d="M2280 1620 c0 -5 5 -10 10 -10 6 0 10 5 10 10 0 6 -4 10 -10 10 -5 0
-10 -4 -10 -10z"/>
<path d="M2310 1620 c0 -5 5 -10 10 -10 6 0 10 5 10 10 0 6 -4 10 -10 10 -5 0
-10 -4 -10 -10z"/>
<path d="M2340 1620 c0 -5 5 -10 10 -10 6 0 10 5 10 10 0 6 -4 10 -10 10 -5 0
-10 -4 -10 -10z"/>
<path d="M3043 1610 c-1 -11 4 -20 13 -20 8 0 14 9 14 20 0 11 -6 20 -13 20
-7 0 -13 -9 -14 -20z"/>
<path d="M3283 1610 c-1 -11 4 -20 13 -20 8 0 14 9 14 20 0 11 -6 20 -13 20
-7 0 -13 -9 -14 -20z"/>
<path d="M2488 1603 c17 -2 47 -2 65 0 17 2 3 4 -33 4 -36 0 -50 -2 -32 -4z"/>
<path d="M2728 1603 c17 -2 47 -2 65 0 17 2 3 4 -33 4 -36 0 -50 -2 -32 -4z"/>
<path d="M344 1591 c-2 -2 -4 -33 -4 -68 l0 -63 60 0 61 0 -3 67 -3 67 -53 0
c-30 1 -55 -1 -58 -3z m106 -71 l0 -50 -50 0 -50 0 0 50 0 50 50 0 50 0 0 -50z"/>
<path d="M360 1550 c0 -5 5 -10 10 -10 6 0 10 5 10 10 0 6 -4 10 -10 10 -5 0
-10 -4 -10 -10z"/>
<path d="M390 1550 c0 -5 5 -10 10 -10 6 0 10 5 10 10 0 6 -4 10 -10 10 -5 0
-10 -4 -10 -10z"/>
<path d="M420 1550 c0 -5 5 -10 10 -10 6 0 10 5 10 10 0 6 -4 10 -10 10 -5 0
-10 -4 -10 -10z"/>
<path d="M360 1520 c0 -5 5 -10 10 -10 6 0 10 5 10 10 0 6 -4 10 -10 10 -5 0
-10 -4 -10 -10z"/>
<path d="M390 1520 c0 -5 5 -10 10 -10 6 0 10 5 10 10 0 6 -4 10 -10 10 -5 0
-10 -4 -10 -10z"/>
<path d="M420 1520 c0 -5 5 -10 10 -10 6 0 10 5 10 10 0 6 -4 10 -10 10 -5 0
-10 -4 -10 -10z"/>
<path d="M360 1490 c0 -5 5 -10 10 -10 6 0 10 5 10 10 0 6 -4 10 -10 10 -5 0
-10 -4 -10 -10z"/>
<path d="M390 1490 c0 -5 5 -10 10 -10 6 0 10 5 10 10 0 6 -4 10 -10 10 -5 0
-10 -4 -10 -10z"/>
<path d="M420 1490 c0 -5 5 -10 10 -10 6 0 10 5 10 10 0 6 -4 10 -10 10 -5 0
-10 -4 -10 -10z"/>
<path d="M504 1591 c-2 -2 -4 -33 -4 -68 l0 -63 60 0 61 0 -3 67 -3 67 -53 0
c-30 1 -55 -1 -58 -3z m106 -71 l0 -50 -50 0 -50 0 0 50 0 50 50 0 50 0 0 -50z"/>
<path d="M520 1550 c0 -5 5 -10 10 -10 6 0 10 5 10 10 0 6 -4 10 -10 10 -5 0
-10 -4 -10 -10z"/>
<path d="M550 1550 c0 -5 5 -10 10 -10 6 0 10 5 10 10 0 6 -4 10 -10 10 -5 0
-10 -4 -10 -10z"/>
<path d="M580 1550 c0 -5 5 -10 10 -10 6 0 10 5 10 10 0 6 -4 10 -10 10 -5 0
-10 -4 -10 -10z"/>
<path d="M520 1520 c0 -5 5 -10 10 -10 6 0 10 5 10 10 0 6 -4 10 -10 10 -5 0
-10 -4 -10 -10z"/>
<path d="M550 1520 c0 -5 5 -10 10 -10 6 0 10 5 10 10 0 6 -4 10 -10 10 -5 0
-10 -4 -10 -10z"/>
<path d="M580 1520 c0 -5 5 -10 10 -10 6 0 10 5 10 10 0 6 -4 10 -10 10 -5 0
-10 -4 -10 -10z"/>
<path d="M520 1490 c0 -5 5 -10 10 -10 6 0 10 5 10 10 0 6 -4 10 -10 10 -5 0
-10 -4 -10 -10z"/>
<path d="M550 1490 c0 -5 5 -10 10 -10 6 0 10 5 10 10 0 6 -4 10 -10 10 -5 0
-10 -4 -10 -10z"/>
<path d="M580 1490 c0 -5 5 -10 10 -10 6 0 10 5 10 10 0 6 -4 10 -10 10 -5 0
-10 -4 -10 -10z"/>
<path d="M1970 1590 c0 -5 5 -10 10 -10 6 0 10 5 10 10 0 6 -4 10 -10 10 -5 0
-10 -4 -10 -10z"/>
<path d="M2000 1560 l0 -40 40 0 40 0 0 40 0 40 -40 0 -40 0 0 -40z m70 0 c0
-27 -3 -30 -30 -30 -27 0 -30 3 -30 30 0 27 3 30 30 30 27 0 30 -3 30 -30z"/>
<path d="M2090 1590 c0 -5 5 -10 10 -10 6 0 10 5 10 10 0 6 -4 10 -10 10 -5 0
-10 -4 -10 -10z"/>
<path d="M2220 1590 c0 -5 5 -10 10 -10 6 0 10 5 10 10 0 6 -4 10 -10 10 -5 0
-10 -4 -10 -10z"/>
<path d="M2250 1560 l0 -40 40 0 40 0 0 40 0 40 -40 0 -40 0 0 -40z m70 0 c0
-27 -3 -30 -30 -30 -27 0 -30 3 -30 30 0 27 3 30 30 30 27 0 30 -3 30 -30z"/>
<path d="M2340 1590 c0 -5 5 -10 10 -10 6 0 10 5 10 10 0 6 -4 10 -10 10 -5 0
-10 -4 -10 -10z"/>
<path d="M2940 1592 c0 -4 5 -13 12 -20 8 -8 8 -15 -2 -27 -17 -20 -5 -32 15
-15 12 10 18 10 30 0 20 -17 32 -5 15 15 -10 12 -10 18 0 30 17 20 5 32 -15
15 -12 -10 -19 -10 -27 -2 -14 14 -28 16 -28 4z"/>
<path d="M3180 1592 c0 -4 5 -13 12 -20 8 -8 8 -15 -2 -27 -17 -20 -5 -32 15
-15 12 10 18 10 30 0 20 -17 32 -5 15 15 -10 12 -10 18 0 30 17 20 5 32 -15
15 -12 -10 -19 -10 -27 -2 -14 14 -28 16 -28 4z"/>
<path d="M2498 1583 c12 -2 32 -2 45 0 12 2 2 4 -23 4 -25 0 -35 -2 -22 -4z"/>
<path d="M2738 1583 c12 -2 32 -2 45 0 12 2 2 4 -23 4 -25 0 -35 -2 -22 -4z"/>
<path d="M1970 1560 c0 -5 5 -10 10 -10 6 0 10 5 10 10 0 6 -4 10 -10 10 -5 0
-10 -4 -10 -10z"/>
<path d="M2090 1560 c0 -5 5 -10 10 -10 6 0 10 5 10 10 0 6 -4 10 -10 10 -5 0
-10 -4 -10 -10z"/>
<path d="M2220 1560 c0 -5 5 -10 10 -10 6 0 10 5 10 10 0 6 -4 10 -10 10 -5 0
-10 -4 -10 -10z"/>
<path d="M2340 1560 c0 -5 5 -10 10 -10 6 0 10 5 10 10 0 6 -4 10 -10 10 -5 0
-10 -4 -10 -10z"/>
<path d="M2488 1563 c17 -2 47 -2 65 0 17 2 3 4 -33 4 -36 0 -50 -2 -32 -4z"/>
<path d="M2728 1563 c17 -2 47 -2 65 0 17 2 3 4 -33 4 -36 0 -50 -2 -32 -4z"/>
<path d="M80 1534 c-11 -12 -10 -18 3 -32 16 -15 17 -14 17 16 0 36 -2 38 -20
16z"/>
<path d="M240 1534 c-11 -12 -10 -18 3 -32 16 -15 17 -14 17 16 0 36 -2 38
-20 16z"/>
<path d="M1645 1520 l-29 -30 59 0 59 0 -29 30 c-16 17 -29 30 -30 30 -1 0
-14 -13 -30 -30z"/>
<path d="M2498 1543 c12 -2 32 -2 45 0 12 2 2 4 -23 4 -25 0 -35 -2 -22 -4z"/>
<path d="M2738 1543 c12 -2 32 -2 45 0 12 2 2 4 -23 4 -25 0 -35 -2 -22 -4z"/>
<path d="M1970 1530 c0 -5 5 -10 10 -10 6 0 10 5 10 10 0 6 -4 10 -10 10 -5 0
-10 -4 -10 -10z"/>
<path d="M2090 1530 c0 -5 5 -10 10 -10 6 0 10 5 10 10 0 6 -4 10 -10 10 -5 0
-10 -4 -10 -10z"/>
<path d="M2220 1530 c0 -5 5 -10 10 -10 6 0 10 5 10 10 0 6 -4 10 -10 10 -5 0
-10 -4 -10 -10z"/>
<path d="M2340 1530 c0 -5 5 -10 10 -10 6 0 10 5 10 10 0 6 -4 10 -10 10 -5 0
-10 -4 -10 -10z"/>
<path d="M2488 1523 c17 -2 47 -2 65 0 17 2 3 4 -33 4 -36 0 -50 -2 -32 -4z"/>
<path d="M2728 1523 c17 -2 47 -2 65 0 17 2 3 4 -33 4 -36 0 -50 -2 -32 -4z"/>
<path d="M1970 1500 c0 -5 5 -10 10 -10 6 0 10 5 10 10 0 6 -4 10 -10 10 -5 0
-10 -4 -10 -10z"/>
<path d="M2000 1500 c0 -5 5 -10 10 -10 6 0 10 5 10 10 0 6 -4 10 -10 10 -5 0
-10 -4 -10 -10z"/>
<path d="M2030 1500 c0 -5 5 -10 10 -10 6 0 10 5 10 10 0 6 -4 10 -10 10 -5 0
-10 -4 -10 -10z"/>
<path d="M2060 1500 c0 -5 5 -10 10 -10 6 0 10 5 10 10 0 6 -4 10 -10 10 -5 0
-10 -4 -10 -10z"/>
<path d="M2090 1500 c0 -5 5 -10 10 -10 6 0 10 5 10 10 0 6 -4 10 -10 10 -5 0
-10 -4 -10 -10z"/>
<path d="M2220 1500 c0 -5 5 -10 10 -10 6 0 10 5 10 10 0 6 -4 10 -10 10 -5 0
-10 -4 -10 -10z"/>
<path d="M2250 1500 c0 -5 5 -10 10 -10 6 0 10 5 10 10 0 6 -4 10 -10 10 -5 0
-10 -4 -10 -10z"/>
<path d="M2280 1500 c0 -5 5 -10 10 -10 6 0 10 5 10 10 0 6 -4 10 -10 10 -5 0
-10 -4 -10 -10z"/>
<path d="M2310 1500 c0 -5 5 -10 10 -10 6 0 10 5 10 10 0 6 -4 10 -10 10 -5 0
-10 -4 -10 -10z"/>
<path d="M2340 1500 c0 -5 5 -10 10 -10 6 0 10 5 10 10 0 6 -4 10 -10 10 -5 0
-10 -4 -10 -10z"/>
<path d="M2498 1503 c12 -2 32 -2 45 0 12 2 2 4 -23 4 -25 0 -35 -2 -22 -4z"/>
<path d="M2738 1503 c12 -2 32 -2 45 0 12 2 2 4 -23 4 -25 0 -35 -2 -22 -4z"/>
<path d="M347 1422 c-23 -25 -22 -85 1 -105 25 -23 85 -22 105 1 23 25 22 85
-1 105 -25 23 -85 22 -105 -1z m91 -14 c21 -21 14 -66 -13 -84 -23 -15 -27
-15 -50 0 -17 11 -25 26 -25 44 0 35 16 52 50 52 14 0 31 -5 38 -12z"/>
<path d="M391 1383 c-1 -18 4 -23 22 -22 15 1 17 3 5 6 -9 2 -19 12 -21 21 -3
12 -5 10 -6 -5z"/>
<path d="M507 1422 c-23 -25 -22 -85 1 -105 25 -23 85 -22 105 1 23 25 22 85
-1 105 -25 23 -85 22 -105 -1z m91 -14 c21 -21 14 -66 -13 -84 -23 -15 -27
-15 -50 0 -17 11 -25 26 -25 44 0 35 16 52 50 52 14 0 31 -5 38 -12z"/>
<path d="M551 1383 c-1 -18 4 -23 22 -22 15 1 17 3 5 6 -9 2 -19 12 -21 21 -3
12 -5 10 -6 -5z"/>
<path d="M1650 1367 c0 -31 1 -57 3 -57 2 0 15 13 30 28 l27 28 -30 29 -30 29
0 -57z"/>
<path d="M60 1360 l0 -55 27 28 28 27 -28 27 -27 28 0 -55z"/>
<path d="M220 1360 l0 -55 27 28 28 27 -28 27 -27 28 0 -55z"/>
<path d="M738 1403 c-13 -3 -18 -15 -18 -39 0 -32 -2 -34 -25 -28 -19 5 -25 2
-25 -10 0 -18 4 -19 38 -10 17 5 22 14 22 40 0 32 2 34 25 28 19 -5 25 -2 25
10 0 16 -9 18 -42 9z"/>
<path d="M898 1403 c-13 -3 -18 -15 -18 -39 0 -32 -2 -34 -25 -28 -19 5 -25 2
-25 -10 0 -18 4 -19 38 -10 17 5 22 14 22 40 0 32 2 34 25 28 19 -5 25 -2 25
10 0 16 -9 18 -42 9z"/>
<path d="M2971 1346 c-35 -36 -37 -62 -9 -80 26 -16 103 61 93 93 -10 32 -46
26 -84 -13z m59 7 c0 -13 -44 -53 -59 -53 -10 0 -6 9 14 30 28 29 45 38 45 23z"/>
<path d="M3211 1346 c-35 -36 -37 -62 -9 -80 26 -16 103 61 93 93 -10 32 -46
26 -84 -13z m59 7 c0 -13 -44 -53 -59 -53 -10 0 -6 9 14 30 28 29 45 38 45 23z"/>
<path d="M2488 1363 c17 -2 47 -2 65 0 17 2 3 4 -33 4 -36 0 -50 -2 -32 -4z"/>
<path d="M2728 1363 c17 -2 47 -2 65 0 17 2 3 4 -33 4 -36 0 -50 -2 -32 -4z"/>
<path d="M2513 1343 c15 -2 37 -2 50 0 12 2 0 4 -28 4 -27 0 -38 -2 -22 -4z"/>
<path d="M2753 1343 c15 -2 37 -2 50 0 12 2 0 4 -28 4 -27 0 -38 -2 -22 -4z"/>
<path d="M2488 1323 c17 -2 47 -2 65 0 17 2 3 4 -33 4 -36 0 -50 -2 -32 -4z"/>
<path d="M2728 1323 c17 -2 47 -2 65 0 17 2 3 4 -33 4 -36 0 -50 -2 -32 -4z"/>
<path d="M2513 1303 c15 -2 37 -2 50 0 12 2 0 4 -28 4 -27 0 -38 -2 -22 -4z"/>
<path d="M2753 1303 c15 -2 37 -2 50 0 12 2 0 4 -28 4 -27 0 -38 -2 -22 -4z"/>
<path d="M2488 1283 c17 -2 47 -2 65 0 17 2 3 4 -33 4 -36 0 -50 -2 -32 -4z"/>
<path d="M2728 1283 c17 -2 47 -2 65 0 17 2 3 4 -33 4 -36 0 -50 -2 -32 -4z"/>
<path d="M2513 1263 c15 -2 37 -2 50 0 12 2 0 4 -28 4 -27 0 -38 -2 -22 -4z"/>
<path d="M2753 1263 c15 -2 37 -2 50 0 12 2 0 4 -28 4 -27 0 -38 -2 -22 -4z"/>
<path d="M697 1242 c-25 -27 -21 -32 23 -32 44 0 49 8 22 33 -23 21 -25 21
-45 -1z"/>
<path d="M857 1242 c-25 -27 -21 -32 23 -32 44 0 49 8 22 33 -23 21 -25 21
-45 -1z"/>
<path d="M70 1225 l-24 -26 27 -27 27 -27 0 53 c0 28 -1 52 -3 52 -2 0 -14
-11 -27 -25z"/>
<path d="M230 1225 l-24 -26 27 -27 27 -27 0 53 c0 28 -1 52 -3 52 -2 0 -14
-11 -27 -25z"/>
<path d="M382 1214 c-11 -12 -10 -17 2 -30 15 -14 17 -14 32 0 14 14 14 18 0
31 -18 18 -18 18 -34 -1z"/>
<path d="M542 1214 c-11 -12 -10 -17 2 -30 15 -14 17 -14 32 0 14 14 14 18 0
31 -18 18 -18 18 -34 -1z"/>
<path d="M1645 1200 l29 -30 28 27 c15 15 28 28 28 30 0 2 -26 3 -57 3 l-57 0
29 -30z"/>
<path d="M680 1182 c0 -5 9 -17 20 -27 19 -17 21 -17 40 0 29 27 25 35 -20 35
-22 0 -40 -4 -40 -8z"/>
<path d="M840 1182 c0 -5 9 -17 20 -27 19 -17 21 -17 40 0 29 27 25 35 -20 35
-22 0 -40 -4 -40 -8z"/>
<path d="M2972 1083 c3 -57 3 -58 33 -58 29 0 30 1 32 50 1 45 0 47 -7 15 l-7
-35 -2 43 c-1 38 -3 42 -26 42 -25 0 -26 -2 -23 -57z m15 -10 c-3 -10 -5 -4
-5 12 0 17 2 24 5 18 2 -7 2 -21 0 -30z m20 0 c-3 -10 -5 -4 -5 12 0 17 2 24
5 18 2 -7 2 -21 0 -30z"/>
<path d="M3212 1083 c3 -57 3 -58 33 -58 29 0 30 1 32 50 1 45 0 47 -7 15 l-7
-35 -2 43 c-1 38 -3 42 -26 42 -25 0 -26 -2 -23 -57z m15 -10 c-3 -10 -5 -4
-5 12 0 17 2 24 5 18 2 -7 2 -21 0 -30z m20 0 c-3 -10 -5 -4 -5 12 0 17 2 24
5 18 2 -7 2 -21 0 -30z"/>
<path d="M2488 1123 c17 -2 47 -2 65 0 17 2 3 4 -33 4 -36 0 -50 -2 -32 -4z"/>
<path d="M2728 1123 c17 -2 47 -2 65 0 17 2 3 4 -33 4 -36 0 -50 -2 -32 -4z"/>
<path d="M2488 1103 c17 -2 47 -2 65 0 17 2 3 4 -33 4 -36 0 -50 -2 -32 -4z"/>
<path d="M2728 1103 c17 -2 47 -2 65 0 17 2 3 4 -33 4 -36 0 -50 -2 -32 -4z"/>
<path d="M670 1085 c-9 -10 -9 -15 -1 -15 13 0 15 -57 2 -62 -5 -1 -3 -9 5
-16 8 -7 14 -8 14 -2 0 14 57 13 62 -1 2 -7 8 -6 16 4 10 11 9 17 -3 27 -10 9
-15 9 -15 1 0 -6 -13 -11 -30 -11 -26 0 -30 3 -30 29 0 16 5 31 11 33 7 2 6 8
-4 16 -11 10 -17 9 -27 -3z"/>
<path d="M830 1085 c-9 -10 -9 -15 -1 -15 13 0 15 -57 2 -62 -5 -1 -3 -9 5
-16 8 -7 14 -8 14 -2 0 14 57 13 62 -1 2 -7 8 -6 16 4 10 11 9 17 -3 27 -10 9
-15 9 -15 1 0 -6 -13 -11 -30 -11 -26 0 -30 3 -30 29 0 16 5 31 11 33 7 2 6 8
-4 16 -11 10 -17 9 -27 -3z"/>
<path d="M1677 1072 l-27 -28 30 -29 30 -29 0 57 c0 31 -1 57 -3 57 -2 0 -15
-13 -30 -28z"/>
<path d="M2488 1083 c17 -2 47 -2 65 0 17 2 3 4 -33 4 -36 0 -50 -2 -32 -4z"/>
<path d="M2728 1083 c17 -2 47 -2 65 0 17 2 3 4 -33 4 -36 0 -50 -2 -32 -4z"/>
<path d="M65 1040 l-29 -30 32 0 c29 0 32 3 32 30 0 17 -1 30 -3 30 -2 0 -16
-13 -32 -30z"/>
<path d="M225 1040 l-29 -30 32 0 c29 0 32 3 32 30 0 17 -1 30 -3 30 -2 0 -16
-13 -32 -30z"/>
<path d="M2488 1063 c17 -2 47 -2 65 0 17 2 3 4 -33 4 -36 0 -50 -2 -32 -4z"/>
<path d="M2728 1063 c17 -2 47 -2 65 0 17 2 3 4 -33 4 -36 0 -50 -2 -32 -4z"/>
<path d="M370 1040 c0 -5 14 -10 30 -10 17 0 30 5 30 10 0 6 -13 10 -30 10
-16 0 -30 -4 -30 -10z"/>
<path d="M530 1040 c0 -5 14 -10 30 -10 17 0 30 5 30 10 0 6 -13 10 -30 10
-16 0 -30 -4 -30 -10z"/>
<path d="M2488 1043 c17 -2 47 -2 65 0 17 2 3 4 -33 4 -36 0 -50 -2 -32 -4z"/>
<path d="M2728 1043 c17 -2 47 -2 65 0 17 2 3 4 -33 4 -36 0 -50 -2 -32 -4z"/>
<path d="M2488 1023 c17 -2 47 -2 65 0 17 2 3 4 -33 4 -36 0 -50 -2 -32 -4z"/>
<path d="M2728 1023 c17 -2 47 -2 65 0 17 2 3 4 -33 4 -36 0 -50 -2 -32 -4z"/>
<path d="M1627 932 c-23 -25 -22 -85 1 -105 25 -23 85 -22 105 1 23 25 22 85
-1 105 -25 23 -85 22 -105 -1z m88 -17 c14 -13 25 -29 25 -35 0 -6 -11 -22
-25 -35 -13 -14 -29 -25 -35 -25 -6 0 -22 11 -35 25 -14 13 -25 29 -25 35 0
14 46 60 60 60 6 0 22 -11 35 -25z"/>
<path d="M1660 895 c0 -16 6 -25 15 -25 9 0 15 9 15 25 0 16 -6 25 -15 25 -9
0 -15 -9 -15 -25z"/>
<path d="M1660 850 c0 -5 7 -10 15 -10 8 0 15 5 15 10 0 6 -7 10 -15 10 -8 0
-15 -4 -15 -10z"/>
<path d="M1787 932 c-23 -25 -22 -85 1 -105 25 -23 85 -22 105 1 23 25 22 85
-1 105 -25 23 -85 22 -105 -1z m88 -17 c14 -13 25 -29 25 -35 0 -6 -11 -22
-25 -35 -13 -14 -29 -25 -35 -25 -6 0 -22 11 -35 25 -14 13 -25 29 -25 35 0
14 46 60 60 60 6 0 22 -11 35 -25z"/>
<path d="M1820 895 c0 -16 6 -25 15 -25 9 0 15 9 15 25 0 16 -6 25 -15 25 -9
0 -15 -9 -15 -25z"/>
<path d="M1820 850 c0 -5 7 -10 15 -10 8 0 15 5 15 10 0 6 -7 10 -15 10 -8 0
-15 -4 -15 -10z"/>
<path d="M352 928 c-7 -7 -12 -24 -12 -38 0 -33 17 -50 51 -50 15 0 32 -7 39
-15 7 -8 19 -15 26 -15 19 0 18 24 -1 40 -8 7 -15 24 -15 39 0 15 -5 32 -12
39 -15 15 -61 15 -76 0z m58 -38 c0 -13 -7 -20 -20 -20 -13 0 -20 7 -20 20 0
13 7 20 20 20 13 0 20 -7 20 -20z"/>
<path d="M512 928 c-7 -7 -12 -24 -12 -38 0 -33 17 -50 51 -50 15 0 32 -7 39
-15 16 -19 40 -20 40 -1 0 7 -7 19 -15 26 -8 7 -15 24 -15 39 0 15 -5 32 -12
39 -15 15 -61 15 -76 0z m58 -38 c0 -13 -7 -20 -20 -20 -13 0 -20 7 -20 20 0
13 7 20 20 20 13 0 20 -7 20 -20z"/>
<path d="M1150 930 c0 -5 7 -10 15 -10 8 0 15 5 15 10 0 6 -7 10 -15 10 -8 0
-15 -4 -15 -10z"/>
<path d="M1310 930 c0 -5 7 -10 15 -10 8 0 15 5 15 10 0 6 -7 10 -15 10 -8 0
-15 -4 -15 -10z"/>
<path d="M2456 912 c-8 -14 3 -42 18 -42 6 0 4 -5 -4 -10 -12 -8 -10 -10 10
-11 l25 -1 -25 -8 c-23 -7 -23 -8 10 -10 l35 -3 -35 -7 -35 -7 45 -3 45 -3
-45 -7 -45 -7 51 -1 c27 -1 55 -7 62 -14 22 -22 34 6 12 29 -14 15 -16 23 -7
26 7 3 1 6 -13 7 l-25 2 25 8 c23 7 23 8 -10 10 l-35 3 35 7 35 7 -45 3 -45 3
45 7 45 7 -50 1 c-28 1 -56 7 -62 13 -7 7 -13 7 -17 1z"/>
<path d="M2696 912 c-8 -14 3 -42 18 -42 6 0 4 -5 -4 -10 -12 -8 -10 -10 10
-11 l25 -1 -25 -8 c-23 -7 -23 -8 10 -10 l35 -3 -35 -7 -35 -7 45 -3 45 -3
-45 -7 -45 -7 51 -1 c27 -1 55 -7 62 -14 22 -22 34 6 12 29 -14 15 -16 23 -7
26 7 3 1 6 -13 7 l-25 2 25 8 c23 7 23 8 -10 10 l-35 3 35 7 35 7 -45 3 -45 3
45 7 45 7 -50 1 c-28 1 -56 7 -62 13 -7 7 -13 7 -17 1z"/>
<path d="M50 880 c0 -27 3 -30 32 -30 l32 0 -29 30 c-16 17 -30 30 -32 30 -2
0 -3 -13 -3 -30z"/>
<path d="M210 880 c0 -27 3 -30 32 -30 l32 0 -29 30 c-16 17 -30 30 -32 30 -2
0 -3 -13 -3 -30z"/>
<path d="M1150 900 c0 -5 11 -10 25 -10 14 0 25 5 25 10 0 6 -11 10 -25 10
-14 0 -25 -4 -25 -10z"/>
<path d="M1310 900 c0 -5 11 -10 25 -10 14 0 25 5 25 10 0 6 -11 10 -25 10
-14 0 -25 -4 -25 -10z"/>
<path d="M1150 870 c0 -5 16 -10 35 -10 19 0 35 5 35 10 0 6 -16 10 -35 10
-19 0 -35 -4 -35 -10z"/>
<path d="M1310 870 c0 -5 16 -10 35 -10 19 0 35 5 35 10 0 6 -16 10 -35 10
-19 0 -35 -4 -35 -10z"/>
<path d="M1150 840 c0 -5 20 -10 45 -10 25 0 45 5 45 10 0 6 -20 10 -45 10
-25 0 -45 -4 -45 -10z"/>
<path d="M1310 840 c0 -5 20 -10 45 -10 25 0 45 5 45 10 0 6 -20 10 -45 10
-25 0 -45 -4 -45 -10z"/>
<path d="M1150 770 c0 -5 20 -10 45 -10 25 0 45 5 45 10 0 6 -20 10 -45 10
-25 0 -45 -4 -45 -10z"/>
<path d="M1310 770 c0 -5 20 -10 45 -10 25 0 45 5 45 10 0 6 -20 10 -45 10
-25 0 -45 -4 -45 -10z"/>
<path d="M1150 740 c0 -5 16 -10 35 -10 19 0 35 5 35 10 0 6 -16 10 -35 10
-19 0 -35 -4 -35 -10z"/>
<path d="M1310 740 c0 -5 16 -10 35 -10 19 0 35 5 35 10 0 6 -16 10 -35 10
-19 0 -35 -4 -35 -10z"/>
<path d="M1670 734 c0 -7 -10 -15 -22 -17 l-23 -4 23 -2 c12 0 22 -7 22 -14 0
-9 10 -12 30 -9 23 3 30 9 30 27 0 18 -7 24 -30 27 -20 3 -30 0 -30 -8z m40
-14 c0 -5 -4 -10 -10 -10 -5 0 -10 5 -10 10 0 6 5 10 10 10 6 0 10 -4 10 -10z"/>
<path d="M1830 734 c0 -7 -10 -15 -22 -17 l-23 -4 23 -2 c12 0 22 -7 22 -14 0
-9 10 -12 30 -9 23 3 30 9 30 27 0 18 -7 24 -30 27 -20 3 -30 0 -30 -8z m40
-14 c0 -5 -4 -10 -10 -10 -5 0 -10 5 -10 10 0 6 5 10 10 10 6 0 10 -4 10 -10z"/>
<path d="M45 720 c-14 -16 -15 -20 -4 -20 8 0 20 5 27 12 9 9 15 9 24 0 7 -7
19 -12 27 -12 11 0 10 4 -4 20 -10 11 -26 20 -35 20 -9 0 -25 -9 -35 -20z"/>
<path d="M205 720 c-14 -16 -15 -20 -4 -20 8 0 20 5 27 12 9 9 15 9 24 0 7 -7
19 -12 27 -12 11 0 10 4 -4 20 -10 11 -26 20 -35 20 -9 0 -25 -9 -35 -20z"/>
<path d="M1150 710 c0 -5 11 -10 25 -10 14 0 25 5 25 10 0 6 -11 10 -25 10
-14 0 -25 -4 -25 -10z"/>
<path d="M1310 710 c0 -5 11 -10 25 -10 14 0 25 5 25 10 0 6 -11 10 -25 10
-14 0 -25 -4 -25 -10z"/>
<path d="M1150 680 c0 -5 7 -10 15 -10 8 0 15 5 15 10 0 6 -7 10 -15 10 -8 0
-15 -4 -15 -10z"/>
<path d="M1310 680 c0 -5 7 -10 15 -10 8 0 15 5 15 10 0 6 -7 10 -15 10 -8 0
-15 -4 -15 -10z"/>
<path d="M2460 635 c0 -8 7 -15 15 -15 8 0 15 7 15 15 0 8 -7 15 -15 15 -8 0
-15 -7 -15 -15z"/>
<path d="M2700 635 c0 -8 7 -15 15 -15 8 0 15 7 15 15 0 8 -7 15 -15 15 -8 0
-15 -7 -15 -15z"/>
<path d="M2518 633 c12 -2 32 -2 45 0 12 2 2 4 -23 4 -25 0 -35 -2 -22 -4z"/>
<path d="M2758 633 c12 -2 32 -2 45 0 12 2 2 4 -23 4 -25 0 -35 -2 -22 -4z"/>
<path d="M1140 595 c0 -20 5 -25 25 -25 20 0 25 5 25 25 0 20 -5 25 -25 25
-20 0 -25 -5 -25 -25z"/>
<path d="M1200 595 c0 -20 5 -25 25 -25 20 0 25 5 25 25 0 20 -5 25 -25 25
-20 0 -25 -5 -25 -25z"/>
<path d="M1300 595 c0 -20 5 -25 25 -25 20 0 25 5 25 25 0 20 -5 25 -25 25
-20 0 -25 -5 -25 -25z"/>
<path d="M1360 595 c0 -20 5 -25 25 -25 20 0 25 5 25 25 0 20 -5 25 -25 25
-20 0 -25 -5 -25 -25z"/>
<path d="M60 599 c0 -8 5 -20 12 -27 9 -9 9 -15 0 -24 -7 -7 -12 -19 -12 -27
0 -11 4 -10 20 4 11 10 20 26 20 35 0 9 -9 25 -20 35 -16 14 -20 15 -20 4z"/>
<path d="M220 599 c0 -8 5 -20 12 -27 9 -9 9 -15 0 -24 -7 -7 -12 -19 -12 -27
0 -11 4 -10 20 4 11 10 20 26 20 35 0 9 -9 25 -20 35 -16 14 -20 15 -20 4z"/>
<path d="M350 565 l0 -45 45 0 c25 0 45 -5 45 -10 0 -6 6 -6 13 2 11 10 12 15
1 25 -7 7 -10 22 -7 33 5 18 0 20 -43 21 -40 1 -44 3 -24 9 l25 8 -27 1 c-27
1 -28 -1 -28 -44z"/>
<path d="M510 565 l0 -45 45 0 c25 0 45 -5 45 -10 0 -6 6 -6 13 2 11 10 12 15
1 25 -7 7 -10 22 -7 33 5 18 0 20 -43 21 -40 1 -44 3 -24 9 l25 8 -27 1 c-27
1 -28 -1 -28 -44z"/>
<path d="M1648 580 c-3 -20 0 -30 8 -30 7 0 15 -10 17 -22 l4 -23 2 23 c0 12
7 22 14 22 9 0 12 10 9 30 -3 23 -9 30 -27 30 -18 0 -24 -7 -27 -30z m32 0 c0
-5 -4 -10 -10 -10 -5 0 -10 5 -10 10 0 6 5 10 10 10 6 0 10 -4 10 -10z"/>
<path d="M1808 580 c-3 -20 0 -30 8 -30 7 0 15 -10 17 -22 l4 -23 2 23 c0 12
7 22 14 22 9 0 12 10 9 30 -3 23 -9 30 -27 30 -18 0 -24 -7 -27 -30z m32 0 c0
-5 -4 -10 -10 -10 -5 0 -10 5 -10 10 0 6 5 10 10 10 6 0 10 -4 10 -10z"/>
<path d="M2460 595 c0 -8 7 -15 15 -15 8 0 15 7 15 15 0 8 -7 15 -15 15 -8 0
-15 -7 -15 -15z"/>
<path d="M2700 595 c0 -8 7 -15 15 -15 8 0 15 7 15 15 0 8 -7 15 -15 15 -8 0
-15 -7 -15 -15z"/>
<path d="M2518 593 c12 -2 32 -2 45 0 12 2 2 4 -23 4 -25 0 -35 -2 -22 -4z"/>
<path d="M2758 593 c12 -2 32 -2 45 0 12 2 2 4 -23 4 -25 0 -35 -2 -22 -4z"/>
<path d="M2460 555 c0 -8 7 -15 15 -15 8 0 15 7 15 15 0 8 -7 15 -15 15 -8 0
-15 -7 -15 -15z"/>
<path d="M2700 555 c0 -8 7 -15 15 -15 8 0 15 7 15 15 0 8 -7 15 -15 15 -8 0
-15 -7 -15 -15z"/>
<path d="M1140 535 c0 -20 5 -25 25 -25 20 0 25 5 25 25 0 20 -5 25 -25 25
-20 0 -25 -5 -25 -25z"/>
<path d="M1200 535 c0 -20 5 -25 25 -25 20 0 25 5 25 25 0 20 -5 25 -25 25
-20 0 -25 -5 -25 -25z"/>
<path d="M1300 535 c0 -20 5 -25 25 -25 20 0 25 5 25 25 0 20 -5 25 -25 25
-20 0 -25 -5 -25 -25z"/>
<path d="M1360 535 c0 -20 5 -25 25 -25 20 0 25 5 25 25 0 20 -5 25 -25 25
-20 0 -25 -5 -25 -25z"/>
<path d="M2518 553 c12 -2 32 -2 45 0 12 2 2 4 -23 4 -25 0 -35 -2 -22 -4z"/>
<path d="M2758 553 c12 -2 32 -2 45 0 12 2 2 4 -23 4 -25 0 -35 -2 -22 -4z"/>
<path d="M1200 435 c0 -20 5 -25 25 -25 20 0 25 5 25 25 0 20 -5 25 -25 25
-20 0 -25 -5 -25 -25z"/>
<path d="M1360 435 c0 -20 5 -25 25 -25 20 0 25 5 25 25 0 20 -5 25 -25 25
-20 0 -25 -5 -25 -25z"/>
<path d="M350 405 l0 -45 50 0 c47 0 50 2 50 25 0 17 6 25 17 25 14 0 14 2 -2
20 -13 14 -22 17 -29 10 -5 -5 -26 -10 -45 -9 -33 1 -34 2 -11 9 l25 8 -27 1
c-27 1 -28 -1 -28 -44z m90 -5 c0 -5 -2 -10 -4 -10 -3 0 -8 5 -11 10 -3 6 -1
10 4 10 6 0 11 -4 11 -10z"/>
<path d="M510 405 l0 -45 50 0 c47 0 50 2 50 25 0 17 6 25 17 25 14 0 14 2 -2
20 -13 14 -22 17 -29 10 -5 -5 -26 -10 -45 -9 -33 1 -34 2 -11 9 l25 8 -27 1
c-27 1 -28 -1 -28 -44z m90 -5 c0 -5 -2 -10 -4 -10 -3 0 -8 5 -11 10 -3 6 -1
10 4 10 6 0 11 -4 11 -10z"/>
<path d="M1150 435 c0 -8 7 -15 15 -15 8 0 15 7 15 15 0 8 -7 15 -15 15 -8 0
-15 -7 -15 -15z"/>
<path d="M1310 435 c0 -8 7 -15 15 -15 8 0 15 7 15 15 0 8 -7 15 -15 15 -8 0
-15 -7 -15 -15z"/>
<path d="M2464 410 c0 -11 6 -20 12 -20 7 0 10 8 7 20 -3 11 -8 20 -12 20 -4
0 -7 -9 -7 -20z"/>
<path d="M2704 410 c0 -11 6 -20 12 -20 7 0 10 8 7 20 -3 11 -8 20 -12 20 -4
0 -7 -9 -7 -20z"/>
<path d="M45 400 c10 -11 23 -20 30 -20 7 0 20 9 30 20 19 21 7 28 -13 8 -9
-9 -15 -9 -24 0 -7 7 -19 12 -27 12 -11 0 -10 -4 4 -20z"/>
<path d="M205 400 c10 -11 23 -20 30 -20 7 0 20 9 30 20 19 21 7 28 -13 8 -9
-9 -15 -9 -24 0 -7 7 -19 12 -27 12 -11 0 -10 -4 4 -20z"/>
<path d="M2518 413 c12 -2 32 -2 45 0 12 2 2 4 -23 4 -25 0 -35 -2 -22 -4z"/>
<path d="M2758 413 c12 -2 32 -2 45 0 12 2 2 4 -23 4 -25 0 -35 -2 -22 -4z"/>
<path d="M1140 375 c0 -20 5 -25 25 -25 20 0 25 5 25 25 0 20 -5 25 -25 25
-20 0 -25 -5 -25 -25z"/>
<path d="M1300 375 c0 -20 5 -25 25 -25 20 0 25 5 25 25 0 20 -5 25 -25 25
-20 0 -25 -5 -25 -25z"/>
<path d="M1210 375 c0 -8 7 -15 15 -15 8 0 15 7 15 15 0 8 -7 15 -15 15 -8 0
-15 -7 -15 -15z"/>
<path d="M1370 375 c0 -8 7 -15 15 -15 8 0 15 7 15 15 0 8 -7 15 -15 15 -8 0
-15 -7 -15 -15z"/>
<path d="M680 370 c0 -5 18 -10 40 -10 22 0 40 5 40 10 0 6 -18 10 -40 10 -22
0 -40 -4 -40 -10z"/>
<path d="M840 370 c0 -5 18 -10 40 -10 22 0 40 5 40 10 0 6 -18 10 -40 10 -22
0 -40 -4 -40 -10z"/>
<path d="M2463 360 c-1 -11 4 -20 13 -20 8 0 14 9 14 20 0 11 -6 20 -13 20 -7
0 -13 -9 -14 -20z"/>
<path d="M2703 360 c-1 -11 4 -20 13 -20 8 0 14 9 14 20 0 11 -6 20 -13 20 -7
0 -13 -9 -14 -20z"/>
<path d="M2518 363 c12 -2 32 -2 45 0 12 2 2 4 -23 4 -25 0 -35 -2 -22 -4z"/>
<path d="M2758 363 c12 -2 32 -2 45 0 12 2 2 4 -23 4 -25 0 -35 -2 -22 -4z"/>
<path d="M2464 310 c0 -11 6 -20 13 -20 7 0 13 9 13 20 0 11 -6 20 -13 20 -7
0 -13 -9 -13 -20z"/>
<path d="M2704 310 c0 -11 6 -20 13 -20 7 0 13 9 13 20 0 11 -6 20 -13 20 -7
0 -13 -9 -13 -20z"/>
<path d="M2518 313 c12 -2 32 -2 45 0 12 2 2 4 -23 4 -25 0 -35 -2 -22 -4z"/>
<path d="M2758 313 c12 -2 32 -2 45 0 12 2 2 4 -23 4 -25 0 -35 -2 -22 -4z"/>
<path d="M1600 230 l0 -80 160 0 160 0 0 80 0 80 -160 0 -160 0 0 -80z"/>
<path d="M1150 245 c0 -42 3 -55 15 -55 12 0 15 13 15 55 0 42 -3 55 -15 55
-12 0 -15 -13 -15 -55z"/>
<path d="M1190 245 c0 -42 3 -55 15 -55 12 0 15 13 15 55 0 42 -3 55 -15 55
-12 0 -15 -13 -15 -55z"/>
<path d="M1230 245 c0 -42 3 -55 15 -55 12 0 15 13 15 55 0 42 -3 55 -15 55
-12 0 -15 -13 -15 -55z"/>
<path d="M1310 245 c0 -42 3 -55 15 -55 12 0 15 13 15 55 0 42 -3 55 -15 55
-12 0 -15 -13 -15 -55z"/>
<path d="M1350 245 c0 -42 3 -55 15 -55 12 0 15 13 15 55 0 42 -3 55 -15 55
-12 0 -15 -13 -15 -55z"/>
<path d="M1390 245 c0 -42 3 -55 15 -55 12 0 15 13 15 55 0 42 -3 55 -15 55
-12 0 -15 -13 -15 -55z"/>
<path d="M77 272 c-22 -25 -22 -45 3 -67 16 -14 20 -15 20 -4 0 8 -5 20 -12
27 -8 8 -8 15 1 26 20 23 8 41 -12 18z"/>
<path d="M237 272 c-22 -25 -22 -45 3 -67 16 -14 20 -15 20 -4 0 8 -5 20 -12
27 -8 8 -8 15 1 26 20 23 8 41 -12 18z"/>
<path d="M443 243 c26 -2 67 -2 90 0 23 2 2 3 -48 3 -49 0 -68 -1 -42 -3z"/>
<path d="M763 243 c26 -2 67 -2 90 0 23 2 2 3 -48 3 -49 0 -68 -1 -42 -3z"/>
<path d="M0 75 l0 -35 400 0 400 0 0 35 0 35 -400 0 -400 0 0 -35z"/>
</g>
</svg>
